<?xml version="1.0" encoding="UTF-8"?>
<svg viewBox="0 0 18 18" version="1.1" xmlns="http://www.w3.org/2000/svg" xmlns:xlink="http://www.w3.org/1999/xlink">
    <g id="Symbols" stroke="none" stroke-width="1" >
        <g id="Desktop/Footer" transform="translate(-1139.000000, -401.000000)">
            <g id="Socials" transform="translate(1049.000000, 399.000000)">
                <path d="M99.0000179,2 C96.5557468,2 96.2492572,2.01036041 95.2893115,2.05415994 C94.3313664,2.09788802 93.6771243,2.25000744 93.1046223,2.47250621 C92.5127927,2.70250734 92.0108844,3.01024728 91.510548,3.5105837 C91.0102116,4.01092011 90.7024716,4.51282845 90.4724705,5.10465802 C90.2499717,5.67712433 90.0978523,6.33136644 90.0541242,7.28931151 C90.0103247,8.24925721 90,8.55574675 90,11.0000179 C90,13.4442532 90.0103247,13.7507428 90.0541242,14.7106885 C90.0978523,15.6686336 90.2499717,16.3228757 90.4724705,16.895342 C90.7024716,17.4871715 91.0102116,17.9890799 91.510548,18.489452 C92.0108844,18.9897884 92.5127927,19.2975284 93.1046223,19.5275295 C93.6771243,19.7499926 94.3313664,19.9021477 95.2893115,19.9458401 C96.2492572,19.9896396 96.5557468,20 99.0000179,20 C101.444253,20 101.750743,19.9896396 102.710688,19.9458401 C103.668634,19.9021477 104.322876,19.7499926 104.895342,19.5275295 C105.487172,19.2975284 105.98908,18.9897884 106.489452,18.489452 C106.989788,17.9890799 107.297528,17.4871715 107.52753,16.895342 C107.749993,16.3228757 107.902148,15.6686336 107.94584,14.7106885 C107.98964,13.7507428 108,13.4442532 108,11.0000179 C108,8.55574675 107.98964,8.24925721 107.94584,7.28931151 C107.902148,6.33136644 107.749993,5.67712433 107.52753,5.10465802 C107.297528,4.51282845 106.989788,4.01092011 106.489452,3.5105837 C105.98908,3.01024728 105.487172,2.70250734 104.895342,2.47250621 C104.322876,2.25000744 103.668634,2.09788802 102.710688,2.05415994 C101.750743,2.01036041 101.444253,2 99.0000179,2 Z M99.0000179,3.62165445 C101.403097,3.62165445 101.687759,3.63080019 102.636772,3.67409957 C103.514263,3.71414792 103.990807,3.8607656 104.307942,3.98398304 C104.728039,4.14724883 105.027848,4.34231037 105.342769,4.65723115 C105.657725,4.97215193 105.852751,5.27199652 106.016017,5.69205761 C106.13927,6.00919338 106.285888,6.48573657 106.3259,7.36322768 C106.3692,8.31224136 106.378381,8.59690259 106.378381,11.0000179 C106.378381,13.4030974 106.3692,13.6877586 106.3259,14.6367723 C106.285888,15.5142634 106.13927,15.9908066 106.016017,16.3079424 C105.852751,16.7280392 105.657725,17.0278481 105.342769,17.3427688 C105.027848,17.6577254 104.728039,17.8527512 104.307942,18.016017 C103.990807,18.1392701 103.514263,18.2858878 102.636772,18.3259004 C101.687902,18.3691998 101.403276,18.3783813 99.0000179,18.3783813 C96.596724,18.3783813 96.3121342,18.3691998 95.3632277,18.3259004 C94.4857366,18.2858878 94.0091934,18.1392701 93.6920576,18.016017 C93.2719608,17.8527512 92.9721519,17.6577254 92.6571954,17.3427688 C92.3422746,17.0278481 92.1472131,16.7280392 91.983983,16.3079424 C91.8607299,15.9908066 91.7141122,15.5142634 91.6740638,14.6367723 C91.6307645,13.6877586 91.6216187,13.4030974 91.6216187,11.0000179 C91.6216187,8.59690259 91.6307645,8.31224136 91.6740638,7.36322768 C91.7141122,6.48573657 91.8607299,6.00919338 91.983983,5.69205761 C92.1472131,5.27199652 92.3422746,4.97215193 92.6571954,4.65723115 C92.9721519,4.34231037 93.2719608,4.14724883 93.6920576,3.98398304 C94.0091934,3.8607656 94.4857366,3.71414792 95.3632277,3.67409957 C96.3122414,3.63080019 96.5969026,3.62165445 99.0000179,3.62165445 Z M99.0000179,6.37838128 C96.447534,6.37838128 94.3783813,8.44753404 94.3783813,11.0000179 C94.3783813,13.552466 96.447534,15.6216187 99.0000179,15.6216187 C101.552466,15.6216187 103.621619,13.552466 103.621619,11.0000179 C103.621619,8.44753404 101.552466,6.37838128 99.0000179,6.37838128 Z M99.0000179,14 C97.343138,14 96,12.656862 96,11.0000179 C96,9.34313801 97.343138,8 99.0000179,8 C100.656862,8 102,9.34313801 102,11.0000179 C102,12.656862 100.656862,14 99.0000179,14 Z M104.884231,6.19578796 C104.884231,6.79226184 104.400686,7.27577152 103.804212,7.27577152 C103.207774,7.27577152 102.724228,6.79226184 102.724228,6.19578796 C102.724228,5.59931407 103.207774,5.11580439 103.804212,5.11580439 C104.400686,5.11580439 104.884231,5.59931407 104.884231,6.19578796 Z" id="Instagram"></path>
            </g>
        </g>
    </g>
</svg>