<svg id="Layer_1" data-name="Layer 1" xmlns="http://www.w3.org/2000/svg" viewBox="0 0 384.09 420.66">
  <defs>
    <style>
      .cls-1 {
        fill: #fff;
      }
    </style>
  </defs>
  <g>
    <path d="M133.25,343.77l-1.35-3.66a124.37,124.37,0,0,1,20.88-.77c-.29-3.26-.59-3.52-3.26-3.58-5.29-.11-10.58-.28-15.86-.41-.53,0-1,.08-1.69.13v4.71a13.49,13.49,0,0,0-1.22,1.92c-.67,1.56-1,3.24-2.56,4.33-.65.45-.83,1.57-1.27,2.47-1.52-.69-2.35-1.54-2.09-3.14a1.45,1.45,0,0,0-1.06-1.85c-1.19,1-.25,1.72.39,2.41-.8,2.11-1.35,4.31-3.34,5.67-1-1.18-1-1.18.65-3.35-1.94-2.14-1.94-2.14-4.54-1.82a9.45,9.45,0,0,0,.23,2.33,8.25,8.25,0,0,1,.24,4.38c-.3,1.45-.37,2.94-.62,4.4-.13.8-.43,1.57-.77,2.78-1.43-2.13-.53-4-.61-5.2-1.09-1-2.07-1.49-2.53-2.31a5.42,5.42,0,0,0-4.65-3,42.57,42.57,0,0,1-7-1.63c-1.29-.36-1.33-.54-2.08-2.56l3.23-1.21c-.42-.31-.79-.82-1.11-.79a33.73,33.73,0,0,0-9.62,2.26l2.58,2.46-.15.42-4-.63a38.61,38.61,0,0,0-.47,6.49c0,1.53,1.28,1.5,2.38,1.74a1.63,1.63,0,0,1-1.8,1.57,2,2,0,0,1-1.92-1.74c-.47-1.89-1-3.78-1.3-5.7-.62-3.85-1.12-7.72-1.64-11.59a3.51,3.51,0,0,1,.27-1.87l1.61,6.25.44-.1c-.32-2.94-.66-5.88-1-8.82C86.1,329,85.32,323.16,85,317.32c-.52-9.64-.7-19.3-1.09-28.94-.19-4.6-.5-9.2-.82-13.8-.21-3-1.1-3.51-4.28-2.5l1,1.24c-1.21,1.72-3.14,1.21-4.87,1.71,0,1.74-.52,3.47.75,5.08a3.12,3.12,0,0,1,.22,1.81c-.08,2.81-.32,5.62-.3,8.42.06,8.05.2,16.09.32,24.13a7.63,7.63,0,0,0,.17,1l3.61.68v.3H76.05a18.64,18.64,0,0,0-.16,2.14q.35,12.17.73,24.34a4.62,4.62,0,0,1-.77,3.25c-.25,0-.45.13-.54.07-2.61-1.87-4.74-4-4.92-7.53-.31-6-.79-12-1.19-18-.1-1.46-.16-2.92-.26-4.68-20.75.48-41.28-1.16-62.12-1.7-.21,2.34-.52,4.64-.61,7-.33,9.54-1.76,19-2.74,28.42-.46,4.5-.71,9-1.06,13.54-.12,1.47-.2,3-.44,4.42a3.94,3.94,0,0,1-.87,1.83c-1.28,1.54-1.69,1.57-3.85.35v2.07c-1.2-.22-1.42-1.12-1.4-2.11.07-3.74,0-7.49.32-11.21.87-10,1.57-20.07,1.69-30.17.16-13.35.76-26.7,1.25-40.06.21-5.61.61-11.22,1-16.83.09-1.4.3-2.8.51-4.19.15-.93.19-.93,1.72-1.52a22.92,22.92,0,0,1,.05,2.31c-.32,3.66-.75,7.31-1,11C1,284.8.61,290.49.44,296.18.16,306,0,315.71-.13,325.48c-.15,11.41-.93,22.78-2.05,34.14-.2,2.09-.23,4.21-.29,6.31a16.67,16.67,0,0,0,.17,2c2.39.12,2.8-.13,2.79-2.13A178.64,178.64,0,0,1,1.85,346.9a4,4,0,0,0-.53-2.6,4.74,4.74,0,0,1-.71-4.24c.62-2.32,1.47-4.58,2.21-6.88a6.65,6.65,0,0,0,.44-1.55c.37-5.53.68-11.06,1.08-16.59.5-6.93,1-13.86,1.64-20.77.55-5.83,1.33-11.63,2-17.45.1-.84.12-1.7.18-2.59l-1.7-.35c.19-.33.25-.63.41-.69,1.43-.49,1.69-1.51,1.71-2.92A31.57,31.57,0,0,1,10,260.34c.22-.67.13-1.63,1.31-1.84.68.63.24,1.37.15,2.09-.39,2.85-.82,5.7-1.08,8.57-.15,1.69.79,2.52,2.51,2.31C24.61,270,36.34,271,48,270.71c6.49-.14,13-.08,19.46-.1a3.76,3.76,0,0,0,2.58-.82,2.65,2.65,0,0,1,3.63-.05,2.64,2.64,0,0,0,1.48.53c1.94.06,3.88,0,6.09,0-.21-2.64-.44-4.93-.56-7.23s-.15-4.64-.22-7.28c-1.15,0-2,0-2.8,0-1.32.06-2.65.22-4,.2a4.1,4.1,0,0,0-3.16,1.24l2.65,1.39c-1,1.6-2.25,1.64-3.6,1.62-5.78-.08-11.56-.19-17.35-.21-11.25,0-22.48.45-33.7,1.39a22.24,22.24,0,0,1-3.74,0c-.37,0-.7-.63-1.05-1,.35-.25.67-.68,1-.72,2.62-.31,5.26-.54,8.07-.82l-2.34-2.24-18.8-1.82c-.19,0-.36-.25-.77-.55l3.32-.5c.16-.68.34-1.42.51-2.15C6.25,250.29,8,250.1,9.91,250c8.74-.24,17.48-.66,26.22-1,3.59-.12,7.19-.07,10.78-.1,1.4,0,2.69.18,3.07,1.89h6.21c7,0,14.06.07,21.09.17a52.88,52.88,0,0,1,6.78.45A21.93,21.93,0,0,1,88,252.87c-.3,1.74-1.87,1.39-2.8,2.17l.93,1c-1.33,1-2.62.49-4.16-.11.07,1.49.11,2.86.23,4.22.23,2.65.5,5.28.78,7.92a6.15,6.15,0,0,0,.29,1.1,13.08,13.08,0,0,1,.69,2.4,62,62,0,0,0,1.19,9.27,41.89,41.89,0,0,1,.6,7.46c.38,7.88.63,15.77,1.13,23.65.49,7.71,1.22,15.41,1.87,23.11a17.93,17.93,0,0,0,.48,2.17c.84-.61,1.71-1,2.12-1.59,1.21-1.88,3.06-2.6,5-3.1s4.25-1,6.52-1.48c-.59-2.54-1.23-5-1.72-7.48a51.44,51.44,0,0,1-1.11-7.16c-.35-7.26-.71-14.52-.71-21.78,0-7.58.39-15.15.66-22.72a41.58,41.58,0,0,1,.53-5.36,19.28,19.28,0,0,1,1.06-3.13,16.56,16.56,0,0,0-5.85,2.31A14.13,14.13,0,0,0,93.06,268a5.36,5.36,0,0,0-1.8,3.86c.08,2,0,4.08.28,6.08a29.83,29.83,0,0,1-.12,10,19.73,19.73,0,0,1-.37,2.24v-16.4a2.46,2.46,0,0,1,0-.47c.32-1.65-1.16-3-.57-4.83.49-1.56.1-3.41.09-5.12s0-3.44,0-5.16,0-3.44-.09-5.16c0-.92-.13-1.84-.22-3-.9,0-1.66,0-2.41,0a5.48,5.48,0,0,1-2.51-.33c-2.33-1.51-5-1.27-7.48-1.46-8.17-.61-16.36-1.17-24.55-1.53-7.33-.33-14.67-.44-22-.49-2.72,0-5.44.5-8.16.64-2.49.13-5,.06-7.48.09A53.88,53.88,0,0,0,1.94,248.5c-3.69,1-4.23,2.18-2.88,5.78a.92.92,0,0,1-1.55.12,2.67,2.67,0,0,1-1-2.71,5,5,0,0,1,3.41-3.87,72.18,72.18,0,0,1,7.92-2c2.21-.41,4.47-.49,6.8-.73a7.06,7.06,0,0,0-1.74-5.45c-2.3-2.65-4.54-5.36-6.81-8a5.37,5.37,0,0,0-.8-.85c-4.16-3.13-6.93-7.34-9.5-11.76-2.16-3.71-4.58-7.26-6.81-10.94a58.29,58.29,0,0,1-3.7-6.76,11.36,11.36,0,0,1,.6-11.2,14.43,14.43,0,0,0,1.71-4.78c.89-4.26,2.88-7.89,7.1-9.88,2-1,4-2.15,5.93-3.23a11.11,11.11,0,0,1,7.55-.8c3.68.7,7.35,1.55,9.92,4.74a5.11,5.11,0,0,0,2.26,1.15c6.34,2.21,12.71,4.34,19,6.59a168.92,168.92,0,0,1,21.13,8.94c1.32.68,2.57,1.48,3.85,2.23.87.5.76,1.16.13,2,2.56,1,4.58,3,7.38,2.9a10,10,0,0,0,1.65,1.56,17,17,0,0,0,2,.63c3,1.34,5.9,2.72,9,4.15.59-1.62,2.17-2.14,3.81-2.29a58.35,58.35,0,0,1,7.7-.33,9.16,9.16,0,0,1,6.16,3.07c1,1.07.95,1.34-.65,2.49-4.14-4.82-9.44-4-15-3.14l.54,1.82c-1.85,1.2-3.49.41-5.12-.34-3.19-1.47-6.39-2.92-9.53-4.5a2.31,2.31,0,0,0-3.12.44c-.69.74-1.46,1.41-2.16,2.14a2.72,2.72,0,0,1-2.37,1.17c-.8-2-.78-2.12.62-3.13,1-.72,2-1.39,3.3-2.27-.94-.56-1.59-1-2.25-1.33L45.29,188.37l-1.43-.79a3.55,3.55,0,0,0-4.29.19,29.75,29.75,0,0,1-4.52,2.37C34.3,188,34.3,188,38.61,186c-1-.88-2.08-1.35-3.38-.72a2.22,2.22,0,0,1-.9.23A65.37,65.37,0,0,0,22,186.84c-.19,0-.41-.14-.92-.34,1.37-1.56,3.21-1.6,4.81-2.05a32.3,32.3,0,0,0,5-1.53c-.76-.33-1.52-.67-2.29-1-3-1.2-6-2.3-8.88-3.64A36.21,36.21,0,0,1,14,175.05a13,13,0,0,0-8.87-2.28,11.23,11.23,0,0,0-4.07,1.61c-1.4.76-1.59,1.73-.82,3.13.33.58.78,1.09,1.48,2.06a6.54,6.54,0,0,1-3.2-3.41c-6.29,1.1-9.4,6.63-8.69,12.34.15,0,.37,0,.43-.05,2.21-2.76,5.25-2.88,8.32-2.45a51.43,51.43,0,0,1,7.05,1.62,17,17,0,0,1,3,1.63c2.17-1.35,4.22-.8,6.44.78a9.56,9.56,0,0,0,4.65,1.23,22.05,22.05,0,0,1,7.06,1.5,9.71,9.71,0,0,1,1.83,1c1.53,1.12,1.57,1.62.45,3.22-.17.24-.29.52-.42.74.55,1.26,1.71,1.14,2.64,1.38,5.89,1.52,11.83,2.88,17.7,4.52,3.9,1.09,7.71,2.52,11.54,3.86a4.79,4.79,0,0,1,3.08,2.13l-3.2,3.6,5.1,2.61c.2-.18.4-.27.41-.39.33-2.87,1.86-3.09,4.4-2.84a17,17,0,0,1,4.05,1.05,3.94,3.94,0,0,1,2.81,3.42c.13,1.06.63,2.08.87,3.14.51,2.19,1.92,3.28,4.24,3.58.33-.73.72-1.48,1-2.26q2.67-6.88,5.29-13.78c.27-.7.32-1.61,1.71-1.38a7.88,7.88,0,0,1-.13,1.69c-.79,2.62-1.61,5.22-2.49,7.81-1.54,4.59-3.12,9.16-4.7,13.74-.36,1-.4,1.86,1.18,2,.18-.52.42-1.06.57-1.62.51-2.05,1-4.11,1.5-6.14a5,5,0,0,1,5.11-3.84c2.23,0,2.83.51,3.31,2.69.18.8.36,1.61.65,2.93.57-1.32.91-2.18,1.29-3,1.48-3.27,2.89-6.57,4.5-9.77a11.13,11.13,0,0,1,2.45-2.79,2,2,0,0,1,2.37-.26c.49,1.6-1,2.42-1.41,3.82,3.53,1.47,7,2.93,10.76,3.07,2.66.11,4.49,1.37,6.22,3.74a6.89,6.89,0,0,1-1.88-.39,11,11,0,0,0-4.92-1.29c-3.32-.29-6.34-1.62-9.36-2.91-.85-.36-1.68-.77-2.64-1.21a12.21,12.21,0,0,0-2.8,8.86c.23,2.47.23,5,.33,7.45,0,.62.08,1.24.12,2,1.68.64,3.31,1.35,5,1.87a10.06,10.06,0,0,1,4.88,3.48c1.43,1.76,3.23,1.46,4.95,1.82l.22-.6c-.83-.32-1.66-.61-2.48-.95-2-.82-4.12-4.76-3.55-6.77a2.33,2.33,0,0,1,1.33-1.43,27.77,27.77,0,0,1,4.81-.62,18.74,18.74,0,0,1,3.14.4c.27-.91.44-1.73.75-2.51.84-2.09,1.67-4.19,2.64-6.22a3,3,0,0,1,2.64-1.71c.67,0,1.31.16,1.3,1s-.19,1.35-1.14,1.42c-.46,0-1.11.18-1.3.49a15.77,15.77,0,0,0-2.26,7.73,1.47,1.47,0,0,0,2.23-.75c.73-1.37,1.48-2.75,2.33-4.06.61-.93,1.44-1.69,2.74-1.23,1.73,2.15-.36,4.13-.38,6.08l4.93,2.16c1.21-1.14,2.7-2.48,4.1-3.9a2.16,2.16,0,0,1,2.78-.32,2,2,0,0,1,1.08,2.68,18.47,18.47,0,0,1-.77,1.7c-.27.55-.56,1.08-.91,1.74,1.29.41,1.94,0,2.24-1.09.65-2.25,1.28-4.5,1.91-6.75.18-.62.32-1.26.5-1.93a1.66,1.66,0,0,1,1.37,2.1c-.24,1.54-.55,3.07-.86,4.6-.18.83-.42,1.64-.69,2.68a19.47,19.47,0,0,1,2.78.5,21.53,21.53,0,0,1,2.63,1.28c2.08-4.05,1.82-8.08.08-12.13,1.73-.38,2.2-.21,2.68,1.25a14.16,14.16,0,0,1,0,9.65,30.37,30.37,0,0,1-8.44,12.22,47.34,47.34,0,0,0-4.58,4.6,14.28,14.28,0,0,1-2.05,1.91c-1.68,1.29-2.53,1.19-4.09-.22a7.61,7.61,0,0,0-1.72-1.09,21.59,21.59,0,0,0-2-.8c-.27,6.12-1,12.12-.4,18.46a35.78,35.78,0,0,1,5-.28,29.09,29.09,0,0,1,4.47,1l-.43,1.29,2.4.68v-1.73c.24,0,.41-.13.5-.07.25.17.44.47.72.58,4.19,1.73,6.2,5.6,8.65,9a13.71,13.71,0,0,1,1.76,4.78c.71,3,1.25,6,1.83,8.95,1.91,9.77-.62,18.16-8.17,24.72a60,60,0,0,1-8.55,5.7,9.5,9.5,0,0,1-3.55,1.05,1.74,1.74,0,0,1-2.2-1.71,11.92,11.92,0,0,0,8.5-3c-1.21-1.18-2.8-2.1-3.36-3.45s-.12-3.16-.12-4.63c-2.46-.23-4.92-.43-7.38-.71a1.41,1.41,0,0,0-1.78,1.34c-.3,1.93-.5,3.88-.88,5.79a57.75,57.75,0,0,1-1.47,6.14,10.18,10.18,0,0,0-.29,5c.54.2,1.12.4,1.68.63a9.07,9.07,0,0,1,2.77,1.22c2.16,2.05,4.82,2,7.46,2,7.5,0,15,0,22.49-.07h4.68c-1.83,1.77-3.69,1.36-5.35,1.56s-3.4.18-5.48.28c.47,1.37.84,2.44,1.22,3.52,3.24.63,6.57.36,9.52,2-2.86,1.21-5.79-.37-8.92.26.26,1.89.57,3.71.76,5.53.77,7.22,1.63,14.44,2.21,21.67.92,11.29,1.46,22.61,2.49,33.88.56,6.05,1.82,12,2.76,18.05h-.94c-1-6.77-2.44-13.52-3.07-20.34-1.08-11.72-1.59-23.5-2.53-35.23-.58-7.3-1.5-14.58-2.32-21.86-.23-2-.43-2.18-2.53-2.21-4.14,0-8.28-.07-12.41,0-1.85,0-3.69.35-5.68.56ZM68.76,291.05c.52-5.37-.42-10.5-.53-15.86H65.39c-4.84-.06-9.68-.19-14.52-.16-6.64,0-13.27.18-19.9.32-1.09,0-2.17.28-3.26.39-3.09.3-6.24,1.22-9.19-.65a1.4,1.4,0,0,0-.69-.11h-7c-1.11,5.77-4,35.77-3.67,38.11,2.57.62,59.66,2.39,61.59,1.91.49-3.15.21-21.27-.36-22.72-.82,0-1.66.05-2.48,0-1-.08-2-.4-3-.38-5.85.12-11.7.37-17.56.48-9.52.17-19,.27-28.57.38a6.75,6.75,0,0,1-1.39-.24l.05-.46c1.14-.08,2.28-.21,3.42-.23,9.52-.2,19-.28,28.57-.59C54.5,291,61.51,290.48,68.76,291.05Zm66.11,19.15a2.7,2.7,0,0,0,3.54-1.46,33.89,33.89,0,0,0,3.07-7.3,15.45,15.45,0,0,0-3.76-14.16,11.37,11.37,0,0,0-8.64-3.93v6.84h2.48c.44,2,.74,4,3.12,4.5.06,0,.12.1.15.17.87,1.65,1.81,3.27,2.57,5,.51,1.13.68,2.39,1.12,3.55a4.73,4.73,0,0,1-2.08,6C135.93,309.7,135.4,309.94,134.87,310.2Zm-26,25.54c-1.08-.76-2-1.53-3.09-2.16a3.81,3.81,0,0,0-2.08-.77c-2.86.37-5.7.86-8.52,1.42-2.23.44-3.18,2-3.36,4.19-.06.76-.14,1.52-.21,2.17l-2.15,1c.11,1.1.2,2.12.34,3.47,5.53-2.61,11.13-3.44,16.78-4C106,338.09,106,338,108.87,335.74Zm-38-37.24h.33c0-1.78,0-3.57,0-5.36s.15-3.57.12-5.36.34-3.42-.37-5.56c-.33.56-.55.75-.55.94C70.58,288.27,70.75,293.39,70.91,298.5Zm53-51.44L122.59,249c1.81.17,1.78.2,3,1.51a17.88,17.88,0,0,0,1.83,1.41C127.92,248.82,127.89,248.79,123.91,247.06Zm-8.76,85.23c-3.72-.88-3.67-.19-4.73,3.14C112.91,335.64,113.71,333.64,115.15,332.29ZM110.33,344a6.56,6.56,0,0,0-4.59-.22C107.45,345.34,108.89,344.5,110.33,344Zm39.33-33.5c1.84-2.12,1.92-2.81.51-3.38ZM120,245.36l2.5-.21-.85-1.93ZM72.76,334.21l-.52,0c0,1,.09,2,.14,2.95l.56,0ZM129,272.12h2.24C130.6,270.85,130.6,270.85,129,272.12Zm11.15,36.51.49.25.7-1.48-.42-.19ZM84.5,236.36l-.14-2-1.26,1.44Zm8.3.14-.32-.55-1.45.86.24.4ZM61.38,195.13l-.07.25.74.22.08-.25Zm65.87,84.77h.13v-1h-.13ZM130.4,310l0,.39c.12.08.28.25.35.22a4.06,4.06,0,0,0,.62-.43Zm-3.58-23.57H127l0-.75h-.17Z"/>
    <path d="M321.67-1.34,322.9.73c-1.31.79-1.3,2.15-1.31,3.57q0,35.16-.08,70.32c0,12.35-.2,24.69-.31,37,0,.61-.08,1.21-.15,2.14a3.08,3.08,0,0,1-.67-2.6c-.08-8.91-.13-17.82-.2-26.72,0-1.59.22-3.16-1.29-4.46a3.56,3.56,0,0,1-1-3.22c.23-1.6-.61-2.43-2.19-2.78-.83-.19-1.65-.4-2.48-.6-1.74-.43-3,.08-3.52,1.78a4,4,0,0,1-1.64,2.15,10.73,10.73,0,0,0-3.56,4c-.33.66-1.21,1.06-2,1.74a39.82,39.82,0,0,0-.18,4.63,3.62,3.62,0,0,0,1.19,1.85c1.37,1.43,1.57,1.92.18,3.33a31.64,31.64,0,0,1-5.08,4.06,2.73,2.73,0,0,0-1.5,2.6q.09,11.73,0,23.44c0,4.44-.2,8.88-.28,13.32a5.36,5.36,0,0,0,.82,3,9.37,9.37,0,0,1,.92,4.44,13.85,13.85,0,0,0,1.46,6.27c1,1.86.36,3.25-1.68,3.65a15.54,15.54,0,0,1-3.73.24c-1.51-.06-2-.77-1.86-2.32.21-2.25.45-4.49.69-6.92l-2.58-1.25v3.44a3.6,3.6,0,0,1-1.41-4c.21-.82.71-1.57.92-2.39a2.46,2.46,0,0,0-.06-1.74,3.27,3.27,0,0,1,.31-4.56c-1.52-1.52-2.91-2.86-4.24-4.28a12,12,0,0,1-1.83-2.39,1.66,1.66,0,0,1,.87-2.5c-.06,2.21,1.33,3.34,2.67,4.53,1.1,1,2.13,2.06,3.2,3.09a1.75,1.75,0,0,1,.4,2.5c-.68.92-.38,1.66,0,2.59a4.49,4.49,0,0,1,.23,2.47c-.39,2.31-.1,2.62,2.7,2.35-.36-.62-.69-1.2-1.1-1.94,1.43-1,1.31-2.52,1.31-4,0-2.89.15-5.78.07-8.67-.1-3.56-.37-7.12-.57-10.84a6.32,6.32,0,0,0-3.87,2.24c-1,1.07-1.82,2.3-2.74,3.48-1.06-.94-.59-1.83-.15-2.64a10.88,10.88,0,0,1,4.18-4.33c.67-.39,1.35-.76,2.23-1.25-.49-.83-1-1.59-1.38-2.39-.71-1.41-.68-2.26.55-3.08,2-1.33,1.44-3.07,1.07-4.8a10.51,10.51,0,0,0-.85-1.92,3.79,3.79,0,0,1,.4-4,5.13,5.13,0,0,0,1-3.29c.06-3.83.13-7.65.22-11.48,0-1.93-.3-3.89.77-5.71a3.28,3.28,0,0,0,.13-1.61q-.18-20-.39-40.08A2.5,2.5,0,0,0,295,34.8c-.83,5.31-.53,10.64-.59,16s-.05,10.63-.06,15.94,0,10.75,0,16.31c-5.69.9-11.21,1-16.9,1.51-.11,7.28-.29,14.44-.32,21.6s.06,14.35.1,21.62a4,4,0,0,1-.61-1.16,80.8,80.8,0,0,1-1.29-10c-.1-5.54.23-11.09.37-16.64,0-1.14.22-2.21-1-3.15-.58-.46-.69-1.7-.76-2.6-.19-2.42-.23-4.84-.35-7.26a5.17,5.17,0,0,0-.45-1.9c-.76,1-.48,2.08-.47,3.11q.11,21.45.24,42.89c0,3.44,0,6.88-.09,10.32,0,1,.18,2-.85,2.83-1.14-.46-1-1.48-1-2.37-.06-3.36-.11-6.72-.1-10.08q.12-22,.27-44.06V84.6L231.18,86c-.18-.8-.32-1.47-.47-2.14a6.6,6.6,0,0,0-2.77-4.43,14.45,14.45,0,0,1-2.53-2.74,5,5,0,0,0-3.2-1.74c-2.08-.31-4.09-.84-6.26-.39-1.71.35-4.48-2-4.64-3.72a7.87,7.87,0,0,0-1.71-4A16.78,16.78,0,0,1,207.47,63a9.27,9.27,0,0,0-5.31-5.61A9.64,9.64,0,0,1,197,53.19c-.29-.52-.8-1.16-1.31-1.27-2.8-.59-4.9-2.69-7.6-3.46a21.69,21.69,0,0,0-2.45-.38c-.06,1.11-.14,1.94-.14,2.77q0,36.33.1,72.67a24.78,24.78,0,0,1-.79,6.43A3.67,3.67,0,0,1,184,127c-.07-5.54-.18-11.09-.17-16.64q0-28.83.14-57.66V50.34l-6.52,1.44c-.12-1-.26-1.75-.27-2.49,0-1.87-.06-3.75,0-5.62.08-2.68-.17-5.36,0-8.05s0-5.62,0-8.43V16.07h-3.63l0-.33a11.7,11.7,0,0,1,1.93-.56c1.4-.16,1.78-.92,1.77-2.23-.06-3.83,0-7.66,0-11.49,0-.93.09-1.86.14-2.8h1.41c.1,1.83.21,3.65.33,5.77,2.53-.3,4.76-.5,7-.82C194.07,2.43,202.15,1.2,210.24,0c3.38-.5,6.77-.91,10.16-1.36H242a14.59,14.59,0,0,1-2,.45c-3.73.32-7.47.64-11.21.87-11.54.7-23,2-34.46,3.61-5,.72-9.95,1.91-15.05,1.48a27.14,27.14,0,0,0,0,9.22c1-.12,2.1-.23,3.16-.38,8.19-1.15,16.35-2.63,24.58-3.4,13.9-1.29,27.85-2.2,41.78-3.17,13.55-.94,27.11-1.74,40.66-2.63,1.38-.09,2.74-.35,4.19-.54L294-1.34h1.87c.09,1.68.18,3.36.28,5.33,2.24-.21,4.24-.33,6.22-.61,5.3-.73,10.6-1.49,15.89-2.33,1.69-.27,1.67-.4,1.52-2.39ZM293.55,6.27c-1.07,0-1.92,0-2.76,0-12.22.85-24.44,1.76-36.67,2.55-9.35.61-18.71,1-28.06,1.61-14.89.94-29.69,2.81-44.47,4.78-.84.11-1.67.29-2.73.47-.06,4.61-.17,9.09,0,13.9,1.45,0,2.6.07,3.74,0,1.79-.13,3.58-.3,5.36-.55,17.11-2.42,34.35-3.11,51.58-4.05,9-.5,18.08-1,27.12-1.59,8.18-.53,16.35-1.16,24.52-1.77.76-.05,1.51-.2,2.43-.33a51.57,51.57,0,0,0-.1-8.45c-1,0-1.74,0-2.43,0q-4.44.33-8.87.69c-8.56.7-17.12,1.36-25.67,2.13-10.89,1-21.76,2-32.64,3.09L200.37,21c-4.74.46-9.47,1-14.21,1.4-.86.08-1.82.39-2.64-.63,36.66-4.45,73.24-7.83,110-10.73ZM178.94,37.12c.95,0,1.72.06,2.49,0,2.1-.17,4.19-.41,6.29-.58,10.73-.89,21.46-1.91,32.21-2.62,11.76-.78,23.54-1.22,35.31-1.9,10.83-.62,21.66-1.36,32.49-2.07,1.92-.13,3.83-.37,5.85-.56.14-2.23.41-4.21-.19-6.19-1.37,0-2.61-.07-3.84,0-5.69.38-11.37.84-17.05,1.21-6.16.41-12.32.75-18.48,1.11q-10.64.63-21.28,1.23c-7.71.43-15.44.73-23.15,1.29-7.86.58-15.7,1.41-23.56,2.12-2.31.2-4.63.34-7.09.52ZM313,28.3l.07.47a6.39,6.39,0,0,1-1.4.51c-2.24.31-4.48.61-6.73.82-2.41.23-4.83.35-7.24.54-1.51.12-1.72.35-1.68,1.87a6.83,6.83,0,0,0,.29,1.3c2.6,0,5.16,0,7.71,0,2.28,0,4.51.8,6.85-.21,1.58-.67,2.86.09,3.63,1.7.6,1.26,1,2.58,2.6,3,.37.1.61.83.82,1.32.58,1.29,1.1,2.61,1.76,4.21.5-3.05.39-39.53-.06-41.19L296.24,6a8,8,0,0,0,.24,4.9l18-1.46a2.12,2.12,0,0,0,.85-.27c1.66-1,2.29-1,3.9.49a4.82,4.82,0,0,1-3.2,1.17c-4.2.38-8.4.71-12.59,1.06l-7.25.64v8.69l18.87-1.6.13.47a4.11,4.11,0,0,1-1.11.59c-1.68.33-3.36.69-5.06.87-3.73.4-7.46.69-11.19,1-.79.07-1.7.07-1.74,1.13-.06,1.76,0,3.52,0,5.46C302,29.22,307.48,28.26,313,28.3Zm-19.48,2.5c-38.33,3.46-76.49,3.93-114.62,7.47v5.26a8.55,8.55,0,0,0,1.3-.28,24.29,24.29,0,0,1,8.21-1.63c3-.12,5.91-.36,8.86-.61,7.92-.64,15.82-1.42,23.75-1.95,6.21-.43,12.45-.56,18.68-.84,1.63-.07,3.27-.19,4.9-.3,4.58-.31,9.17-.61,13.75-1q5.94-.44,11.87-1c4-.36,8.06-.77,12.09-1.17l11.21-1.1ZM296.8,83a105.66,105.66,0,0,0,.37,12.43,11.45,11.45,0,0,0,5.72-3.9c-.21-.29-.3-.54-.47-.65a3.84,3.84,0,0,1-1.85-4.16,27.06,27.06,0,0,0-.12-4.06ZM213.28,58.53c-.54.9-1.08,1.43-1.09,2,0,.37.73,1.06,1.14,1.06.82,0,1.15-.78,1-1.52C214.28,59.63,213.84,59.28,213.28,58.53Zm36.68-5c-.22.43-.47.7-.42.91a.75.75,0,0,0,.6.46.76.76,0,0,0,.48-.59C250.61,54.06,250.29,53.86,250,53.49Zm44.37,55.61c-.37.76-.59,1-.57,1.23s.29.52.44.78l.3-.11C294.46,110.56,294.42,110.12,294.33,109.1Z"/>
    <path d="M384,277.18c-1.21-4.26-2.67-8.46-3.61-12.78-3-13.76-7.4-27.1-11.94-40.4-.66-1.93-.69-1.83-2.66-1.2a9.06,9.06,0,0,1-3,.36c-2.26-.06-4.53-.16-6.78-.41-3.22-.36-6.35.45-9.53.57-1.79.07-3.59.21-5.38.21q-14.65,0-29.29,0h-2.79a8.93,8.93,0,0,0-.32,1.63c.55,21,1.11,42,1.67,63.08a14.75,14.75,0,0,0,1.72.28c5.16.14,10.31.23,15.46.38a61.09,61.09,0,0,1,15.86,2.82,22.39,22.39,0,0,1,3.07,1.59c1,.46,2,.82,3,1.23.22,2.43-.17,3.23-2.22,3.92a65.29,65.29,0,0,1-20.84,3.95c-6.09,0-12.18.16-18.27.27a3,3,0,0,0-1.8.6,5.63,5.63,0,0,0,1.38.47,74.71,74.71,0,0,0,7.46.59c13.51-.07,27-.24,40.53-.4a40.56,40.56,0,0,1,5.62,0,44.15,44.15,0,0,1-4.93.84c-7.09.39-14.18.67-21.28,1-2.63.13-5.26.41-7.9.49-1.87.05-3.75-.11-5.62-.16-4.76-.12-9.52-.36-14.28-.32-6.63.05-13.27.32-19.9.48-1.63,0-3.26,0-4.88,0l0-.54,21.13-1.49v-.19c-3.68-.37-7.35-.85-11-1.07-2.25-.13-4.52.21-6.78.2-2.7,0-5.4.18-7.91-1.41-.82-.52-2.24-.08-3.73-.08.54.46.82.85,1.2,1,2.65,1.06,3.42,3.24,3.53,5.83a3.78,3.78,0,0,0,.06.47c-2.29,1.52-4.44.66-5.61-2.48l3.4-.38c.12-1.1-.76-1.36-1.37-1.71-4.48-2.55-9-5.06-13.48-7.57-.88-.49-2.07-.69-2.11-2.46l9.87,4.89c.45-4,3.28-5.6,6.48-6.47a111.58,111.58,0,0,1,13.69-3c4.55-.64,9.19-.62,13.79-.88,1.54-.09,3.08-.15,4.83-.23-.05-.91-.06-1.59-.14-2.26-.22-1.7-.43-3.41-.73-5.1a7.78,7.78,0,0,0-.72-1.93c-.76-1.61-1.12-3.13.06-4.78a3.87,3.87,0,0,0,.36-2.25c-.17-5.07-.47-10.14-.58-15.21-.22-10-.35-20-.51-30,0-1.08,0-2.15,0-3.43-1.11-.09-1.94-.2-2.77-.21-14.3-.07-28.6-.07-42.89-.2-10.39-.1-20.76-.4-31.15-.56-4.75-.07-9.51,0-14.37,0-.24.75-.51,1.39-.66,2.05q-6.76,28.86-13.49,57.71c-.59,2.51-1.11,5-1.61,7.56a4.59,4.59,0,0,0,4,4.94c10.63.17,21.2,1.09,31.75,2.3,1.23.15,2.45.44,3.68.69.19,0,.36.24.49.73-6.07-.57-12.13-1.24-18.2-1.67s-12.14-.63-18.21-.92c-.16,7.11.4,13.93,3.82,20.24a4.1,4.1,0,0,0,4,2.56c4.92.05,9.83.51,14.75.52,2.88,0,5.65.7,8.49.88.34,0,.66.24,1,.83l-3,.25-.06.34,4.51.65a44.12,44.12,0,0,0,6.16-11.57c.43-1.26.78-2.54,1.14-3.82a19.09,19.09,0,0,1,3.59-7c1.18-1.45,2.08-3.12,3.11-4.68.41-.61.85-1.2,1.28-1.8l.44.22a2.9,2.9,0,0,1-.18.93,51.64,51.64,0,0,1-3.79,5.62,15.83,15.83,0,0,0-3.51,6.52A50.19,50.19,0,0,1,238,321.61a154.13,154.13,0,0,0-12.68,25c-3.4,8.39-7.16,16.64-10.76,24.95l-.7,1.61c.74,1.73,1.28,3.23,2,4.63,3.38,6.43,6.83,12.83,10.22,19.25.59,1.12,1.51,2.17,1.16,4.1-3.27-4.24-5.29-8.7-7.52-13s-4.34-8.6-6.68-13.24l-1.64,3.16-.34-.11c.26-.78.47-1.58.79-2.34,5.19-12.39,10.36-24.79,15.6-37.16,1.06-2.5,2.36-4.9,3.68-7.63a79.49,79.49,0,0,0-19.89,1,151.47,151.47,0,0,0,8.77,18.56l-.5.34a15.24,15.24,0,0,1-1.83-2.38c-2-3.91-3.8-7.87-5.69-11.82a8,8,0,0,1-.53-1.29,6,6,0,0,0-4.79-4.7c-3.21-.75-5.55-3.12-7.6-5.61a16.82,16.82,0,0,1-2.44-3.72c-.94-2.11-2.54-2.51-4.61-2.34-2.91,7.3-4.48,14.95-6.62,22.8l-3.21-1.24a1.85,1.85,0,0,1-3-.23c-2.19,8.28-4.34,16.38-6.59,24.9-.17-.1.13,0,.37.21a1.91,1.91,0,0,1,.31,3.12,3,3,0,0,1-3.2.82c-1.58-.63-2.42-1.62-2.24-3.06.5-4.11,1.14-8.19,1.69-12.29,1.43-10.52,3.4-20.94,5.51-31.41a5.41,5.41,0,0,0-.53.93,14,14,0,0,1-.67,2.22,5.07,5.07,0,0,1-1.69,2.16,7.26,7.26,0,0,1-3.08.49c-.31,0-.85-.5-.93-.85a2.42,2.42,0,0,1,.15-1.78c1.24-1.51,1-3.23,1-4.92q0-44.07.09-88.14c0-3.36.12-6.72.19-10.08,0-.77.11-1.54.17-2.29l2-.18c-.09-.35-.08-.56-.16-.61a10.73,10.73,0,0,0-2.84-1.59,3.45,3.45,0,0,1-2.73-2.58l3.72-.78a16,16,0,0,0-1.5-.6c-1.6-.36-3.22-.61-4.78-1.08-.38-.12-.54-.93-.8-1.43.48-.13,1-.49,1.42-.37,5.1,1.53,10.37,1.43,15.57,1.44,12.73,0,25.46-.26,38.2-.47q9.94-.16,19.9-.49c8.82-.29,17.64-.67,26.45-1s17.49-.58,26.23-.83c10.7-.3,21.39-.55,32.09-.86,8.43-.25,16.86-.6,25.29-.81a64,64,0,0,1,8.19.31c6.32.67,12.64.38,19,.32,3,0,6.08.06,9.11.09v13.13l-3.16.47c1.14,2.86,2.15,5.41,3.16,8ZM174.91,308.4c0,1.39,0,2.48,0,3.57.07,1.73.21,1.86,2.23,2.41.21-.9.45-1.8.62-2.71,1.32-7,2.56-14,4-20.94,2-9.79,4.27-19.52,6.08-29.34,2.22-12.13,4.09-24.32,6.09-36.49.14-.89.13-1.81.19-2.63l-14.59-1.81c-.22,1.46-1.43,1.88-2.74,2,0,2.85,0,5.57,0,8.29q.07,20.86.15,41.71c0,.9.12,1.79.18,2.61,5.06,1.09,6.77,3.31,4.63,5.87-1.49-1-1.93-3.59-4.68-3.08-.06,1-.17,2-.18,3q-.06,11.59-.1,23.19c0,.78,0,1.56,0,2.34C176.72,307.43,176.4,308.33,174.91,308.4Zm-4.19,59.38c.27-1.31.45-2.58.8-3.8.85-3.08,1.92-6.11,2.66-9.22q4.48-18.67,8.82-37.39c.42-1.79,1.16-3.59.16-5.45-.15-.28,0-.76.09-1.15a160.78,160.78,0,0,1,5-21.17c2.2-7.16,4.32-14.37,5.86-21.69,2.34-11.07,4.13-22.26,6.21-33.39.92-4.9,2-9.78,3-14.7-1.35-2.17-1.35-2.18-3.43-.7-.49.35-.9.83-1.38,1.2a5.56,5.56,0,0,1-1.88,1.29c-1.34.28-1.48,1.15-1.58,2.23-1.22,12.83-3.16,25.58-5.55,38.24-1.54,8.2-3.59,16.31-5.29,24.49-2.09,10-4,20.05-6.1,30.06-1.54,7.41-3.41,14.76-4.77,22.2-1.54,8.44-2.68,16.95-4,25.44a8.21,8.21,0,0,0,0,2.32C169.55,367.32,169.9,367.94,170.72,367.78ZM292,297a10.89,10.89,0,0,0,2.5,1.35,32.68,32.68,0,0,0,5.3.75c6.8.35,13.53-.59,20.27-1.3a6.32,6.32,0,0,0,2.21-.68,1.86,1.86,0,0,0,.87-1.21c0-.26-.51-.81-.88-.92a52.33,52.33,0,0,0-7.44-1.8,38.85,38.85,0,0,0-7.7,0c-3.79.32-7.58.82-11.34,1.4A4.55,4.55,0,0,0,292,297Zm-93.13-1.34-.69.24c-.23.8-.48,1.59-.68,2.4-1,3.91-1.9,7.86-3,11.75-.47,1.63-.53,2.94.69,4.28a27.63,27.63,0,0,1,1.94,2.9c.31.43.71,1.08,1.11,1.1,2,.15,4.1.67,6.32.11-.2-.59-.36-1-.5-1.43-1.07-3.32-2.26-6.61-3.15-10a25.93,25.93,0,0,1-.27-4.85,32,32,0,0,0-.44-4.6C200,296.84,199.32,296.26,198.86,295.62Zm8.6,25.87-.41.33c.79,1.83,1.57,3.67,2.38,5.49s1,1.85,3,1.71c3.8-.27,7.6-.51,11.4-.67,2.33-.1,4.66,0,7-.05,2.09,0,2.11-.1,2.87-2.51-.77-.47-1.61-1.42-2.44-1.41-2.89,0-5.76-1.18-8.67-.12a4.33,4.33,0,0,1-1.84-.11,29.52,29.52,0,0,0-5.07-.68A15.91,15.91,0,0,1,207.46,321.49ZM197,262.57c.08.09.12.18.17.19a.2.2,0,0,0,.19-.09,20.15,20.15,0,0,0,.63-2c1-4.8,2-9.63,3.09-14.41,1.62-7.08,3.36-14.12,5-21.19.36-1.56.58-3.15.9-4.87-.63,0-1.07-.19-1.18-.06-.77.92-1.7,1.66-1.93,3-1.44,8.54-3,17.06-4.51,25.6C198.53,253.38,197.75,258,197,262.57Zm1.85,57.06a18.23,18.23,0,0,0,8.95,8.54l.51-.35c-1.16-2.56-2.31-5.11-3.52-7.81ZM212,320.71c3.34.56,6.71,1,10,1.72,2.52.54,4.81-.41,7.27-.56-.24-.42-.5-.77-.8-.8A109.16,109.16,0,0,0,212,320.71ZM185.22,338.8c.33-1.89.63-3.64.94-5.38a4.17,4.17,0,0,0-1.24,1.74c-.43.87-.66,2.07-2.15,1.36-.09,0-.53.61-.92,1.09.76.24,1.2.37,1.63.53S184.35,338.46,185.22,338.8Zm6.83-25.16c-1.51,1-2.06,3-1.76,5.85C191,317.26,191.51,315.45,192.05,313.64Zm97.27-16.92c.89.83,1.17,2.26,2.72,1.93-.45-1-.83-1.9-1.25-2.86Zm-96.91,21.1h2.28l-1.57-2.33C192.83,316.46,192.66,317,192.41,317.82ZM275,299.14c-.07-.17-.08-.32-.14-.34l-1.35-.48c0,.34.17.52.34.58A9.22,9.22,0,0,0,275,299.14Zm-40,25.36-.38-.52c-.26.26-.55.5-.78.78,0,0,.12.25.19.38Z"/>
    <path d="M355.89-1.34c.06,2,.16,3.9.16,5.84q-.07,50.37-.16,100.74c0,1.17,0,2.35-.09,3.51-.18,1.89-.52,2.11-2.55,1.9a1.19,1.19,0,0,0,.68,1.86,2.86,2.86,0,0,1,1.8,2.29c.19,1.07-.14,1.83-1.53,2.12a3.25,3.25,0,0,0,0-1.06,4.23,4.23,0,0,0-.81-2c-.3-.24-1.23.19-1.83.43-.33.13-.57.49-.8.71-2.91-.79-3.57-.36-3.62,2.41,1.92.73,4,.14,5.93.4s4,.57,6,.85l6.22.85c-.06.4-.13.81-.19,1.23,2.74,2.11,3.5,4.2,2,6l-1-1.47c-.18,0-.38-.06-.48,0-3.06,2.19-6.6,3.11-10.2,3.89-2,.44-2.13.33-2.94-1.59-.09-.21-.23-.39-.47-.8-5.28.07-10.69-.15-15.87,1.5a14,14,0,0,0-5.42,3.19,20.11,20.11,0,0,0-3.71,5.59,19.78,19.78,0,0,0-1.75,10,12.94,12.94,0,0,0,2.56,6.93c.54.74.86,1.64,1.42,2.36A5.87,5.87,0,0,0,331,158c1.22.71,2.54,1.22,3.77,1.89.93.51,2,.95,1.95,2.37,0,.35.61.93,1,1a22.68,22.68,0,0,0,5.67,1.15c6.08-.09,12.16-.49,18.25-.68a7.72,7.72,0,0,0,5.51-2.19c1.74-1.76,3.37-3.63,5.24-5.66l-1.53-.25c4-6.19,2.83-12.59.77-18.95a10.72,10.72,0,0,0-5.24-6.07c-.76-.43-1.69-.75-2-2.09,2.76.41,4.56,2,6.46,3.39l-.07-.07c.63,1.06,1.27,2.12,2,3.29,1.89-2.16,4.43-2.56,7.19-3.26l4,7v2.34a11.89,11.89,0,0,1-4.2,3.93c-.32.15-.78,0-1.71,0,1.35-1.18,2.35-2,3.29-2.89.69-.64,1.47-1.4,1.1-2.42a37.19,37.19,0,0,0-3.27-6.64c-2.17,1-4.51,1.15-6,3.19a32,32,0,0,0,1.4,4.42,17.35,17.35,0,0,1,1.84,8.83,3.16,3.16,0,0,0,.2.85l2.42-.18a1.94,1.94,0,0,1-1.1,1,4.42,4.42,0,0,0-3,3,24.29,24.29,0,0,1-5.27,7.4c-.41.42-.76.89-1.41,1.67,1,0,1.63,0,2.23,0l13.52-1v8.44a31.88,31.88,0,0,0-11.07,1l11.07-.54v1.88c-11.16.1-22.33.12-33.5.34-5.07.1-10.13.56-15.19.91-7.16.5-14.31,1.3-21.48,1.53-10.54.33-21.08.26-31.63.41-4.84.07-9.67.25-14.51.39-5.54.15-11.09.47-16.63.43-8,0-16.07-.36-24.11-.56a23.93,23.93,0,0,1-3.5-.17c-4.67-.82-9.34-.53-14-.22-3.74.25-7.48.43-11.23.58a2.48,2.48,0,0,0-2.55,1.92c-.77,2.25-1.73,4.43-2.69,6.86.75,0,1.43,0,2.1,0l52.21-1.93q32.31-1.19,64.62-2.33c21-.72,42-1.35,63-2,3-.09,6.08,0,9.12-.06v1.88l-34.66,1.13-35.6,1.17-36.3,1.16q-17.34.55-34.67,1.07c-8,.24-15.93.39-23.89.65-11.48.37-23,.82-34.43,1.21-4.06.14-8.12.23-12.18.31a13,13,0,0,1-1.81-.27c1.12-1.27,2.61-.48,3.67-1.35-.12-.53-.22-1.12-.37-1.71a6.85,6.85,0,0,1,1-6.22c1-1.36,1.59-3.05,2.58-4.44s1.92-1.27,3,.6c1.05-1.8,2.8-1.92,4.56-2.15,4.41-.55,8.8-1.29,13.22-1.74,2.86-.29,5.77-.17,8.66-.28,3.11-.12,6.22-.29,9.34-.44,5.77-.27,11.54-.9,17.3-.73,13.77.39,27.47-.77,41.2-1.37,18.26-.81,36.52-1.71,54.78-2.57,2.1-.1,4.19-.24,6.52-.38-1.14-2.08-2.08-3.92-4.38-4.65a9.68,9.68,0,0,1-3-1.71,13.24,13.24,0,0,1-2-2.47c-.23-.3-.28-.74-.49-1-3.31-4.94-3.1-10.2-1.24-15.5a67.1,67.1,0,0,1,3.21-6.75l-.06.06c1.73-1.3,3.51-2.55,5.18-3.93a5,5,0,0,0,1.46-2,32.43,32.43,0,0,0,1.25-4.74,2.18,2.18,0,0,1,1.72-1.94c2.55-.71,5.08-1.47,7.79-2.26a6.13,6.13,0,0,1,2.51-4.38c.5-.38.55-1.55.56-2.35,0-6.25-.08-12.49-.06-18.73q.11-42.37.27-84.75c0-3,.21-5.93.32-8.89Zm.82,121.76c0-.21,0-.42,0-.63-1.46-.18-3-.67-4.36-.46a25.59,25.59,0,0,1-7.16.18c-2.1-.28-4.4.77-6.58,1.34a2.12,2.12,0,0,0-1.35,1.09c-.53,1.58-.87,3.24-1.37,5.27,5.38-2,10.71-1,15.87-2.11.08-.43.17-.8.21-1.18s0-.94.11-1.4c.26-1.57.7-2,2.3-2.09C355.18,120.38,355.94,120.42,356.71,120.42ZM321.36,174l0-.49a133.15,133.15,0,0,0-19.64,1Zm-128.83,7.65-4,3.7.18.42,3.39-.15C192.23,184.34,192.34,183.29,192.53,181.63Zm23.84-7.42v.1h1.83v-.1Zm-36.87.95-.44-.31c-.8.48-1.2,1.22-1.34,2.78Z"/>
    <path d="M279.18,309.14l4-1.29c.3,1.59,1.67,1.49,3,1.52,11.33.26,22.65.13,34-.65s22.46-1.4,33.71-1.13c2,0,3.9,0,5.84,0l0,.5-2.79.11c-5.54.18-11.08.27-16.61.54-6.39.32-12.78.77-19.16,1.2-10.85.74-21.7.72-32.56.56-1.79,0-3.57-.23-5.65-.37l-1.88,4.34c2.61,0,4.85.11,7.07,0,9.51-.53,19-1.23,28.53-1.67,7.25-.34,14.52-.55,21.78-.5,5.46,0,10.91.58,16.37.88,1,.06,2,.06,3,.08,1.47,0,1.58.07,3.28,1.3a30.73,30.73,0,0,1-3.71.11c-14.35-1.55-28.71-1-43.07-.39-10.93.42-21.85,1-32.77,1.51a4.75,4.75,0,0,0-.73.15l-1.41,3.23c2.86.54,81.87-2.34,84.91-3.17l-1.61-1.93c3-.45,4.91,2.3,7.58,1.82-1.75,1-19.1,2.27-30.83,2.56-10.46.26-20.91.86-31.37,1.19s-20.73.49-31.23.73v3.77a9.44,9.44,0,0,0,1.62.11c3.09-.29,6.16-.28,9.23-1.13,2.66-.74,5.57-.64,8.37-.81,17.17-1,34.35-1.18,51.54-.57,3.51.12,7,0,10.54.24a23.12,23.12,0,0,1,4.48,1.06,2,2,0,0,1,.63.42,3.13,3.13,0,0,1-.05.71c-1,2.57-1.47,2.7-4.11,1.58a6.08,6.08,0,0,0-2.47-.4c-9.29.33-18.57.72-27.86,1.06-1.87.07-3.74,0-5.61.24l35.63,1.07v.5a15.83,15.83,0,0,1-1.68.13c-18.43,0-36.86-.12-55.29-.09-5.62,0-11.24.36-16.86.44-1.32,0-2.63.41-4-.68-1-.74-2.83-.29-4.56-.39-.6,3.95-1.16,7.68-1.77,11.67.94-.09,1.53-.11,2.12-.2,4.08-.64,8.14-1.5,12.25-1.87,5.75-.52,11.53-.91,17.3-1,11.87-.1,23.74.05,35.61.11.54,0,1.25-.1,1.6.18,1.05.87,2.2.52,3.35.59a10.05,10.05,0,0,1,2.94.54A2,2,0,0,1,351,339c.12,1.27,1.05,1.65,1.87,2.2q14.3,9.61,28.6,19.22c.83.56,1.69,1.1,2.53,1.65v1.88c-.3-.25-.59-.51-.91-.73-10.6-7.3-21.21-14.58-31.77-21.93-2-1.39-3.89-.79-6.32-.41.88.78,1.41,1.33,2,1.78q12.25,9.23,24.51,18.41,6.25,4.71,12.48,9.44v2.35a5.16,5.16,0,0,1-.8-.45c-12.5-9.88-25.69-18.88-37.62-29.48a3.4,3.4,0,0,0-2.47-1c-9,.09-18,.07-27,.12-11.24.07-22.49.17-33.74.24a20.38,20.38,0,0,1-2.34-.12c-.75-.08-1.49-.23-2.23-.35,8.85-.5,17.67-.2,26.45-1-5.7-.33-11.4-.48-17.08-.92-4-.31-7.91.56-11.83,1.15a1.93,1.93,0,0,0-1.25,1.12c-.71,2.31-1.34,4.66-1.85,7-.11.48.37,1.1.63,1.78l-.62,1.34c1,0,1.68,0,2.38,0,2.79-.16,5.58-.46,8.37-.51q14.54-.28,29.06-.43c8.83-.07,17.65,0,26.48-.07,1.73,0,1.73,0,2.73-1.35,1.23.76,2.53,1.46,3.73,2.3q19.5,13.83,39,27.69v1.41c-4-2.71-8.11-5.3-12-8.13-8.1-5.87-16.16-11.79-24.12-17.83-2.86-2.17-5.64-3.44-9.41-3-4,.47-8.12.12-12.18.14a16.67,16.67,0,0,0-1.87,0c-.44.06-1.08.15-1.24.44-.62,1.15-1.66,1-2.65,1.06-1.17,0-2.35.07-3.52,0-9.83-.29-19.67-.62-29.51-.88-1.62,0-3.26.27-4.89.2-3.34-.15-6.68-.46-10-.67a9.18,9.18,0,0,0-1.47.11l-.63.47c2.67.64,2.33,2.47,2.45,4.16a7.83,7.83,0,0,0,.69,1.88c1.52,0,3,0,4.47,0,9.22-.18,18.43-.32,27.65-.58,5.54-.15,11.07-.48,16.61-.74,5.31-.24,10.61-.51,15.92-.73a3.72,3.72,0,0,1,2.95.61,16.85,16.85,0,0,1-2.08.44c-6.23.32-12.47.66-18.71.9q-9.72.38-19.44.58-12.89.25-25.77.33c-1.42,0-2.78-.18-3.56,1.58-.87-.59-1.54-1.09-2.26-1.52-1-.57-1.58-.26-1.84.87.78.49,1.74.78,2.17,1.42,1.09,1.64,2.68,1.7,4.33,1.72,1.33,0,2.65-.06,4-.12,6.55-.3,13.1-.76,19.66-.89,12.73-.26,25.47-.29,38.2-.53a10.34,10.34,0,0,1,7.37,2.35c13.49,11,27.16,21.82,40.76,32.7v1.4q-13.14-10.56-26.3-21.13-8-6.37-15.87-12.8a5.05,5.05,0,0,0-3.38-1.3c-10.47.07-20.94,0-31.41.14-11.4.17-22.79.57-34.19.88a8,8,0,0,0-1.05.19c.78,2.34,2.15,4.5,1.29,7l0,0c-2.29.85-2.29.85-4.22.6l-.17,2.8-.47.06c-.77-1.64-1.56-3.28-2.3-4.94a1.49,1.49,0,0,1-.1-1.14c.92-1.58-.3-2.92-.64-4.52l-3.08,4.78,2.93,5c1.22,2.09,2.51,4.14,3.63,6.28.77,1.46.42,2.05-1.08,2.69a2,2,0,0,1-2.35-.38,8.64,8.64,0,0,0-1.65-1.31c-.27-.15-.74.07-1.63.18l4.1,4.8c.07.57.21,1.31.24,2.06a2.2,2.2,0,0,1-.26,1.31,2.9,2.9,0,0,1-4.14.24,40.85,40.85,0,0,1-2.78-3.75c-1.33-1.87-2.64-3.76-4.07-5.81-.39.43-.87.75-.84,1,.21,1.19.55,2.35.8,3.35-.51.7-1,1.32-1.41,1.9-1.16-.25-2.25-1-3.07.43,1.15.89,2.44.55,3.65.67s2.69,0,3.54,1.47l-1.2,1.68h3.22v-2.43a7.81,7.81,0,0,1,.67,1.17c1,2.83,3,4,5.95,3.8,4.83-.28,9.67-.4,14.51-.61,8.82-.38,17.63-.8,26.45-1.18q17.08-.75,34.18-1.46c.53,0,1.06,0,1.32,0l2,3.52-1.12-.47.07.07c-.64-1.5-1.77-1.93-3.36-1.85-7.56.38-15.12.69-22.69,1-7.17.27-14.35.46-21.52.73-8.19.3-16.37.73-24.56.94a89.83,89.83,0,0,1-9.55-.49,2,2,0,0,0-2,.74l2.66,1.41a3.44,3.44,0,0,1-2.93,1.7c-1.12.14-2.32-.11-3.59.88,3.6.51,7.16-.47,10.21,1.71a13.55,13.55,0,0,1-3.82.75c-3.35.15-6.71.19-10.06.3A10.28,10.28,0,0,0,251,402l11.17,18.65h-1.4c-3.34-5.72-6.7-11.43-10-17.17a3,3,0,0,0-3.13-1.88,19.36,19.36,0,0,1-3-.2c-.31,0-.82,0-.88-.17-.83-2.06-3-1.14-4.76-2.32-.4.8-.83,1.63-1.25,2.46-1.3-.87-1.09-1.56-.84-2.23s.62-1.59.93-2.38c1.54-2.11,3.16-4.18,4.59-6.37.36-.57.12-1.52.16-2.29L242,388l-4.28,8.7-5.85,10.36c-.35.63-.72,1.25-1.13,2-1-.91-.47-1.57-.2-2.14.67-1.41,1.38-2.81,2.17-4.15,8.1-13.66,14.54-28.12,20.69-42.72a398.29,398.29,0,0,1,18-37.29c1.57-2.87,3.32-5.64,5-8.44,2.14.85,2.37.76,3.35-1.3.43-.91.83-1.83,1.32-2.9Zm-17,35c-.51.43-.75.53-.83.71q-9.17,20.73-18.3,41.47s0,.14.07.19a.58.58,0,0,0,.17.14c1.19-.11,1.38-1.11,1.74-2q8.07-18.92,16.12-37.85C261.43,346.08,261.7,345.3,262.14,344.13ZM252.91,380l.4.28a16.82,16.82,0,0,0,1.32-1.73c1-1.68,2-3.37,2.9-5.09.78-1.42,1.39-2.94,2.23-4.33s2.06-2.71,2.89-4.18c1.1-1.94,1.88-4.07,3-6a45.65,45.65,0,0,0,4.13-11.08C264.91,359,258.41,369.23,252.91,380Zm91.88-41.35,0-.93c-5.25-.12-10.51-.1-15.8.15a2.49,2.49,0,0,0,1.4.82C335.18,338.72,340,338.68,344.79,338.65Zm-72.47-.08c.4-2,.72-3.62,1-5.21s.52-3.05.78-4.57C272.33,331.69,270.55,334.57,272.32,338.57Zm-13.17,35.79c-.65,1-1.13,1.8-1.6,2.57-.24.4-.65.82-.64,1.22a10.17,10.17,0,0,0,.54,2.17l1.35-1.79,2.64,1.09Zm-11.89,20.52,0-.65-2.81-.8-3.92,4.14c1.5.57,1.47.55,2-.18a2.9,2.9,0,0,1,1-1.07C244.71,395.77,246,395.35,247.26,394.88Zm27.38-75.83,2.84.13c.21-1.27.38-2.23.54-3.2C276,315.75,276,315.75,274.64,319.05ZM269.09,340l-.5-.24-2.78,5.75.35.43c.43-.14,1.1-.17,1.24-.45A13,13,0,0,0,269.09,340Zm8.12-14.81,0,.63,7.66-.46,0-.68A65.4,65.4,0,0,0,277.21,325.18Zm-29.29,59.93,2.23-.66-1.42-1.68C248.44,383.62,248.25,384.17,247.92,385.11Zm20.72-26.53.71.28c.26-.67.52-1.35.79-2l-.58-.24C269.25,357.25,269,357.92,268.64,358.58Zm-16.48,16.07.33.16c.23-.46.45-.93.67-1.39l-.33-.16C252.6,373.72,252.38,374.19,252.16,374.65Zm35.29-47.09c.13.07.2.13.25.12s.27-.11.4-.16Z"/>
    <path d="M384,205.44c-5.83.4-11.67,1-17.51,1.15-7.81.24-15.63.06-23.43.3-11,.34-22,1-33,1.34-7.57.25-15.15.17-22.73.33-5.37.12-10.74.47-16.12.56q-13.69.24-27.41.25c-7.89,0-15.77-.23-23.66-.28q-10.32-.08-20.63,0c-5,.07-10,.31-15,.47-1.17,0-2.34,0-3.52,0l-13.11-.18c-2.15,0-2.64-.34-2.94-2.45-.24-1.6-.21-3.24-.3-5-1.36.27-1.81-.52-1.92-1.63a16.1,16.1,0,0,1,2.76-10.67,1.33,1.33,0,0,1,.14-.19c1.52-1.74,2.79-1.49,3.89.7,5.33-.11,10.63-.3,15.92-.27a35.71,35.71,0,0,1,5.57.92v-2.1c1.79.52,1.79,2.11,2.42,3.36h2.05l.88-2.65c1.65.38.68,1.84,1.48,2.64h7.22c.29-.95.52-1.73.76-2.52l.46-.1,1.31,2.5H212v-2.27a1.37,1.37,0,0,1,2,.62c1,1.78,2.47,1.9,4.24,1.44.18-.64.35-1.27.57-2.06.43.26.84.36.9.56.49,1.63,1.69,1.78,3.12,1.7s2.63,0,4,0c.05-1.13.09-2,.14-3,1.18.05,1.28,1,1.65,1.58s.94,1.41,2,1.39c2.57,0,5.14,0,7.73,0l1.16-2.67c1.54.08,1.35,1.34,1.67,2.32h7.61c.36-1.32.68-2.48,1-3.81C251,189,251,189,251.36,191.28c2.11.82,4.36.27,6.57.12.39,0,.73-.85,1.18-1.4,2.61,2.36,5.68,1.23,8.56,1.37a2.81,2.81,0,0,0-.39-3.39c1.64-1.1,2.46-.87,2.9.77.1.37.11.77.19,1.15s.2.75.32,1.2h6.73v-2a4.26,4.26,0,0,1,.72-.08.62.62,0,0,1,.42.18c2.23,2.55,5.17,2,8.15,1.93l.77-1.89c.32.12.61.13.71.28a3.79,3.79,0,0,0,4.06,1.53c1.07-.16,2.19,0,3.27-.15s2-.43,3.44-.77c2.73,1.7,6.17.19,9.67.46,0-.55.07-.91.1-1.27s.06-.71.13-1.49c.87.64,1.69.95,2,1.53.67,1.18,1.64,1.26,2.76,1.21,2.17-.09,4.35-.15,6.7-.22v-2.93c1.51-.16,1.91.95,2.33,1.74a2,2,0,0,0,2.29,1.14c1.73-.25,3.62.26,4.9-.88a18.73,18.73,0,0,0,3.54.62c14.29-.26,28.59-.58,42.88-.88,2.58-.05,5.16-.05,7.73-.08v1.41c-.54,0-1.08-.08-1.63-.07-4.29.15-8.58.35-12.87.45-12.18.26-24.36.48-36.54.73a21.79,21.79,0,0,0-2.27.27c.21.94.34,1.58.53,2.45-.74-.05-1.48.12-1.72-.15a11.85,11.85,0,0,1-1.25-2.32,19.86,19.86,0,0,0-2.43,0,20.74,20.74,0,0,1-6.49.14c-1.79-.34-3.73,0-5.6.11a2.06,2.06,0,0,0-2,.9c-.76,1.12-1.32.95-2.44,0a2.51,2.51,0,0,0-1.56-.71c-3,.22-6.1-.72-8.49,1.19a8,8,0,0,0-2.49-1c-4.76,0-9.54,0-14.27.36-1.78.15-3.36.67-5.23.07-1.49-.47-3.25-.16-4.89-.07a2.14,2.14,0,0,0-1.18.77c-.88.91-1.77,1.17-2.32.3-.76-1.19-1.74-1.13-2.83-1.11l-22.26.33a2.65,2.65,0,0,0-2.23.92c-.91,1-1.47.88-2.56-.05-.33-.29-.74-.73-1.1-.72-2.7.1-5.4.3-8.11.44a10.94,10.94,0,0,1-1.71-.13c-2.27-.27-4.59-1-6.71.57a1.55,1.55,0,0,1-2.27-.19,2.41,2.41,0,0,0-3.38-.1c-.38.27-.78.49-1.11.69-.91-.44-1.71-1.14-2.53-1.17a41.24,41.24,0,0,0-5.06.41c-.29,0-.65.19-.88.09-2.62-1.22-5.33-.35-7.91-.59-.86,2.09-1.23,2.2-2.4.67-.68-.9-1.38-.76-2.36-.51v6.08c.76,0,1.6,0,2.43,0,12.19-.15,24.37-.34,36.55-.43,9.37-.08,18.75.06,28.12-.06q17.33-.19,34.66-.67c10.77-.32,21.53-.89,32.3-1.25q13.57-.47,27.17-.69c9.76-.16,19.52-.21,29.28-.32Zm-219.19-7.58.63.18,2.13-7.3-.52-.17A13.66,13.66,0,0,0,164.83,197.86Zm29.74,3.28c-2.69-.8-3.08-.79-4.14,0Z"/>
    <path class="cls-1" d="M345.31,394.86l-.46-.56-2-3.52c-.26,0-.79,0-1.32,0q-17.08.72-34.18,1.46c-8.82.38-17.63.8-26.45,1.18-4.84.21-9.68.33-14.51.61-3,.18-5-1-5.95-3.8a7.81,7.81,0,0,0-.67-1.17v2.43h-3.22l1.2-1.68c-.85-1.45-2.24-1.35-3.54-1.47s-2.5.22-3.65-.67c.82-1.39,1.91-.68,3.07-.43.44-.58.9-1.2,1.41-1.9-.25-1-.59-2.16-.8-3.35,0-.22.45-.54.84-1,1.43,2.05,2.74,3.94,4.07,5.81a40.85,40.85,0,0,0,2.78,3.75,2.9,2.9,0,0,0,4.14-.24,2.2,2.2,0,0,0,.26-1.31c0-.75-.17-1.49-.24-2.06l-4.1-4.8c.89-.11,1.36-.33,1.63-.18a8.64,8.64,0,0,1,1.65,1.31,2,2,0,0,0,2.35.38c1.5-.64,1.85-1.23,1.08-2.69-1.12-2.14-2.41-4.19-3.63-6.28l-2.93-5,3.08-4.78c.34,1.6,1.56,2.94.64,4.52a1.49,1.49,0,0,0,.1,1.14c.74,1.66,1.53,3.3,2.3,4.94l.47-.06.17-2.8c1.93.25,1.93.25,4.23-.6a28.62,28.62,0,0,0,3,.33c4.14,0,8.28.07,12.41-.1,12.56-.53,25.11-1.15,37.66-1.74q6.67-.32,13.33-.66c.63,0,1.42.13,1.8-1.11-1.13,0-2.1-.17-3.05-.13-3.44.15-6.86.36-10.29.55-12.08.68-24.16,1.38-36.23,2-6.24.34-12.47.58-18.71.86.86-2.51-.51-4.67-1.29-7a8,8,0,0,1,1.05-.19c11.4-.31,22.79-.71,34.19-.88,10.47-.17,20.94-.07,31.41-.14a5.05,5.05,0,0,1,3.38,1.3q7.92,6.42,15.87,12.8,13.14,10.57,26.3,21.13v7.51c-4.34-3.7-8.65-7.41-13-11.07q-13.65-11.43-27.34-22.8a17.41,17.41,0,0,0-1.58-1.06c-.05.45,0,.68.19.82q2.1,1.88,4.22,3.7c.93.8,2,1.41,1.6,3-.13.52.7,1.29,1.13,1.92s1.14.91,1.19,1.92l-3.11-1.83c-1,2-1.07,2.07,0,3.32a25.18,25.18,0,0,0,2.3,2.32c9.65,8.56,19.79,16.51,30,24.32,1.54,1.18,2.93,2.55,4.39,3.84v2.81c-8.48-7.37-16.85-14.88-25.5-22.05-4.19-3.47-8.91-6.3-13.39-9.42-1-.73-2-1.51-3.46-2.56-24.31.21-49.13.68-73.75,4.38a26.63,26.63,0,0,0,4.64,0c7.24-.56,14.46-1.36,21.71-1.66,14.2-.58,28.41-.86,42.61-1.33a12.73,12.73,0,0,1,7.49,2,120.49,120.49,0,0,1,10.89,7.68c8.51,7,16.84,14.19,25.23,21.32,1.19,1,2.36,2,3.53,3.06-.22.44.54,1.22-.46,1.4a24.51,24.51,0,0,0-2.07-2.13c-4.14-3.31-8.35-6.55-12.49-9.87q-12-9.62-23.85-19.28a13.42,13.42,0,0,0-1.35-.82c-.85,1-.45,1.63.28,2.27,2.57,2.28,5.14,4.55,7.64,6.9,8.19,7.71,16.31,15.5,25.49,22.06a4.76,4.76,0,0,1,.72.87h-3.75a15.5,15.5,0,0,0-1.1-1.19c-3.39-3.12-6.8-6.22-10.19-9.33-5-4.59-10-9.2-15-13.76A15,15,0,0,0,345.31,394.86Zm-75.09-12.75c.89,0,1.74,0,2.58,0,4-.07,8-.3,11.95-.2,13.36.37,26.7.85,40.05,1.3,2.11.07,4.21.24,6.3.39,1.49.1,2.94.14,4.09-1-.4-.91-.74-1.71-1.12-2.57,2.66-.67,5.26-.24,7.61-1.19a26.52,26.52,0,0,0-4.44-.18c-4.21.18-8.44.77-12.63.54-11.71-.64-23.41-1-35.13-.8-1.92,0-3.9-.32-5.68.89-.39.26-1.06.12-1.61.13a33,33,0,0,1-9.28-1c-1.15-.31-2.36-.77-3.49-.08Zm72-5.14c-.68-.37-1-.66-1.31-.68-20.57-1.25-41.14-2.07-61.75-1.45,19.87.93,39.74,1.73,59.61,2.52.78,0,1.56.06,2.34.05A5.25,5.25,0,0,0,342.22,377Zm-65.65,13.24a8.46,8.46,0,0,0,5.2.28c1.47-.31,3.27.15,4.73-1.74a8.91,8.91,0,0,0-2.24-.19C281.76,389,279.27,389.62,276.57,390.21Z"/>
    <path class="cls-1" d="M384,179.18c-3,0-6.08,0-9.12.06-21,.65-42,1.28-63,2q-32.31,1.09-64.62,2.33l-52.21,1.93c-.67,0-1.35,0-2.1,0,1-2.43,1.92-4.61,2.69-6.86a2.48,2.48,0,0,1,2.55-1.92c3.75-.15,7.49-.33,11.23-.58,4.68-.31,9.35-.6,14,.22a23.93,23.93,0,0,0,3.5.17c8,.2,16.08.51,24.11.56,5.54,0,11.09-.28,16.63-.43,4.84-.14,9.67-.32,14.51-.39,10.55-.15,21.09-.08,31.63-.41,7.17-.23,14.32-1,21.48-1.53,5.06-.35,10.12-.81,15.19-.91,11.17-.22,22.34-.24,33.5-.34Zm-174.91,2a10,10,0,0,0-1.77-2.2c-2.11-1.43-4.27-.64-5.48,1.88-.38.79-.77,1.73,0,2.37a2.75,2.75,0,0,0,2.11.53A9.11,9.11,0,0,0,209.11,181.19Zm8.84-2.72-2.08.95c-.54.25-1.05.58-1.61.79a1.84,1.84,0,0,0-1.36,1.94c0,1.09.88,1.38,1.75,1.55,1.72.35,4.77-1,5.73-2.53a1.22,1.22,0,0,0-.42-2A15.88,15.88,0,0,0,218,178.47Z"/>
    <path class="cls-1" d="M384,196.06c-9.76.11-19.52.16-29.28.32q-13.59.24-27.17.69c-10.77.36-21.53.93-32.3,1.25q-17.32.5-34.66.67c-9.37.12-18.75,0-28.12.06-12.18.09-24.36.28-36.55.43-.83,0-1.67,0-2.43,0V193.4c1-.25,1.68-.39,2.36.51,1.17,1.53,1.54,1.42,2.4-.67,2.58.24,5.29-.63,7.91.59.23.1.59-.06.88-.09a41.24,41.24,0,0,1,5.06-.41c.82,0,1.62.73,2.53,1.17.33-.2.73-.42,1.11-.69a2.41,2.41,0,0,1,3.38.1,1.55,1.55,0,0,0,2.27.19c2.12-1.54,4.44-.84,6.71-.57a10.94,10.94,0,0,0,1.71.13c2.71-.14,5.41-.34,8.11-.44.36,0,.77.43,1.1.72,1.09.93,1.65,1.07,2.56.05a2.65,2.65,0,0,1,2.23-.92l22.26-.33c1.09,0,2.07-.08,2.83,1.11.55.87,1.44.61,2.32-.3a2.14,2.14,0,0,1,1.18-.77c1.64-.09,3.4-.4,4.89.07,1.87.6,3.45.08,5.23-.07,4.73-.41,9.51-.35,14.27-.36a8,8,0,0,1,2.49,1c2.39-1.91,5.53-1,8.49-1.19a2.51,2.51,0,0,1,1.56.71c1.12.95,1.68,1.12,2.44,0a2.06,2.06,0,0,1,2-.9c1.87-.07,3.81-.45,5.6-.11a20.74,20.74,0,0,0,6.49-.14,19.86,19.86,0,0,1,2.43,0,11.85,11.85,0,0,0,1.25,2.32c.24.27,1,.1,1.72.15-.19-.87-.32-1.51-.53-2.45a21.79,21.79,0,0,1,2.27-.27c12.18-.25,24.36-.47,36.54-.73,4.29-.1,8.58-.3,12.87-.45.55,0,1.09,0,1.63.07Z"/>
    <path class="cls-1" d="M294-1.34l-.46,5.51c-1.45.19-2.81.45-4.19.54-13.55.89-27.11,1.69-40.66,2.63-13.93,1-27.88,1.88-41.78,3.17-8.23.77-16.39,2.25-24.58,3.4-1.06.15-2.13.26-3.16.38a27.14,27.14,0,0,1,0-9.22c5.1.43,10.06-.76,15.05-1.48C205.7,1.94,217.17.68,228.71,0c3.74-.23,7.48-.55,11.21-.87a14.59,14.59,0,0,0,2-.45Z"/>
    <path class="cls-1" d="M384,397.69c-13.6-10.88-27.27-21.68-40.76-32.7a10.34,10.34,0,0,0-7.37-2.35c-12.73.24-25.47.27-38.2.53-6.56.13-13.11.59-19.66.89-1.33.06-2.65.13-4,.12-1.65,0-3.24-.08-4.33-1.72-.43-.64-1.39-.93-2.17-1.42.26-1.13.86-1.44,1.84-.87.72.43,1.39.93,2.26,1.52.78-1.76,2.14-1.57,3.56-1.58q12.89-.09,25.77-.33,9.72-.19,19.44-.58c6.24-.24,12.48-.58,18.71-.9a16.85,16.85,0,0,0,2.08-.44,3.72,3.72,0,0,0-2.95-.61c-5.31.22-10.61.49-15.92.73-5.54.26-11.07.59-16.61.74-9.22.26-18.43.4-27.65.58-1.47,0-2.95,0-4.47,0a7.83,7.83,0,0,1-.69-1.88c-.12-1.69.22-3.52-2.45-4.16l.63-.47a9.18,9.18,0,0,1,1.47-.11c3.35.21,6.69.52,10,.67,1.63.07,3.27-.25,4.89-.2,9.84.26,19.68.59,29.51.88,1.17,0,2.35,0,3.52,0,1,0,2,.09,2.65-1.06.16-.29.8-.38,1.24-.44a16.67,16.67,0,0,1,1.87,0c4.06,0,8.17.33,12.18-.14,3.77-.44,6.55.83,9.41,3,8,6,16,12,24.12,17.83,3.92,2.83,8,5.42,12,8.13v1.87a4.8,4.8,0,0,1-1.28-.41c-3.11-2.07-6.28-4.06-9.25-6.31-8.71-6.58-17.34-13.27-26-19.9-.71-.55-1.51-1-2.25-1.46-1.37,1.93-1.37,2.18-.09,3.56.54.6,1.1,1.19,1.95,2.11l-3.77-.64c-.12,1.41.72,1.72,1.47,2.15a48.34,48.34,0,0,1,4.6,2.77c6.32,4.57,12.55,9.25,18.87,13.83,5.17,3.74,10.07,7.88,15.76,10.87ZM277.21,357.2c1.79,0,3.58.06,5.36,0,4.29-.17,8.58-.46,12.87-.59q12.29-.35,24.59-.56c6.56-.11,13.12-.1,19.68-.16a2.76,2.76,0,0,0,2.71-.91A589.91,589.91,0,0,0,277.21,357.2Z"/>
    <path class="cls-1" d="M384,379.87q-19.47-13.85-39-27.69c-1.2-.84-2.5-1.54-3.73-2.3-1,1.33-1,1.35-2.73,1.35-8.83,0-17.65,0-26.48.07q-14.53.13-29.06.43c-2.79,0-5.58.35-8.37.51-.7,0-1.4,0-2.38,0l.62-1.34c-.26-.68-.74-1.3-.63-1.78.51-2.36,1.14-4.71,1.85-7A1.93,1.93,0,0,1,275.4,341c3.92-.59,7.79-1.46,11.83-1.15,5.68.44,11.38.59,17.08.92-8.78.82-17.6.52-26.45,1,.74.12,1.48.27,2.23.35a20.38,20.38,0,0,0,2.34.12c11.25-.07,22.5-.17,33.74-.24,9-.05,18,0,27-.12a3.4,3.4,0,0,1,2.47,1c11.93,10.6,25.12,19.6,37.62,29.48a5.16,5.16,0,0,0,.8.45ZM274.71,348.55l0,.66c.68,0,1.36.12,2.05.12,16.24.08,32.48.64,48.71-.26,5.14-.29,10.3-.43,15.43-.81,1.53-.12,3.32.15,4.54-1.29-1.4-1.91-1.4-1.94-3.4-2-3.51,0-7,0-10.55,0-14.91-.25-29.83-.49-44.74-.81-2.48-.05-5-.51-7.34-.77L278,345.13c17.24,1.82,34.49,1.81,51.71,2.59C311.36,349.27,293,348.39,274.71,348.55Z"/>
    <path d="M384,415c-1.46-1.29-2.85-2.66-4.39-3.84-10.25-7.81-20.39-15.76-30-24.32a25.18,25.18,0,0,1-2.3-2.32c-1.06-1.25-1-1.29,0-3.32l3.11,1.83c-.05-1-.81-1.35-1.19-1.92s-1.26-1.4-1.13-1.92c.4-1.63-.67-2.24-1.6-3q-2.12-1.83-4.22-3.7c-.16-.14-.24-.37-.19-.82a17.41,17.41,0,0,1,1.58,1.06q13.68,11.38,27.34,22.8c4.37,3.66,8.68,7.37,13,11.07v1.87a7.89,7.89,0,0,1-.77-.51l-24.77-21.49c-.78-.67-1.63-1.27-2.45-1.9l-.35.46c9,8.93,19.09,16.66,28.34,25.32Z"/>
    <path d="M384,389.72c-5.69-3-10.59-7.13-15.76-10.87-6.32-4.58-12.55-9.26-18.87-13.83a48.34,48.34,0,0,0-4.6-2.77c-.75-.43-1.59-.74-1.47-2.15l3.77.64c-.85-.92-1.41-1.51-1.95-2.11-1.28-1.38-1.28-1.63.09-3.56.74.47,1.54.91,2.25,1.46,8.67,6.63,17.3,13.32,26,19.9,3,2.25,6.14,4.24,9.25,6.31a4.8,4.8,0,0,0,1.28.41Z"/>
    <path class="cls-1" d="M384,162.3l-13.52,1c-.6,0-1.2,0-2.23,0,.65-.78,1-1.25,1.41-1.67a24.29,24.29,0,0,0,5.27-7.4,4.42,4.42,0,0,1,3-3,1.94,1.94,0,0,0,1.1-1l-2.42.18a3.16,3.16,0,0,1-.2-.85,17.35,17.35,0,0,0-1.84-8.83,32,32,0,0,1-1.4-4.42c1.5-2,3.84-2.16,6-3.19a37.19,37.19,0,0,1,3.27,6.64c.37,1-.41,1.78-1.1,2.42-.94.89-1.94,1.71-3.29,2.89.93,0,1.39.13,1.71,0a11.89,11.89,0,0,0,4.2-3.93Z"/>
    <path d="M142.1-1.34c.09,7.11.25,14.21.25,21.32q0,58-.18,116c0,.88-.11,1.75-.19,2.87-1.31-.71-1.13-1.63-1.15-2.42-.06-2.27-.06-4.53-.06-6.8q.06-64.08.13-128.17c0-.93-.13-1.86-.21-2.79Z"/>
    <path class="cls-1" d="M384,370.49q-6.24-4.73-12.48-9.44-12.26-9.21-24.51-18.41c-.6-.45-1.13-1-2-1.78,2.43-.38,4.33-1,6.32.41,10.56,7.35,21.17,14.63,31.77,21.93.32.22.61.48.91.73Z"/>
    <path d="M384,419.26c-1.17-1-2.34-2.05-3.53-3.06-8.39-7.13-16.72-14.33-25.23-21.32a120.49,120.49,0,0,0-10.89-7.68,12.73,12.73,0,0,0-7.49-2c-14.2.47-28.41.75-42.61,1.33-7.25.3-14.47,1.1-21.71,1.66a26.63,26.63,0,0,1-4.64,0c24.62-3.7,49.44-4.17,73.75-4.38,1.42,1.05,2.42,1.83,3.46,2.56,4.48,3.12,9.2,5.95,13.39,9.42,8.65,7.17,17,14.68,25.5,22.05Z"/>
    <path d="M168.82-1.34c0,3.13-.06,6.25-.07,9.38,0,22.74,0,45.48-.06,68.22-.07,18-.3,35.94-.47,53.91a.91.91,0,0,1-.26.7c-.14-4.92-.39-9.84-.41-14.76q-.13-34.81-.17-69.63,0-22.38,0-44.77c0-1,.06-2,.09-3Z"/>
    <path d="M377.93,420.66a4.76,4.76,0,0,0-.72-.87c-9.18-6.56-17.3-14.35-25.49-22.06-2.5-2.35-5.07-4.62-7.64-6.9-.73-.64-1.13-1.26-.28-2.27a13.42,13.42,0,0,1,1.35.82Q357.08,399,369,408.66c4.14,3.32,8.35,6.56,12.49,9.87a24.51,24.51,0,0,1,2.07,2.13Z"/>
    <path class="cls-1" d="M220.4-1.34C217-.89,213.62-.48,210.24,0,202.15,1.2,194.07,2.43,186,3.61c-2.22.32-4.45.52-7,.82-.12-2.12-.23-3.94-.33-5.77Z"/>
    <path class="cls-1" d="M319.79-1.34c.15,2,.17,2.12-1.52,2.39-5.29.84-10.59,1.6-15.89,2.33-2,.28-4,.4-6.22.61-.1-2-.19-3.65-.28-5.33Z"/>
    <path d="M133.18,343.72a13.36,13.36,0,0,1,.4,2c.19,4.05.34,8.09.49,12.14.45,11.52.8,23.05,1.37,34.57.46,9.1,1.19,18.18,1.81,27.27a9.3,9.3,0,0,0,.16.92h-.94c-.6-7.07-1.25-14.15-1.81-21.23-1.14-14.56-1.34-29.17-1.5-43.77C133.12,351.68,133.17,347.7,133.18,343.72Z"/>
    <path d="M8,420.66c1.21-2.26,2.38-4.55,3.65-6.78,8.18-14.39,15.57-29.19,22.61-44.16Q43.39,350.36,52.62,331a8.77,8.77,0,0,1,.9-1.29l-.05,0c-.41,1.16-.75,2.37-1.26,3.49-5.09,11.06-10.1,22.17-15.35,33.15-8.49,17.76-17.28,35.35-27.1,52.42a17.77,17.77,0,0,0-.81,1.9Z"/>
    <path d="M363.39,420.66c-4-3.45-8.08-6.87-12.05-10.39-2.09-1.84-4-3.87-6.11-5.92,1.6-.25,2.16,2.15,4,1.27-.35-.53-.6-1-.91-1.36-1.12-1.4-2.3-2.75-3.37-4.19a11.2,11.2,0,0,1-.93-1.94l.42-.29a19.77,19.77,0,0,1,1.69,1.47c2.79,2.93,5.55,5.9,8.32,8.85,2.52,2.67,5.1,5.28,7.53,8,1.22,1.38,2.17,3,3.25,4.48Z"/>
    <path d="M194.61,420.66c-4.44-17.4-7.36-35.13-11.19-52.66-1.31-6-3-11.95-4.55-17.92-.23-.89-.43-1.77-.65-2.66l.45-.13c.28.79.59,1.57.84,2.36,3,9.56,5,19.34,7.07,29.11q4.15,19.83,8.4,39.63c.16.76.38,1.52.57,2.27Z"/>
    <path d="M51.61,420.66c3.21-11.18,6.62-22.3,9.58-33.55s5.44-22.53,8.16-33.92c.14.25.36.45.33.6-2.49,11-4.76,22.13-7.58,33.08C59.24,398,55.83,408.94,52.67,420a5.54,5.54,0,0,0-.12.69Z"/>
    <path d="M384,331.1a87.37,87.37,0,0,0-18,1.58,18.16,18.16,0,0,0-4-.73c-5,.34-9.91.86-14.87,1.29-.11,0-.23-.15-.7-.47a99.74,99.74,0,0,1,17.67-2.33c.34-1.2.64-2.27.95-3.34l.51,0a11.39,11.39,0,0,1,.45,1.36c.11.51.11,1,.19,1.8a176.92,176.92,0,0,0,17.75-1Z"/>
    <path d="M222.27,420.66c-.77-2.11-1.49-4.24-2.31-6.34-7.89-20.13-15.68-40.31-22.72-60.76a.58.58,0,0,1,.07-.54,9,9,0,0,1,.52,1Q209.41,384.55,221,415.1c.69,1.82,1.19,3.71,1.77,5.56Z"/>
    <path d="M345.31,394.86a15,15,0,0,1,2.54,1.52c5,4.56,10,9.17,15,13.76,3.39,3.11,6.8,6.21,10.19,9.33a15.5,15.5,0,0,1,1.1,1.19H372.3c-2.91-2.69-5.87-5.33-8.74-8.07-5.75-5.48-11.45-11-17.16-16.52C346,395.69,345.67,395.26,345.31,394.86Z"/>
    <path class="cls-1" d="M384,410.35c-9.25-8.66-19.33-16.39-28.34-25.32l.35-.46c.82.63,1.67,1.23,2.45,1.9L383.25,408a7.89,7.89,0,0,0,.77.51Z"/>
    <path d="M291.19,420.66l-1.53-1.7L274.9,402.78l.35-.46a4.85,4.85,0,0,1,1.15.68c1.63,1.68,3.22,3.39,4.82,5.09l11.85,12.57Z"/>
    <path d="M384,304.85l-9.31-.57a3.79,3.79,0,0,1-2.8-1.08l12.11.24Z"/>
    <path class="cls-1" d="M384,230.29c-1-2.56-2-5.11-3.16-8l3.16-.47Z"/>
    <path class="cls-1" d="M384,171.21l-11.07.54a31.88,31.88,0,0,1,11.07-1Z"/>
    <path d="M213.33,131.39l-2.18-1.61c1.46-1.08,2,.52,3.19.67.45-2.79,2.24-4.83,4.37-6.55a14.55,14.55,0,0,1,3.64-2A1.58,1.58,0,0,1,224.7,123c-3.43-.3-7.74,3-8.37,6.41a2.64,2.64,0,0,0,2,3.22,4.38,4.38,0,0,0,5.85-4.2,4.77,4.77,0,0,1,1-3.3c.66-.89.62-2.27,1.24-3.21a5.59,5.59,0,0,1,9.18-.51,3.15,3.15,0,0,1,.09,4.45,14.93,14.93,0,0,1-1.27,1.37c-.42.42-.88.82-1.69,1.55,5.54.51,10.73-.28,15.79.7l0,.49-1.92.42a4.51,4.51,0,0,0-1.94.74l1.73,1a3.49,3.49,0,0,1-2,2.93,14.36,14.36,0,0,1-2.89.82l0,.51,2.84.56a6.75,6.75,0,0,1-1.39.85,18.57,18.57,0,0,0-5,1.93c-.69.42-1.86.07-3.14.07l-2,2.69c1.32.61,2.47,1.2,3.66,1.68,2.52,1,2.67,1.4,1.17,3.57.29,1.46.62,2.87.82,4.3.15,1-1,2.14-2.26,2.25a3.88,3.88,0,0,1-3.92-2.05,3.67,3.67,0,0,0-4.13-2.07,2.7,2.7,0,0,1-3.17-2.65,4.65,4.65,0,0,0-.36-1.9c-.08.23-.28.48-.23.68.67,2.58-.33,4.73-1.65,6.83a3.76,3.76,0,0,0-.61,1.66,4.5,4.5,0,0,1-5.55,4.31,6.73,6.73,0,0,0-2.27-.34c-1.19.18-2,.05-2.26-1.29a1,1,0,0,0-.36-.58c-3.13-1.89-4.67-5.16-7-8.08-.63.74-1.2,1.42-1.78,2.09A7.28,7.28,0,0,1,197,153.8c-2.21-.09-3.42-1.19-3.26-3.38a11,11,0,0,1,1.15-4.47,41.12,41.12,0,0,1,4.05-5.4,1.94,1.94,0,0,1,1.73-.53c-.27.3-.54.6-.82.89a15.39,15.39,0,0,0-4.46,8.07c-.42,2.34.42,3.34,2.73,3a5.2,5.2,0,0,0,2.74-1.13c1.7-1.58,3.37-3.21,3.3-5.9,0-1.67.41-2,2-2.29.63.94.16,1.91.06,2.88-.09.81-.3,1.85.08,2.42,1.61,2.38,3.42,4.63,5.18,6.91.17.21.54.27.91.45,1.45-1.44,1.5-3.09,1.14-5-.32-1.65-.38-3.36-.54-5,.72-.95,1.56-1.9,2.24-3a6.4,6.4,0,0,1,5.1-3.12c-.31-2,1-3,2.22-4.09.88-.76,1.83-1.46,2.74-2.2.33-.27.32-.29-.08-1.47-1.59,1.42-3.14,2.86-5.39,2.94a5.6,5.6,0,0,1-5.35-2.82l-1.06,2c-.94,1.74-2,2.18-3.86,1.56a5,5,0,0,1-3.15-2.62c-.55-1.12-1.08-2.24-1.74-3.62l-1.14,1.56c-1.3,1.75-2.58,3.53-3.93,5.24a5,5,0,0,1-1.61,1.32,2.92,2.92,0,0,1-3.11-.18,2.2,2.2,0,0,1-.75-2.74,12.67,12.67,0,0,1,2-3.94c1.81-2.13,3.88-4,5.88-6,.61-.59,1.33-1.06,2.23-1.76a13.18,13.18,0,0,0-1.75-1c-3.57-1.23-6.4-3.59-9.07-6.1-3.1-2.89-2.49-5.19,1.58-6.33,3.47-1,6.85-.76,9.72,1.71a45.6,45.6,0,0,1,4.47,4.43,10.31,10.31,0,0,1,1.23,2.59l-.45.26a22,22,0,0,0-1.45-1.72,55.63,55.63,0,0,0-5.28-4.92,8.88,8.88,0,0,0-8.93-.91c-1.65.65-1.88,1.36-1,2.87a6.89,6.89,0,0,0,1.32,1.62c2.78,2.41,5.59,4.77,9.2,5.89a5.1,5.1,0,0,0,3.18.38c.48-.14,1.09.18,1.64.29l.09.6c-.5.21-1,.62-1.48.61a5,5,0,0,0-3.2,1.25c-3.18,2.32-6.13,4.85-8,8.4a5.55,5.55,0,0,0-.82,1.92,2.24,2.24,0,0,0,.55,1.81,2.59,2.59,0,0,0,2.13.09,5.16,5.16,0,0,0,1.83-1.77c1.36-2,2.6-4.06,3.94-6.07.31-.47.84-1.16,1.22-1.13s1,.68,1.23,1.19c.46.89.7,1.9,1.13,2.82a6.43,6.43,0,0,0,1.22,1.95c1.71,1.67,3,1.45,4.21-.59C212.88,132.39,213,132,213.33,131.39Zm7.64,21.7a8.4,8.4,0,0,0,2.62-5c.23-1.59.24-3.11-1-4.38a2.34,2.34,0,0,1-.35-1.09,2.35,2.35,0,0,0-2.49-2.14,3.77,3.77,0,0,0-3,1.58c-2.3,2.94-1.42,6.21-.9,9.39.08.53,1,1.13,1.67,1.3A21.68,21.68,0,0,0,221,153.09Zm4.91-22.41c.88,0,1.62.38,2.1-.65.19-.42.71-.7,1.11-1,1.52-1.17,3.11-2.26,4.55-3.51a2.19,2.19,0,0,0,.66-1.79c-.51-2-4.12-3.19-5.41-1.71a18.31,18.31,0,0,0-2.79,5.15C225.72,128.11,225.94,129.3,225.88,130.68Zm9.48.92c1.21.42,2.46.89,3.73,1.28,1,.33,2-.5,2.17-1.75C238,130.6,236.25,130.76,235.36,131.6Zm-11.13,8.72-1.49.48,1.49,1.95Zm-7.91,14.8c-1.26-1.17-1.26-1.17-1.66,0Z"/>
    <path d="M50,91.43c.67-5.65,1.27-10.72,1.89-15.9-1.92.4-1.3,2.66-3,3.5a12.85,12.85,0,0,1,.13-4.27c.6-2.65,1.22-5.31,1.59-8a16.79,16.79,0,0,1,5.75-10.89,32.37,32.37,0,0,1,3.67-2.35,6.2,6.2,0,0,1,.48-5.37c.22,1.23.37,2.05.56,3.07,2.35-.74.88-4.14,3.45-4.52-.2.91-.4,1.78-.65,2.86A5.56,5.56,0,0,0,65,49.44c5.1-1.94,10.52-1.92,15.83-2.56a2.76,2.76,0,0,1,1.52.44c1.65.9,3.28,1.83,4.86,2.82a5,5,0,0,1,1.51,1.41c1.2,1.77,2.33,3.6,3.56,5.53-.94.44-1.57-.12-2.22-.8-1.78-1.84-3.93-3.43-5.31-5.54-2-3.07-4.41-3.28-7.59-2.45a68,68,0,0,1-7.17,1A12.62,12.62,0,0,0,68,50c1.4.65,2.24.1,3.08-.1,1.45-.35,2.82-.73,4.2.42.5.42,1.48.26,2.24.39s1.72.32,2.81.52l-1.26,2.61c1.49-.18,2.68-1.3,4.11-.29-.15.46-.29.93-.44,1.39a13.37,13.37,0,0,1,7.15,2.63c-.28,1.9-.54,3.6-.8,5.34a9.41,9.41,0,0,1,1.63.82c.46.36,1.07.82,1.16,1.31.34,1.9.89,3.8.28,5.77a28.67,28.67,0,0,0-.57,2.9c.64.39,1.5.7,1.23,1.81-.61,2.38-.14,5-1.83,7.16-.26.34-.09,1-.11,1.56a21.67,21.67,0,0,1-.12,3A4.79,4.79,0,0,1,88,91.08c-.36.16-.67.42-1,.55-2.24.8-4.2,1.85-4.93,4.4a8.07,8.07,0,0,1-1.37,2l-1-1.74c0-.08.07-.24.17-.32.43-.38,1.08-.65,1.29-1.11.83-1.85,2.1-3.76,2.13-5.66.06-3.33,2.3-5.72,3-8.9-2.25-2.67-1.44-5.91-1-9a23.26,23.26,0,0,1,1.37-4.47c1.13-3.19,1-4-1.66-6.19a28.58,28.58,0,0,0-4.36-3.28,4.81,4.81,0,0,0-3,0c-1.57.33-3,1.31-4.75.88-.22-.06-.59.19-.77.4-1.49,1.75-3,1.33-4.82.43a6.81,6.81,0,0,0-3.56-.62c-1.18.11-2.51.51-2.76,2.26-1.66-1.08-2.47-.17-3.21,1-1.19,1.81-2.43,3.61-3.58,5.45a6.87,6.87,0,0,0-.91,3.75c-.06,3.18-.59,6.36-.92,9.54-.28,2.58-.53,5.17-.85,7.75a10.91,10.91,0,0,1-.73,2l2.08-.62.1.24Zm34-.13c4.51-2,6.13-5.22,4.3-8.18-.52,1.47-.94,2.77-1.44,4-.19.47-.58,1.26-.84,1.24C83.85,88.27,84.65,89.94,84,91.3ZM67,51l-.19-.49c-2.08-.14-2.44.06-2.59,1.83Zm-4.7.62c-1.09.54-.75,1-.32,1.53.08.08.26.06.63.14Z"/>
    <path d="M-.4,137.4c-.48,2-.88,4-1.46,5.89-1.47,4.85-3,9.68-4.55,14.51A5.48,5.48,0,0,1-8.58,161a10.24,10.24,0,0,0-1.79,2.18,5.5,5.5,0,0,1,.5-3.08c1-2.94,2-5.92,3.2-8.8a54.59,54.59,0,0,0,3.4-13.1,65.7,65.7,0,0,1,1.18-6.87c.39-1.45,1.41-2.73,2-4.14A43.09,43.09,0,0,1,7.26,115.3a9.75,9.75,0,0,1,6.32-3.51c7-.86,13.88-2.11,20.82-3.15,1.62-.24,3.27-.27,4.9-.38,1.12-.08,1.94.41,1.83,1.57-.24,2.56-.63,5.1-1,7.64,0,.29-.44.52-1,1.15-.41-3.47.83-6.37.8-9.43-4.22.58-8.23,1.06-12.21,1.69S20,112.21,16.21,113a18.11,18.11,0,0,0-3.94,1.45,10.8,10.8,0,0,0-1.94,1.62c-.6-1.26,1.18-1.42,1.4-2.67-.66.21-1.32.23-1.66.57a28.83,28.83,0,0,0-3.3,3.61A48,48,0,0,0,.14,132a3,3,0,0,0,.72,2.76c2.5,3.77,5,7.54,7.36,11.39a11.39,11.39,0,0,1,1.64,6.73,16.47,16.47,0,0,1-.35,1.94H9.05a4.28,4.28,0,0,1-.39-1.14,15.63,15.63,0,0,0-2.32-7.29c-1.69-2.9-3.46-5.75-5.24-8.6A8,8,0,0,0,0,136.61l-.51-1.05C-.91,136.71-.91,136.71-.4,137.4Z"/>
    <path d="M118,210.94a19.42,19.42,0,0,1,3.56-.75c4.91-.13,9.83-.15,14.74-.16,3.91,0,7.81,0,11.72.08a25.41,25.41,0,0,1,3,.46c1.93.26,3.86.5,5.79.75a15,15,0,0,1,4.45,2.3,3.53,3.53,0,0,1-3.44,1.81c-5.38,0-10.77,0-16.16-.14-4.29-.09-8.59-.19-12.87-.52-3.17-.24-6.33-.81-9.48-1.35C117.81,213.16,117.83,213,118,210.94Z"/>
    <path d="M74.73,179.66c3.46,3.54,8.14,4.64,12.56,6.26A1.66,1.66,0,0,1,85,187c-4.79-1.12-9.26-2.89-12.56-6.76-.63-.75-1.17-1.21-2.21-.63a4.45,4.45,0,0,0,2.45,4,28.51,28.51,0,0,0,3.84,1.66c.85.35,1.7.66,2.62,1a1.64,1.64,0,0,1-2.23,1.33,38.16,38.16,0,0,1-4.43-1.44,4.07,4.07,0,0,0-2.82-.5A3,3,0,0,1,66,182.35c.06-.27.31-.5.64-1,.67,1.27,1.11,2.57,2.81,2.75-.52-1.54-1-3-1.58-4.68-1.15-.07-2.38-.17-3.61-.2-3-.09-6.07,0-9.09-.26a15.34,15.34,0,0,1-4.29-1.07c-2.4-.91-4.75-2-7.09-3a2.25,2.25,0,0,1-1.52-2.19,22.51,22.51,0,0,0,2.83,1.6c3.55,1.36,7,3.1,10.94,3.14,6.87.07,13.73.31,20.6.48.88,0,1.7,0,2.14-1,.13-.3.73-.39,1.29-.67,0,.64.07,1.06.11,1.65l4,.51-.68,1.2c3.68,1.17,6.86,3.55,10.93,3.8a1.62,1.62,0,0,1-1.94,1.55,8.69,8.69,0,0,1-2.71-.67c-3.14-1.39-6.28-2.79-9.36-4.32C78.56,179,76.7,179.36,74.73,179.66Z"/>
    <path d="M177.05,158.92c-1.62-4.87-.37-9.31,1.14-14a4.63,4.63,0,0,0-1.13.38c-4.32,3.26-9.31,2.68-14.21,2.41-1.39-.08-1.63-.64-1.54-2.08a3.59,3.59,0,0,1,1.93-3.26,18.58,18.58,0,0,1,4.67-2.07,53.78,53.78,0,0,1,14.44-.93c1.85.18,3.56.68,4.42,2.58a5,5,0,0,1,.14,1.1c-.51-.26-.85-.32-1-.52a5.11,5.11,0,0,0-4.71-2.15c-4.44.17-8.89.42-13.29,1-1.54.19-3,1.28-4.42,2.05-1.08.57-1.42,1.58-1.18,3.08a32.19,32.19,0,0,0,8.72.26c3.06-.15,5.39-2.18,7.88-3.76,1.07,1.22.46,2.19.11,3.05a21.73,21.73,0,0,0-1.23,9.45,14.53,14.53,0,0,0,.49,2.38c2.91.42,3.08.33,4.12-2,.44-1,.87-2,1.26-3s1.06-2.12.21-3.32c-.12-.18.29-.73.45-1.11.41.25,1.07.45,1.16.79a3.26,3.26,0,0,1-.16,1.82c-.71,2.07-1.52,4.1-2.27,6.15-.27.76-.5,1.53-.82,2.54a23.49,23.49,0,0,1-2.62.14,3.66,3.66,0,0,0-3.66,2.41,9.53,9.53,0,0,0-.92,3.58,2.94,2.94,0,0,0,4.05,3.09,7.78,7.78,0,0,0,5.23-5c.26-.73-.11-1.66,0-2.49a4.47,4.47,0,0,1,.58-1.34c.44.23,1.2.39,1.27.71.43,2,2,2.17,3.57,2.33q3,.31,6,.72a9,9,0,0,1,1.39.42c-.33,1.37-1.29,1.26-2.2,1.15-2.63-.33-5.26-.69-7.89-1l-.75-.1a51,51,0,0,1-3.42,4,10.25,10.25,0,0,1-2.94,1.88c-3.89,1.73-7.15-.77-6.66-5.09a8,8,0,0,1,2.15-4.6C175.89,159.93,176.44,159.49,177.05,158.92Z"/>
    <path d="M171.06,130.08c-.08-1.24-.22-2.47-.22-3.7-.23-40.14-.55-80.28.54-120.42,1,41.38.87,82.76.43,124.14Z"/>
    <path d="M70.16,117.33c-2.41,2.66-5.66,3-9,2.76a8.84,8.84,0,0,1-8.1-5.76c-.45.88-.85,1.28-.83,1.67.06,1.25.3,2.48.4,3.73a8,8,0,0,1-.26,1.61c-1.41-1.44-1.54-2.75-.77-5.93-3.51-4.47-4.28-7-3.73-12.69l-1.67-1.27a3.5,3.5,0,0,1,4.68-.12,3.22,3.22,0,0,0,.56-3.62c-.5-1.34-1.2-2.69-.93-4.47.45.26.92.37,1,.59.65,2.45,2.56,4.13,3.76,6.24a2.56,2.56,0,0,0,1,1c3.89,2,7.65,4.56,12.36,3.4a13,13,0,0,0,3.21-1.75c.73-.43,1.4-1,2.14-1.38,1.19-.67,2.24-.64,3,.87-1,1.32-2.61,1.76-4.11,2.34-.72.28-1.53.35-2.23.67a10.31,10.31,0,0,1-9.83-.54c-.28-.16-.53-.35-.81-.48l-6.89-3c-1.41,1.64-.57,4.35-2.21,6.42-1.17-1.85-.08-3.48-.39-5.38-.47.53-.93.8-1,1.12-.4,3.76.91,7,3,10.09,1.48.38,2,1.89,3.08,2.66a11.63,11.63,0,0,0,3.3,1.66,16,16,0,0,0,8.78-.35c.8-.23,1.61-.41,2.42-.61Z"/>
    <path d="M111.18,149.88a2.74,2.74,0,0,1,1.37,2.55c.18,2.49.45,5,.4,7.47-.16,8.2-.5,16.39-.69,24.58-.13,5.93-.12,11.86-.19,17.8,0,1.06.21,2.21-1.11,3.19a5.1,5.1,0,0,1-.8-1.47,38.53,38.53,0,0,1-.36-4.43c-.2-9.92.51-19.8,1.21-29.7.38-5.35.14-10.75.17-16.14C111.19,152.6,111.18,151.46,111.18,149.88Z"/>
    <path d="M21.68,153.91l-1-.82a12.06,12.06,0,0,1,5.86-1.46c3-.18,5.92-.17,8.89-.17a4.79,4.79,0,0,0,2.38-.68,13.1,13.1,0,0,1,3.73-1.24c.71-.14,2,0,2.17.39.64,1.72,2,1.21,3.12,1.2,7.8-.1,15.6-.29,23.4-.36,1.92,0,3.84.24,6,.39-.38,1.19-1.08,1.16-1.75,1.16l-6.56,0c-6.79,0-13.58.08-20.37.06-1.89,0-3.74.13-5.46-1.34-1-.85-2.43.22-3.73,1L43,155.55c-.48,1.26-1.36,1.07-1.91.55-1.43-1.32-3.7-1.16-4.87-2.95a2.24,2.24,0,0,0-1.71-.6q-5.82.25-11.63.67c-.42,0-.81.42-1.22.64Z"/>
    <path d="M254.79,100a16.91,16.91,0,0,1,2.13-.73,1.54,1.54,0,0,1,1.87,1.94,12.58,12.58,0,0,1-.57,2.46c-.21.5-.7,1.12-1.15,1.2a2,2,0,0,1-1.52-.72c-.37-.42-.44-1.09-.79-1.64-.41,3.37.9,6.78,0,10.28-1.37-.49-1.28-1.44-1.32-2.23-.2-3.27-.32-6.54-.51-9.81-.09-1.52-.29-3-.46-4.75.1,0,.58-.31.75-.19,1.33,1,2.64.47,4,.1,3.7-1,4.37-.65,4.53,3.11a55,55,0,0,1-.64,12.75c-.07.35-.31.92-.54,1-1.47.23-3,.69-4.5-.4,1-1.67,2.85-.67,4.12-1.63-.95-4.32,1-8.85-.58-13.56-1.62.38-3.12.68-4.59,1.11C254,98.53,254.2,99.2,254.79,100Z"/>
    <path d="M161.81,150.27c-4.95-2.27-9.55-3.39-14.43-1l3.83.86-2,2.31c-1.48,1.67-1.07,3.23,1.09,3.87a5.62,5.62,0,0,0,4.52-.56c.71-.4,1.46-.74,2.13-1.08,1,1.06.33,1.88.08,2.62a16.47,16.47,0,0,0-1,6.44,21.24,21.24,0,0,0,.61,2.78,13.44,13.44,0,0,0,1.73-1.23,13.8,13.8,0,0,0,2.92-5.8c.23-.75.38-1.52.64-2.25a1.84,1.84,0,0,1,2.16-1.43c-.88,2.54-1.58,5-2.59,7.29a14.29,14.29,0,0,1-2.47,3.38,2.68,2.68,0,0,1-2.87,1.15c-1.34-.43-1.54-1.69-1.64-2.86a11.75,11.75,0,0,1,.11-3c.27-1.68.7-3.33,1.12-5.27-.86.3-1.55.56-2.25.77a5.8,5.8,0,0,1-4.55-.15,2.91,2.91,0,0,1-1.1-4.68c.35-.48.78-.91,1.42-1.64a19.72,19.72,0,0,1-2.56-.22c-.48-.1-1.21-.41-1.27-.74a2.54,2.54,0,0,1,.46-1.66,2.25,2.25,0,0,1,1.13-.78c5.11-1.76,10-1.53,14.37,2A4.25,4.25,0,0,1,161.81,150.27Z"/>
    <path d="M327.92,132.58l-1.5.68c-.36-.85-.73-1.6-1-2.38-1.51-4.37-4.69-5.88-9.5-4.79a1.64,1.64,0,0,0-1,.56c-.72,1.16-1.36,2.37-2.09,3.68,5.34.48,8.66,3.75,9.28,8.86.12,1,.25,2-1,2.58-.64-1.77-1.13-3.49-1.89-5.08a14.91,14.91,0,0,0-2.22-3.26,3.66,3.66,0,0,0-3.16-1.23c-1.35.08-1.85,1-2.18,2.09a5.31,5.31,0,0,1-.5,1.05,2.1,2.1,0,0,1-1.08-2.56,15.38,15.38,0,0,1,3.57-7.53,3.65,3.65,0,0,1,2.21-1,22.68,22.68,0,0,1,4.2.09,7.25,7.25,0,0,1,6.44,4.37,36.44,36.44,0,0,1,1.3,4Z"/>
    <path d="M41.32,171c.73-.06,1.45-.16,2.18-.16q16.64,0,33.28.09a12.06,12.06,0,0,1,2.33.11c1.28.24,2.48.34,3.45-.75a.41.41,0,0,1,.2-.12,24.55,24.55,0,0,1,7.54-.9c-1.81,1.39-4.08,1-6.24,1.72,1.37,1.24,3.17.43,4.75,1.16a2.13,2.13,0,0,1-2.56.82c-3.06-.92-6.19-.71-9.31-.72-9.21,0-18.43,0-27.65-.09-2.64,0-5.27-.27-7.91-.42Z"/>
    <path d="M153.25,173.62c-1.65.8-2.75,1.35-3.87,1.87a13.81,13.81,0,0,1-7.5,1.41c-2.43-.28-3.38-2-2.44-4.15,1.14-2.66,5.43-5.13,8.31-4.74a9.73,9.73,0,0,1,1.73.61c-.51,1.07-1.3.69-1.92.67a7.9,7.9,0,0,0-5.84,2.53,3.72,3.72,0,0,0-.7.93c-.77,1.46-.24,2.39,1.43,2.52a13.08,13.08,0,0,0,6.36-1.29c1-.45,1.94-1,2.94-1.44,1.91-.84,2.59-.43,2.75,1.61.09,1.25,0,2.51.23,3.74.42,2.52,1.87,4,4,4.29s3.22-.72,3-2.78a9.23,9.23,0,0,0-1.12-3c-.32-.67-1-1.2-.54-2,.16-.07.25-.14.3-.12,1.86.74,3.14,3.41,2.69,5.6a3.92,3.92,0,0,1-4.49,3.18,5.29,5.29,0,0,1-5.31-5.19C153.16,176.63,153.25,175.39,153.25,173.62Z"/>
    <path d="M221.81,162.85c2-2.25,1.37-4.84,1.42-7.33,0-1.22-.06-2.61,1.16-3.37,1-.61,4.25.1,5,1.16a12,12,0,0,1,1.78,3.74c.68,2.67,0,4.24-3.56,5.12a12.32,12.32,0,0,1-1.63.17C224.73,162.48,223.5,162.64,221.81,162.85Zm6-6.79c-.45,1.39-.74,2.3-1,3.3C229.07,159.22,229.12,159.08,227.82,156.06Z"/>
    <path d="M35.26,161.57c-3.6,1.21-7.3,1.05-11.08,1.12-.81,2.59.2,5.18.14,8.12a4.57,4.57,0,0,1-2.1-3.83,26,26,0,0,1,.73-10.2,5.94,5.94,0,0,1,.92-1.85c.23-.31.75-.39,1.44-.73-.25.88-.41,1.43-.59,2a2.31,2.31,0,0,0,.7.2c2.09-.19,4.18-.48,6.28-.59a17.75,17.75,0,0,1,8.31,2c.1.05.11.26.24.6a6.29,6.29,0,0,1-3.82-.28,23.93,23.93,0,0,0-10-.67c-2.45.34-2.75.75-2.35,3.58C27.79,161.57,31.58,160.1,35.26,161.57Z"/>
    <path d="M103.68,140.86c-1.45-1.31-2.86-2.63-4.31-3.9a23.49,23.49,0,0,0-3.46-2.79c-3.44-2-6-4.88-8.79-7.59-1.56-1.53-3.17-3-4.82-4.44-.47-.41-.87-.84-.39-1.32a1.47,1.47,0,0,1,1.36-.27A9.17,9.17,0,0,1,85.36,122c3.5,3.09,6.94,6.25,10.47,9.32,2.23,1.95,4.58,3.76,6.84,5.68a7.48,7.48,0,0,1,1.47,1.79A1.31,1.31,0,0,1,103.68,140.86Z"/>
    <path d="M99.36,180.17c1.07,1.19.78,2.52.68,3.79a8.37,8.37,0,0,0,1.94,6,23.78,23.78,0,0,1,2.38,3.45,7.47,7.47,0,0,1-.19,7.6c-.7,1.2-1.51,2.35-3.54,2.38a5.34,5.34,0,0,1,.63-1.47c2.8-3,3.07-5.6.78-9-.91-1.36-2-2.61-2.94-3.91-2,1.29-3.8,2.7-5.82,3.77s-4.11,1.73-6.14,2.56c-.68-1.06-.26-1.61.39-2a24.66,24.66,0,0,1,2.35-1c1.64-.71,3.3-1.39,4.93-2.14a6.16,6.16,0,0,0,3.67-4.81Q98.92,182.78,99.36,180.17Z"/>
    <path d="M19.28,122.18c-.12.73-.2,1.48-.38,2.2-1.37,5.68-2.84,11.33-4.11,17-1,4.4-1.71,8.86-2.59,13.29-.16.86-.49,1.68-.84,2.85a3.73,3.73,0,0,1-.85-3.4A82.08,82.08,0,0,1,12,144.23c1.75-6.86,3.82-13.64,5.78-20.45a15.63,15.63,0,0,1,.76-1.8Z"/>
    <path d="M230.65,116.62c-2.61-1-4.13-4.15-3.86-7.71.34-4.44,3.32-7.39,9.12-8.88-.66-.78-1.43-1.59-.75-2.59a8.63,8.63,0,0,1,1.84-2,1.68,1.68,0,0,1,1.47.18c.22.15.23.88.1,1.27-.35,1.09-.83,2.15-1.27,3.24a16.53,16.53,0,0,1,1.5,1.62,4.29,4.29,0,0,1,.38,4.45,17.39,17.39,0,0,1-6.11,6.93c-.31.22-.8.17-1.72.34.57-.72.75-1.15,1.07-1.33a14.92,14.92,0,0,0,4.73-4.79,6,6,0,0,0,1-2.57,2.9,2.9,0,0,0-3.49-3.27,8.16,8.16,0,0,0-6.75,7.35A10.94,10.94,0,0,0,230.65,116.62Z"/>
    <path d="M251.12,130.76c1.11,1.06.71,2.15.47,3.15-.74,3.11-1.57,6.19-2.32,9.3-1.24,5.14-2.44,10.3-3.68,15.45a24.19,24.19,0,0,1-.79,2.31l-.5,0a3.91,3.91,0,0,1-.41-1.36,31.93,31.93,0,0,1,.66-5.09c1.34-5.28,2.83-10.53,4.25-15.79.57-2.1,1.12-4.21,1.7-6.31A16.17,16.17,0,0,1,251.12,130.76Z"/>
    <path d="M156,205.88a6.7,6.7,0,0,1-3.81.66c-7.41,0-14.83,0-22.24-.08q-3.63,0-7.26-.13c-.73,0-1.47-.15-2.52-.27.94-1.21,1.93-.93,2.77-.94,4.84-.06,9.67-.08,14.51-.09,5.23,0,10.46,0,15.69,0,1,0,1.93.17,2.9.25Z"/>
    <path d="M154.25,323c0-2.66,1.35-4.37,3.49-4.42,2.31-.05,4.22,1.53,4.18,3.47,0,2.19-1.95,4.49-3.83,4.26C155.09,326,154.23,325.43,154.25,323Z"/>
    <path d="M-13.11,175.18a4.85,4.85,0,0,1-.11-3.8,11,11,0,0,1,1.33-2.71A34.79,34.79,0,0,1-.53,158.41c3-1.67,5.83-1.44,8.83.56-.68.72-1.48.4-2.16.21a8.29,8.29,0,0,0-7.89,1.71c-2.5,2.08-4.93,4.27-7.28,6.52a11.05,11.05,0,0,0-3.22,6.36,4,4,0,0,1-.29.88C-12.6,174.78-12.76,174.86-13.11,175.18Z"/>
    <path d="M214.69,111.76c2.15-.74,2.13-.74,2.93,1a17,17,0,0,0,.95,1.62c-3.67-.33-5.44-2-5.58-5.45a17.73,17.73,0,0,1,.3-4.18,5.31,5.31,0,0,1,1.24-2.44c2-2.17,4.07-1.83,5.31.82.62,1.34,1.09,2.75,1.68,4.11,1,2.21,2,4.4,3,6.6a3.2,3.2,0,0,1,.3,1.87,10.84,10.84,0,0,1-.82-.84c-2.13-2.77-3.12-6.09-4.47-9.23a19.06,19.06,0,0,0-1.07-2.34,1.77,1.77,0,0,0-3.08-.3,2.69,2.69,0,0,0-.61,1A13.24,13.24,0,0,0,214.69,111.76Z"/>
    <path d="M50,160.67c.81,1,1.59,2.09,2.44,3.09.5.6,1.33,1,1.63,1.65,1,2.32,3,2,4.94,1.94,2.09-.09,4.18-.38,6.28-.54.82-.06,1.65,0,2.76,0-.46,1.09-1.09,1-1.65,1.07a27.7,27.7,0,0,1-4.1.64c-3.59,0-7.25.52-10.2-2.61a41.54,41.54,0,0,1-6.75-9.19c-.42-.8-1-1.62,0-2.6,1.48,2.4,2.42,5,4.73,6.61Z"/>
    <path d="M39.37,163.24c1.39.26,1.32,1,1.15,1.84a10.16,10.16,0,0,1-2.84,5A10.53,10.53,0,0,1,31,173.58c-2.87.25-5.72.79-8.61.38-.5-.07-1-.22-1.56-.35.39-1.22,1.28-1,2-1a34,34,0,0,0,8.35-.78c4.31-.76,6.59-3.52,7.87-7.41C39.15,164.11,39.23,163.75,39.37,163.24Z"/>
    <path d="M106.7,142.46c-2.28,2.82-6.32,10.8-8.35,16.27-.31.85-.72,1.65-1.09,2.48l-.52,0a4.4,4.4,0,0,1-.34-1.57,15.32,15.32,0,0,1,1.07-3.8c2-4,4-8.06,6.14-12C104.5,142.1,104.76,142.08,106.7,142.46Z"/>
    <path d="M41.62,143.18a6.43,6.43,0,0,1,0-1.7c.83-3,1.68-6,2.64-9,.21-.65.9-1.13,1.34-1.72a9.64,9.64,0,0,0,.86-1.32c.85-1.58,1.63-3.2,2.52-4.75a17,17,0,0,1,1.53-2L51,123c-.58,1.07-1.19,2.13-1.73,3.21s-1.1,2.25-1.56,3.41-.85,2.51-1.28,3.77-.8,2.28-1.27,3.64c-.41-.58-.61-.86-.83-1.19-1.19,2.38-1,5.16-2.21,7.43Z"/>
    <path d="M81.1,120.28a12.9,12.9,0,0,1-.84-2.54c-.23-2.63-.43-5.26-.45-7.89,0-1.31,0-2.48-1.15-3.33a2.6,2.6,0,0,1-.44-.54c-.37-.52-.79-1.15-.07-1.59a1.64,1.64,0,0,1,1.38.31,4.84,4.84,0,0,1,2.22,5c-.3,2.35.13,4.79.24,7.19C82.05,117.93,82.45,119.11,81.1,120.28Z"/>
    <path d="M155.55,140.12c-4.21-.19-6.35-3.55-4.69-6.77a2.48,2.48,0,0,1,2.18-1.49c3.07-.18,7.38,3.19,7.88,6.22a8.66,8.66,0,0,1-.22,1.8c-.54-1-.84-1.48-1.1-2a8.52,8.52,0,0,0-4.93-4,2.75,2.75,0,0,0-2.33.25,2,2,0,0,0,0,2.78,27.58,27.58,0,0,0,2.27,2.32Z"/>
    <path d="M161.58,221.39c.19-2.12.69-2.88,2.09-2.92.8,0,3.59,1.69,3.76,2.32.33,1.15-.88,3.57-2.07,4.18a2.14,2.14,0,0,1-2.86-.78A14.58,14.58,0,0,1,161.58,221.39Z"/>
    <path d="M65.55,89.48l.87-.49A15.13,15.13,0,0,0,67,91.42a1.7,1.7,0,0,0,1.11.92c.33.06.75-.43,1.53-.93l1.36.48-2,1.91-6.21-.93c-.3,0-.73,0-.89-.19a3.89,3.89,0,0,0-4-1.15l0-.46,2-.7c.24-.47.51-.94.74-1.42s.4-1,.6-1.46c1.09,1.24,1.09,1.24,0,2.57a30.26,30.26,0,0,0,3.3,1c1.21.23,1.59-.28,1.43-1.59,0,0-.12-.08-.19-.08a.6.6,0,0,0-.21.08Z"/>
    <path d="M94.4,74.58A5.47,5.47,0,0,1,94,73.52q-.74-6-1.45-12.07c-.12-1-.42-2.12.84-3.15.21.69.36,1.09.45,1.5.49,2.37,1.06,4.72,1.44,7.11a31.85,31.85,0,0,1,.34,4.88A3.54,3.54,0,0,1,94.4,74.58Z"/>
    <path d="M69,157.9c-.61.17-1,.34-1.13,1.18a2.58,2.58,0,0,1-3.29,2,24.46,24.46,0,0,1-3.64-1.5c-1.13-.56-1.13-1.34-.08-2.09.79-.57,1.59-1.11,2.45-1.71-1.57-1.27-1.91-1.31-4.43-.71a4.28,4.28,0,0,1,4.7-.59,1.3,1.3,0,0,1,.49,2,13.8,13.8,0,0,1-1.48,1.75c1.08.69,1.75,1.92,3.41,1.79l.25-2A2.46,2.46,0,0,1,69,158Z"/>
    <path d="M245,122.84c.58-1.67-.41-2.39-1.54-3a10.35,10.35,0,0,0-6.47-1.42c-1.38.15-1.38.13-2-1.2a11,11,0,0,1,10.37,1.8C247,120.24,247,121.25,245,122.84Z"/>
    <path d="M76,114.7l-3.62,4.08a6.46,6.46,0,0,1,4-5.23,17.91,17.91,0,0,1,4.16,9.4,7.48,7.48,0,0,1-.4,2.07c-1.6-1.77-1.26-3.71-1.94-5.28Z"/>
    <path d="M88.12,174.58l-1.86,1.16c1.51.83,2.94,1.53,4.27,2.38s2.42,1.78,3.71,2.75c-.16.13-.44.51-.59.46A13.1,13.1,0,0,1,90.37,180c-2.27-1.59-4.37-3.45-7.53-3.57.76-1.78,2.29-2,3.38-2.73.39-.25,1.25.22,1.89.37Z"/>
    <path d="M243,110.78a22.22,22.22,0,0,1-.4-2.68c-.13-3.26-.21-6.52-.29-9.77a3.12,3.12,0,0,1,.17-1.37,1.09,1.09,0,0,1,.88-.53c.25,0,.59.51.61.81.07,1.23,0,2.47,0,3.71,0,2.72.08,5.43.07,8.15a7.92,7.92,0,0,1-.41,1.68Z"/>
    <path d="M74.24,127.06c1.28,2.68,1.11,10.85-.45,14.09a15.09,15.09,0,0,1-.5-2.47c-.07-3.17-.07-6.35-.1-9.52C73.19,128.3,73.28,127.47,74.24,127.06Z"/>
    <path d="M74.1,72.73A4.28,4.28,0,0,1,78,72.4,20,20,0,0,1,82.07,75c.26.2.27,1,.09,1.44a1.26,1.26,0,0,1-1.16.43c-2.14-1-4.24-2.18-6.33-3.32C74.44,73.44,74.34,73.09,74.1,72.73Z"/>
    <path d="M149.06,251.57c1.52,1.22,1.31,2.3.68,3.2a7.94,7.94,0,0,1-6.81,3.77c-1.46,0-1.91-.43-2.85-2.31,2,.89,3.79,1.14,5.64.1A5.63,5.63,0,0,0,149.06,251.57Z"/>
    <path d="M78.47,154.45c.53.7.2,1.39-.08,2.11-1.43,3.67-4.19,7.65-6.35,8.95a3.92,3.92,0,0,1,.13-1.32c.47-.89,1-1.74,1.57-2.59C75.3,159.23,76.87,156.87,78.47,154.45Z"/>
    <path d="M55.19,73.45c-.09-1.13.86-2.79,1.93-2.79,2.58,0,5.28-.73,7.67.86,0,.9-.5,1.23-1.2,1.19s-1.54-.19-2.31-.29C57.8,72,57.8,72,55.19,73.45Z"/>
    <path d="M21.63,153.86a6.11,6.11,0,0,1-1,1.24c-3.85,2.9-7.77,5.73-10.39,10l-.45-.25a5.42,5.42,0,0,1,.52-1.53,31.1,31.1,0,0,1,10.91-9.37c.12-.06.31,0,.46,0Z"/>
    <path d="M19,130.62a2.75,2.75,0,0,1,.75-.37,25.54,25.54,0,0,1,10.66.27,3.36,3.36,0,0,1,2.36,1.74,21,21,0,0,0,1.32,2c-1.1.43-1.61-.23-1.89-.93-.59-1.46-1.78-1.78-3.14-2a27.9,27.9,0,0,0-9.07-.19,6.61,6.61,0,0,1-.89,0Z"/>
    <path d="M213.5,80.79l-1.59,3c1.35,1,2.78-.33,4.06.26-1,1.22-3.65,1.92-4.71,1.18a1.63,1.63,0,0,1-.59-1.16,9.39,9.39,0,0,1,.48-2,7.59,7.59,0,0,1-1.59-.65A7,7,0,0,1,208.45,80C210.42,79.72,211.79,80.47,213.5,80.79Z"/>
    <path d="M6.88,155.12C2,153.44-1.69,150.8-2.47,148.6c.14,0,.32-.14.42-.08C.11,149.73,2.26,151,4.4,152.2A4.14,4.14,0,0,1,6.88,155.12Z"/>
    <path d="M89.79,149.44c-.54.13-1.15.51-1.6.36-2.8-.92-5.56-2-8.33-3a.92.92,0,0,1-.69-.58c3.73.46,7.38.69,10.6,2.52Z"/>
    <path d="M208.42,164.46c-1.91-2.41-2.22-4.85-2.44-7.3,0-.28.66-.62,1.35-1.22.77,2.41,1.49,4.42,2,6.49C209.45,162.9,208.86,163.55,208.42,164.46Z"/>
    <path d="M66.42,95.68c-1.44,1.18-2.64,2.23-4.61,1.42-1.12-.46-2.64,0-3.7.09L59.85,95Z"/>
    <path d="M189.77,96.28c2.09-3.74,5.66-3.71,8.85-4.92a1.83,1.83,0,0,1-1.25,2.17C195,94.44,192.62,95.26,189.77,96.28Z"/>
    <path d="M79.44,79c-1.31-.12-1.75-1-2.84-.43-1.55.87-2.12.34-2.46-1.63,0-.12-.18-.22-.36-.44l-2.51.83c.86-1.51,1.81-2,3-1.79C76.28,75.94,78.26,76.51,79.44,79Z"/>
    <path d="M63.71,82a2.36,2.36,0,0,1,0-2.61c.78-1.7,1.64-3.36,2.51-5a.91.91,0,0,1,1.53-.34C67.56,75.54,65.44,79.77,63.71,82Z"/>
    <path d="M311.17,118.85c-1.07-2.4-3.91-1.27-5.59-2.74,1.56-.75,4.89-.64,6.05.13S312.56,117.5,311.17,118.85Z"/>
    <path d="M41.5,120.5l7.64-4.91c-.52,2-1.91,3.2-4.87,4.59C43.46,120.55,42.6,121.21,41.5,120.5Z"/>
    <path d="M190,122.11a13.74,13.74,0,0,1-1.45-.68c-.22-.14-.51-.5-.46-.66s.43-.8.62-.78a4.31,4.31,0,0,1,2.31.61c.33.3.14,1.46-.15,2.07a3.83,3.83,0,0,1-3,2.26c-.05-.65-.1-1.19-.16-1.77l2.12-.39Z"/>
    <path d="M80.63,91.54l-12.88,6C71.49,94.41,76,92.91,80.63,91.54Z"/>
    <path d="M6.91,161.21c-.46.79-.72,1.57-1,1.56-1.94,0-2.84,1.37-3.91,2.57a4.48,4.48,0,0,1-.77.53,1.68,1.68,0,0,1,.53-2.33C3.08,162.34,4.31,161,6.91,161.21Z"/>
    <path d="M57.91,74.1l-1.27.43c0-.17-.07-.34,0-.42a2.3,2.3,0,0,1,2.71-.82c.88.24,1.74.61,2.66.95C59.82,76.76,58.83,76.71,57.91,74.1Z"/>
    <path d="M31.42,165.69a10.84,10.84,0,0,1-6.77,1.1A6.34,6.34,0,0,1,31.42,165.69Z"/>
    <path d="M189.6,88.09a23.28,23.28,0,0,1,1.9-7.37A8.12,8.12,0,0,1,189.6,88.09Z"/>
    <path d="M91.93,321.17c1.7,1.75,1.81,4.39.61,8.2a4.46,4.46,0,0,1-.27-1C92.14,326,92,323.57,91.93,321.17Z"/>
    <path d="M50.08,160.72l.35-.64a19.75,19.75,0,0,0,2.48,1.6c2.31,1.07,3.59.35,4.13-2.35,1,.8.71,1.62.19,2.39a3.1,3.1,0,0,1-3.7,1.21,24.93,24.93,0,0,1-3.48-2.26Z"/>
    <path d="M161.59,209.85c-.57-1.35-.17-3.39,1.1-5.29,1.12,1,.51,2.16.34,3.23C162.83,209.09,162.79,209.08,161.59,209.85Z"/>
    <path d="M41.56,108.14c.74-2,1.16-4.18,2.43-6.29A6.32,6.32,0,0,1,41.56,108.14Z"/>
    <path d="M95.16,174.61c-1.51.1-1.85-.32-3.55-4C93.37,170.71,93.63,171,95.16,174.61Z"/>
    <path d="M203.47,97.84c-1.15,1.55-2.5,1.47-4.82-.29A4.84,4.84,0,0,1,203.47,97.84Z"/>
    <path d="M23.15,141.17c-1.57,1.23-2.94.07-3.69-3.44Z"/>
    <path d="M73.94,80.46c-1.45,1.41-2.28,1-3.45-1.69C72.08,78.59,73,79.45,73.94,80.46Z"/>
    <path d="M44.87,159.44l-3.39,1.78c-.2-2.19.48-2.28,3.12-2.26Z"/>
    <path d="M208.9,92.9l3,.29c-.29,1.16-.78,1.66-1.7,1.56S208.85,94.07,208.9,92.9Z"/>
    <path d="M63.07,83.27c.13,1,1.15,2.16-.52,2.92C61.36,84.18,61.41,83.84,63.07,83.27Z"/>
    <path d="M65.54,87.31V84.68a1.06,1.06,0,0,1,1.61.8C67.42,86.45,66.75,86.8,65.54,87.31Z"/>
    <path d="M70,100.72l5-2.78.23.41-5,2.89Z"/>
    <path d="M74.37,148.36c-1-1.37-.2-2.41-.13-3.64C75,146.2,75,146.2,74.37,148.36Z"/>
    <path d="M69,158a10,10,0,0,1,1.08,1.71c.35.92-.08,1.57-1,2V157.9Z"/>
    <path d="M62.69,77.94l-3.12.72c.73-1.3,1.89-1.22,2.93-1.52Z"/>
    <path d="M310.89,107.46a2.51,2.51,0,0,1,2.19,2.42C311.74,109.7,311.38,108.87,310.89,107.46Z"/>
    <path d="M220.08,82.31l3.42-.7C222.18,83.3,222.18,83.3,220.08,82.31Z"/>
    <path d="M69,86.67,68.85,84c.7.62,1.25.88,1.35,1.25C70.39,86,70,86.51,69,86.67Z"/>
    <path d="M192.35,339.16c-.31-.94-.63-1.88-.95-2.83l.29-.1c.32.93.64,1.85,1,2.77Z"/>
    <path d="M78.92,99.75l-2,.26c.8-1,.8-1,2-.74Z"/>
    <path d="M202.38,166.32h-2v0h2Z"/>
    <path d="M76.18,106.52c-.16.65-.31,1.3-.57,2.35C75,107.29,75,107.29,76.18,106.52Z"/>
    <path d="M195.19,346.59l.65,1.92-.24.1-.76-1.92Z"/>
    <path d="M72.93,108.49,71.8,110l-.48-.36,1.12-1.52Z"/>
    <path d="M178.57,104.3l-.21,1.32-.43-.06c.07-.44.13-.88.19-1.32Z"/>
    <path d="M71.73,117.37l-.07,1.3-.24,0a4.14,4.14,0,0,1-.09-.6,7,7,0,0,1,.11-.78Z"/>
    <path d="M107.66,201.61a8.59,8.59,0,0,1-1.27.69s-.34-.42-.29-.48a1.48,1.48,0,0,1,.63-.48C106.91,201.29,107.14,201.45,107.66,201.61Z"/>
    <path d="M69.08,99.29l1.08-.57.17.29-1,.65Z"/>
    <path d="M65.55,89.47l-2,.35c.58-.92.58-.92,2-.34Z"/>
    <path d="M83.14,152.64l-1-.55.14-.36,1.19.43Z"/>
    <path d="M94.64,403.27c.76.51,1.55,1,2.29,1.55,1.56,1.18,3.06,2.43,4.63,3.57a6.59,6.59,0,0,0,5.24,1c-.12-1-.86-1.22-1.55-1.47-1.62-.59-3.25-1.13-4.84-1.78-1.88-.77-1.92-.92-1.59-3.48,5.27.81,10.57,1.35,15.92-.19l-1.88-3c-.4,0-.86-.13-1.32-.15-1.05,0-1.82-.37-1.84-1.61,0-1.53.62-2.59,1.87-2.78,1.55-.23,3.11-.34,4.65-.59a25.63,25.63,0,0,0,2.59-.7c-.38-.79-.72-1.39-1-2s-.73-1.43-.55-2c.49-1.56.11-3-.09-4.52-.14-1.13.42-1.54,1.59-1.33a19.9,19.9,0,0,1,1.91.58l-1-4.61.54-.21a9.12,9.12,0,0,1,.92,1.67A41.89,41.89,0,0,0,127,392.5c.79,1.15,1.74,2.28.9,3.85-.12.21.05.61.16.9.47,1.36-.24,2.22-1.2,3s-1.62,1.42-2.52,2.22l1.06,1.3c.56.83-1.81.62-.54,1.72a3.26,3.26,0,0,1-.89,1.19c-4.23,2.82-8.5,5.57-13.78,6a16.76,16.76,0,0,0-2.26.6c-1.86.4-3.66.61-5.39-.59A7.4,7.4,0,0,0,100,412c-4.71-1.16-7.52-4.21-7.75-8.52-.05-1-.2-2.21,1.07-2.84l.9,2.15a3.73,3.73,0,0,0,3.46,4.67Z"/>
    <path d="M90.34,409.63a48.94,48.94,0,0,0,3.85,4A14.57,14.57,0,0,0,103,417a28.91,28.91,0,0,0,9.95-.91,28.21,28.21,0,0,1,5.07-.58c2.83-.3,4.77-2,6.93-4.22-1.62-.09-2.38.9-3.34,1.33s-1.93,1-2.86,1.42c-1.3-1.77-1.3-2.19.11-3.1,1.84-1.19,3.69-2.36,5.61-3.39a11.43,11.43,0,0,1,2.88-.67l.49-1.34c1,.28,1.09,4,.28,5.88l-1-.65-3.34,3.19.53.95a2.37,2.37,0,0,1-.54.43,33.93,33.93,0,0,1-4,1.33c-6.12,1.27-12.23,2.65-18.55,1.63a14.62,14.62,0,0,1-9.87-5.73,20.37,20.37,0,0,1-1.46-2.78Z"/>
    <path d="M113.92,369.83c-.2.72-.33,1.22-.48,1.75l1.38.81c-.14.28-.2.53-.35.65-1.32,1-2.84.54-4.28.51-2.18-.05-4.36-.24-6.53-.27-1.84,0-1.84.05-3.32,1.75a12.37,12.37,0,0,1-1.47-1.64,1.57,1.57,0,0,1,.59-2.55,8.11,8.11,0,0,1,2.32-1.06,23.4,23.4,0,0,1,9.7-.77A15.22,15.22,0,0,1,113.92,369.83ZM104.26,371v.3h6.83V371Zm-3.72.94.22.4,1.28-.65-.13-.29Z"/>
    <path d="M113.76,377.87l-1.43,1.69a12.18,12.18,0,0,0-2.71-.58c-2.49.12-5,.32-7.46.63s-3.32,1.67-3.22,4.37l2.93.65c-.82,1.24-1.52,2.33-2.33,3.56l1.38,1.09a1.61,1.61,0,0,1-2.09,1,1.67,1.67,0,0,1-1.31-1.73,11.51,11.51,0,0,0-.69-4.26c-.61-1.93,1.37-5.35,3.37-5.77,3.5-.72,7-1.24,10.59-1.71a9.18,9.18,0,0,1,2.68.45Z"/>
    <path d="M92.77,377a1.9,1.9,0,0,1,2,2c.62,5.83,1.24,11.64-1.21,17.27a29.49,29.49,0,0,0-1.13,4c-.41-.4-.94-.69-.92-.94a10.41,10.41,0,0,1,.54-3.41c2.11-4.75,2-9.72,1.66-14.72a2.74,2.74,0,0,0-1.08-2.44,2.24,2.24,0,0,1-.64-1.66c0-4.61,0-9.21.1-13.81,0-.26.2-.52.64-.73Z"/>
    <path d="M6,361.47c1.15-1.63,2.21-3.34,3.47-4.88Q20.2,343.29,31,330.06a1.84,1.84,0,0,1,.92-.7c-8,11.16-17,21.63-25.4,32.47Z"/>
    <path d="M95.8,368.85a13,13,0,0,1,.15-2.17,21.1,21.1,0,0,1,1-2.88c.82-2.07,1.3-4.14.45-6.34a4.76,4.76,0,0,1-.22-1.85,13.4,13.4,0,0,0-1.59-7.21,6.17,6.17,0,0,1-.39-1.55,1.54,1.54,0,0,1,2.33.95,19.43,19.43,0,0,1,1.33,4.69,31.73,31.73,0,0,1-1.39,14.75,17.68,17.68,0,0,1-.87,1.81Z"/>
    <path d="M113.37,382.49c-.47.33-.93.94-1.4.95-2.72,0-5.5.46-8.62-.6,1.81-1.36,3.45-.91,5-1s3.2,0,4.8,0Z"/>
    <path d="M114.63,386c-1.25,3.54-2.82,4.36-5.43,3.16-.63-.29-1.41-.94-1.48-1.52s.79-1.09,1.36-1.8c.21.78.3,1.57.47,1.59a6.9,6.9,0,0,0,2.44-.11c.38-.09.59-.74,1-.95A6.45,6.45,0,0,1,114.63,386Z"/>
    <path d="M116,362.41c2.34,2,3.21,6.13,1.65,8.19Z"/>
    <path d="M114.75,383.05c1-1.24,1.64-2.11,2.39-2.85.25-.25.81-.18,1.24-.25.07.41.35,1,.18,1.22a12.9,12.9,0,0,1-2.2,2.23C116.13,383.58,115.48,383.23,114.75,383.05Z"/>
    <path class="cls-1" d="M94.64,403.27l3.08,4.21a3.73,3.73,0,0,1-3.46-4.67Z"/>
    <path d="M53.52,329.74l.75-2.57.49.21-1.29,2.32Z"/>
    <path d="M97.09,372v1.57h-.35c0-.55-.07-1.1-.1-1.65Z"/>
    <path class="cls-1" d="M134.87,310.2c.53-.26,1.06-.5,1.57-.79a4.73,4.73,0,0,0,2.08-6c-.44-1.16-.61-2.42-1.12-3.55-.76-1.7-1.7-3.32-2.57-5,0-.07-.09-.16-.15-.17-2.38-.49-2.68-2.49-3.12-4.5h-2.48v-6.84a11.37,11.37,0,0,1,8.64,3.93,15.45,15.45,0,0,1,3.76,14.16,33.89,33.89,0,0,1-3.07,7.3A2.7,2.7,0,0,1,134.87,310.2Z"/>
    <path class="cls-1" d="M108.87,335.74c-2.86,2.24-2.91,2.35-2.29,5.33-5.65.58-11.25,1.41-16.78,4-.14-1.35-.23-2.37-.34-3.47l2.15-1c.07-.65.15-1.41.21-2.17.18-2.16,1.13-3.75,3.36-4.19,2.82-.56,5.66-1.05,8.52-1.42a3.81,3.81,0,0,1,2.08.77C106.83,334.21,107.79,335,108.87,335.74Z"/>
    <path class="cls-1" d="M132,340.19v-4.71c.64-.05,1.16-.14,1.69-.13,5.28.13,10.57.3,15.86.41,2.67.06,3,.32,3.26,3.58a124.37,124.37,0,0,0-20.88.77Z"/>
    <path class="cls-1" d="M70.91,298.5c-.16-5.11-.33-10.23-.47-15.35,0-.19.22-.38.55-.94.71,2.14.34,3.87.37,5.56s-.09,3.58-.12,5.36,0,3.58,0,5.36Z"/>
    <path class="cls-1" d="M123.91,247.06c4,1.73,4,1.76,3.55,4.81a17.88,17.88,0,0,1-1.83-1.41c-1.26-1.31-1.23-1.34-3-1.51Z"/>
    <path class="cls-1" d="M115.15,332.29c-1.44,1.35-2.24,3.35-4.73,3.14C111.48,332.1,111.43,331.41,115.15,332.29Z"/>
    <path class="cls-1" d="M110.33,344c-1.44.47-2.88,1.31-4.59-.22A6.56,6.56,0,0,1,110.33,344Z"/>
    <path class="cls-1" d="M149.66,310.53l.51-3.38C151.58,307.72,151.5,308.41,149.66,310.53Z"/>
    <path class="cls-1" d="M120,245.36l1.65-2.14.85,1.93Z"/>
    <path class="cls-1" d="M72.76,334.21l.18,2.94-.56,0c0-1-.1-2-.14-2.95Z"/>
    <path class="cls-1" d="M129,272.12c1.58-1.27,1.58-1.27,2.24,0Z"/>
    <path class="cls-1" d="M140.17,308.63l.77-1.42.42.19-.7,1.48Z"/>
    <path class="cls-1" d="M84.5,236.36l-1.4-.54,1.26-1.44Z"/>
    <path class="cls-1" d="M92.8,236.5l-1.53.71-.24-.4,1.45-.86Z"/>
    <path class="cls-1" d="M61.38,195.13l.75.22-.08.25-.74-.22Z"/>
    <path class="cls-1" d="M127.25,279.9v-1h.13v1Z"/>
    <path class="cls-1" d="M130.4,310l.95.18a4.06,4.06,0,0,1-.62.43c-.07,0-.23-.14-.35-.22Z"/>
    <path class="cls-1" d="M126.82,286.46v-.74H127l0,.75Z"/>
    <path d="M346.05,331.55a23.07,23.07,0,0,1-2.85.34c-8.75,0-17.5,0-26.25.06-7.73,0-15.47.13-23.2.16a32.14,32.14,0,0,1-4.59-.36c2.08-.91,53.51-1.48,56.77-.76Z"/>
    <path d="M344.45,334.72c-.43.59-.46.68-.52.7a1.86,1.86,0,0,1-.66.2c-20.76-.81-41.53-1-62.31-.22a.83.83,0,0,1-.64-.38A506.06,506.06,0,0,1,344.45,334.72Z"/>
    <path d="M363.37,301.14c-1.78.27-8.89-2.29-10.85-3.95A43,43,0,0,1,363.37,301.14Z"/>
    <path d="M363.13,309.55c1.66-1.49,3-1.21,4.61.89C365.91,311.32,364.66,309.62,363.13,309.55Z"/>
    <path class="cls-1" d="M293.55,6.27v4.79c-36.79,2.9-73.37,6.28-110,10.73.82,1,1.78.71,2.64.63,4.74-.44,9.47-.94,14.21-1.4l23.55-2.26c10.88-1,21.75-2.11,32.64-3.09,8.55-.77,17.11-1.43,25.67-2.13q4.42-.36,8.87-.69c.69,0,1.39,0,2.43,0a51.57,51.57,0,0,1,.1,8.45c-.92.13-1.67.28-2.43.33-8.17.61-16.34,1.24-24.52,1.77-9,.59-18.08,1.09-27.12,1.59-17.23.94-34.47,1.63-51.58,4.05-1.78.25-3.57.42-5.36.55-1.14.08-2.29,0-3.74,0-.19-4.81-.08-9.29,0-13.9,1.06-.18,1.89-.36,2.73-.47,14.78-2,29.58-3.84,44.47-4.78,9.35-.59,18.71-1,28.06-1.61,12.23-.79,24.45-1.7,36.67-2.55C291.63,6.22,292.48,6.27,293.55,6.27Z"/>
    <path class="cls-1" d="M178.94,37.12V30.69c2.46-.18,4.78-.32,7.09-.52,7.86-.71,15.7-1.54,23.56-2.12,7.71-.56,15.44-.86,23.15-1.29q10.65-.6,21.28-1.23c6.16-.36,12.32-.7,18.48-1.11,5.68-.37,11.36-.83,17.05-1.21,1.23-.09,2.47,0,3.84,0,.6,2,.33,4,.19,6.19-2,.19-3.93.43-5.85.56-10.83.71-21.66,1.45-32.49,2.07-11.77.68-23.55,1.12-35.31,1.9-10.75.71-21.48,1.73-32.21,2.62-2.1.17-4.19.41-6.29.58C180.66,37.18,179.89,37.12,178.94,37.12Z"/>
    <path class="cls-1" d="M313,28.3c-5.54,0-11.06.92-16.92.88,0-1.94-.08-3.7,0-5.46,0-1.06.95-1.06,1.74-1.13,3.73-.33,7.46-.62,11.19-1,1.7-.18,3.38-.54,5.06-.87a4.11,4.11,0,0,0,1.11-.59l-.13-.47-18.87,1.6V12.55l7.25-.64c4.19-.35,8.39-.68,12.59-1.06a4.82,4.82,0,0,0,3.2-1.17c-1.61-1.48-2.24-1.53-3.9-.49a2.12,2.12,0,0,1-.85.27l-18,1.46a8,8,0,0,1-.24-4.9l23.4-3.36c.45,1.66.56,38.14.06,41.19-.66-1.6-1.18-2.92-1.76-4.21-.21-.49-.45-1.22-.82-1.32-1.62-.43-2-1.75-2.6-3-.77-1.61-2-2.37-3.63-1.7-2.34,1-4.57.25-6.85.21-2.55,0-5.11,0-7.71,0a6.83,6.83,0,0,1-.29-1.3c0-1.52.17-1.75,1.68-1.87,2.41-.19,4.83-.31,7.24-.54,2.25-.21,4.49-.51,6.73-.82a6.39,6.39,0,0,0,1.4-.51Z"/>
    <path class="cls-1" d="M293.54,30.8v2.93l-11.21,1.1c-4,.4-8.06.81-12.09,1.17s-7.91.68-11.87,1c-4.58.34-9.17.64-13.75,1-1.63.11-3.27.23-4.9.3-6.23.28-12.47.41-18.68.84-7.93.53-15.83,1.31-23.75,1.95-2.95.25-5.9.49-8.86.61a24.29,24.29,0,0,0-8.21,1.63,8.55,8.55,0,0,1-1.3.28V38.27C217.05,34.73,255.21,34.26,293.54,30.8Z"/>
    <path class="cls-1" d="M296.8,83l3.65-.34a27.06,27.06,0,0,1,.12,4.06,3.84,3.84,0,0,0,1.85,4.16c.17.11.26.36.47.65a11.45,11.45,0,0,1-5.72,3.9A105.66,105.66,0,0,1,296.8,83Z"/>
    <path class="cls-1" d="M213.28,58.53c.56.75,1,1.1,1.08,1.51.12.74-.21,1.52-1,1.52-.41,0-1.15-.69-1.14-1.06C212.2,60,212.74,59.43,213.28,58.53Z"/>
    <path class="cls-1" d="M250,53.49c.33.37.65.57.66.78a.76.76,0,0,1-.48.59.75.75,0,0,1-.6-.46C249.49,54.19,249.74,53.92,250,53.49Z"/>
    <path class="cls-1" d="M294.33,109.1c.09,1,.13,1.46.17,1.9l-.3.11c-.15-.26-.4-.5-.44-.78S294,109.86,294.33,109.1Z"/>
    <path class="cls-1" d="M170.72,367.78c-.82.16-1.17-.46-1.28-1.19a8.21,8.21,0,0,1,0-2.32c1.29-8.49,2.43-17,4-25.44,1.36-7.44,3.23-14.79,4.77-22.2,2.08-10,4-20.05,6.1-30.06,1.7-8.18,3.75-16.29,5.29-24.49,2.39-12.66,4.33-25.41,5.55-38.24.1-1.08.24-2,1.58-2.23a5.56,5.56,0,0,0,1.88-1.29c.48-.37.89-.85,1.38-1.2,2.08-1.48,2.08-1.47,3.43.7-1,4.92-2.09,9.8-3,14.7-2.08,11.13-3.87,22.32-6.21,33.39-1.54,7.32-3.66,14.53-5.86,21.69a160.78,160.78,0,0,0-5,21.17c-.06.39-.24.87-.09,1.15,1,1.86.26,3.66-.16,5.45q-4.37,18.7-8.82,37.39c-.74,3.11-1.81,6.14-2.66,9.22C171.17,365.2,171,366.47,170.72,367.78Z"/>
    <path class="cls-1" d="M292,297a4.55,4.55,0,0,1,3.79-2.38c3.76-.58,7.55-1.08,11.34-1.4a38.85,38.85,0,0,1,7.7,0,52.33,52.33,0,0,1,7.44,1.8c.37.11.92.66.88.92a1.86,1.86,0,0,1-.87,1.21,6.32,6.32,0,0,1-2.21.68c-6.74.71-13.47,1.65-20.27,1.3a32.68,32.68,0,0,1-5.3-.75A10.89,10.89,0,0,1,292,297Zm17.37-.72c-1-1.23-1.27-1.35-2-1-.23.09-.31.56-.54,1Z"/>
    <path class="cls-1" d="M198.86,295.62c.46.64,1.18,1.22,1.32,1.92a32,32,0,0,1,.44,4.6,25.93,25.93,0,0,0,.27,4.85c.89,3.37,2.08,6.66,3.15,10,.14.42.3.84.5,1.43-2.22.56-4.28,0-6.32-.11-.4,0-.8-.67-1.11-1.1a27.63,27.63,0,0,0-1.94-2.9C194,313,194,311.64,194.48,310c1.11-3.89,2-7.84,3-11.75.2-.81.45-1.6.68-2.4Z"/>
    <path class="cls-1" d="M207.46,321.49a15.91,15.91,0,0,0,8.26,2,29.52,29.52,0,0,1,5.07.68,4.33,4.33,0,0,0,1.84.11c2.91-1.06,5.78.16,8.67.12.83,0,1.67.94,2.44,1.41-.76,2.41-.78,2.47-2.87,2.51-2.34.05-4.67-.05-7,.05-3.8.16-7.6.4-11.4.67-2,.14-2.24.08-3-1.71s-1.59-3.66-2.38-5.49Z"/>
    <path class="cls-1" d="M197,262.57c.79-4.58,1.57-9.19,2.38-13.79,1.51-8.54,3.07-17.06,4.51-25.6.23-1.38,1.16-2.12,1.93-3,.11-.13.55,0,1.18.06-.32,1.72-.54,3.31-.9,4.87-1.66,7.07-3.4,14.11-5,21.19-1.1,4.78-2,9.61-3.09,14.41a20.15,20.15,0,0,1-.63,2,.2.2,0,0,1-.19.09S197,262.66,197,262.57Z"/>
    <path class="cls-1" d="M198.81,319.63l5.94.38c1.21,2.7,2.36,5.25,3.52,7.81l-.51.35A18.23,18.23,0,0,1,198.81,319.63Z"/>
    <path class="cls-1" d="M212,320.71a109.16,109.16,0,0,1,16.48.36c.3,0,.56.38.8.8-2.46.15-4.75,1.1-7.27.56C218.74,321.72,215.37,321.27,212,320.71Z"/>
    <path class="cls-1" d="M185.22,338.8c-.87-.34-1.3-.51-1.74-.66s-.87-.29-1.63-.53c.39-.48.83-1.14.92-1.09,1.49.71,1.72-.49,2.15-1.36a4.17,4.17,0,0,1,1.24-1.74C185.85,335.16,185.55,336.91,185.22,338.8Z"/>
    <path class="cls-1" d="M192.05,313.64c-.54,1.81-1.09,3.62-1.76,5.85C190,316.65,190.54,314.65,192.05,313.64Z"/>
    <path class="cls-1" d="M289.32,296.72l1.47-.93c.42,1,.8,1.82,1.25,2.86C290.49,299,290.21,297.55,289.32,296.72Z"/>
    <path class="cls-1" d="M192.41,317.82c.25-.81.42-1.36.71-2.33l1.57,2.33Z"/>
    <path class="cls-1" d="M275,299.14a9.22,9.22,0,0,1-1.15-.24c-.17-.06-.29-.24-.34-.58l1.35.48C275,298.82,275,299,275,299.14Z"/>
    <path class="cls-1" d="M235.05,324.5l-1,.64c-.07-.13-.23-.34-.19-.38.23-.28.52-.52.78-.78Z"/>
    <path d="M349.11,154.86c.17-1.22.31-2.45.51-3.67a2.39,2.39,0,0,1,2.61-2.15c1.25,0,2.5,0,3.74-.11a16.72,16.72,0,0,0,2.06-.42,1.67,1.67,0,0,0,1.44-2c-.15-1.62-.36-3.26-.39-4.89a42,42,0,0,1,.2-5.83c.25-2.07,1.14-2.61,3.23-2.38a5.27,5.27,0,0,1,5.07,4.36c.69,2.55,1.38,5.11,2,7.68a12,12,0,0,1,.22,6c-.3,1.16.14,2.35-.38,3.61a7.05,7.05,0,0,1-1.87,2.84,23.21,23.21,0,0,1-9.1,5.08c-2.17.59-2.64.4-3.7-1.62a1.75,1.75,0,0,0-1.8-1.13c-2.77.09-3.6-.73-3.69-3.44,0-.62,0-1.24,0-1.86Z"/>
    <path d="M370.89,131.92c.24-.63.29-1.51.75-1.84a35.26,35.26,0,0,1,9.9-5.56c.13,0,.29,0,.66.11a5.42,5.42,0,0,1-.84,1c-3.06,2-6.12,4-9.21,5.9a4,4,0,0,1-1.33.33Z"/>
    <path class="cls-1" d="M356.71,120.42c-.77,0-1.53,0-2.29,0-1.6.11-2,.52-2.3,2.09-.07.46-.05.93-.11,1.4s-.13.75-.21,1.18c-5.16,1.06-10.49.06-15.87,2.11.5-2,.84-3.69,1.37-5.27a2.12,2.12,0,0,1,1.35-1.09c2.18-.57,4.48-1.62,6.58-1.34a25.59,25.59,0,0,0,7.16-.18c1.4-.21,2.9.28,4.36.46C356.73,120,356.72,120.21,356.71,120.42Z"/>
    <path class="cls-1" d="M321.36,174l-19.66.55a133.15,133.15,0,0,1,19.64-1Z"/>
    <path class="cls-1" d="M192.53,181.63c-.19,1.66-.3,2.71-.44,4l-3.39.15-.18-.42Z"/>
    <path class="cls-1" d="M216.37,174.21h1.84v.1h-1.83Z"/>
    <path class="cls-1" d="M179.5,175.16l-1.78,2.47c.14-1.56.54-2.3,1.34-2.78Z"/>
    <path class="cls-1" d="M262.14,344.13c-.44,1.17-.71,1.95-1,2.7q-8.06,18.93-16.12,37.85c-.36.85-.55,1.85-1.74,2a.58.58,0,0,1-.17-.14c0-.05-.09-.15-.07-.19q9.13-20.74,18.3-41.47C261.39,344.66,261.63,344.56,262.14,344.13Z"/>
    <path class="cls-1" d="M252.91,380c5.5-10.77,12-21,16.87-32.13A45.65,45.65,0,0,1,265.65,359c-1.12,1.93-1.9,4.06-3,6-.83,1.47-2,2.74-2.89,4.18s-1.45,2.91-2.23,4.33c-.93,1.72-1.9,3.41-2.9,5.09a16.82,16.82,0,0,1-1.32,1.73Z"/>
    <path class="cls-1" d="M344.79,338.65c-4.81,0-9.61.07-14.42,0a2.49,2.49,0,0,1-1.4-.82c5.29-.25,10.55-.27,15.8-.15Z"/>
    <path class="cls-1" d="M272.32,338.57c-1.77-4,0-6.88,1.79-9.78-.26,1.52-.5,3-.78,4.57S272.72,336.53,272.32,338.57Z"/>
    <path class="cls-1" d="M259.15,374.36l2.29,5.26-2.64-1.09-1.35,1.79a10.17,10.17,0,0,1-.54-2.17c0-.4.4-.82.64-1.22C258,376.16,258.5,375.4,259.15,374.36Z"/>
    <path class="cls-1" d="M247.26,394.88c-1.27.47-2.55.89-3.78,1.44a2.9,2.9,0,0,0-1,1.07c-.51.73-.48.75-2,.18l3.92-4.14,2.81.8Z"/>
    <path class="cls-1" d="M237.68,396.69,242,388l.56.12c0,.77.2,1.72-.16,2.29-1.43,2.19-3.05,4.26-4.59,6.37Z"/>
    <path class="cls-1" d="M274.64,319.05c1.4-3.3,1.4-3.3,3.38-3.07-.16,1-.33,1.93-.54,3.2Z"/>
    <path class="cls-1" d="M269.09,340a13,13,0,0,1-1.69,5.49c-.14.28-.81.31-1.24.45l-.35-.43,2.78-5.75Z"/>
    <path class="cls-1" d="M277.21,325.18a65.4,65.4,0,0,1,7.66-.51l0,.68-7.66.46Z"/>
    <path class="cls-1" d="M247.92,385.11c.33-.94.52-1.49.81-2.34l1.42,1.68Z"/>
    <path class="cls-1" d="M268.64,358.58c.31-.66.61-1.33.92-2l.58.24c-.27.68-.53,1.36-.79,2Z"/>
    <path class="cls-1" d="M252.16,374.65c.22-.46.44-.93.67-1.39l.33.16c-.22.46-.44.93-.67,1.39Z"/>
    <path class="cls-1" d="M287.45,327.56l.65,0c-.13.05-.26.12-.4.16S287.58,327.63,287.45,327.56Z"/>
    <path class="cls-1" d="M164.83,197.86a13.66,13.66,0,0,1,2.24-7.29l.52.17-2.13,7.3Z"/>
    <path class="cls-1" d="M194.57,201.14h-4.14C191.49,200.35,191.88,200.34,194.57,201.14Z"/>
    <path d="M343.73,393.83c-.31.36-.58,1-1,1a32.75,32.75,0,0,1-3.72.35Q322,396.36,305,397.47c-6.38.41-12.78.74-19.16,1.11a1.24,1.24,0,0,1-.91-.25c3.93-.37,7.85-.79,11.79-1.09q15-1.19,30.1-2.27c3.43-.25,6.86-.31,10.29-.52,2.25-.13,4.49-.36,6.74-.55Z"/>
    <path d="M333.58,418.86c-6.45-5.89-11.18-13.37-18.09-19.52a3.17,3.17,0,0,1,2.63,1.05c1.08,1,2.16,2.05,3.14,3.16q5.73,6.51,11.38,13.08c.52.59.93,1.27,1.39,1.91Z"/>
    <path d="M339.94,406.82c-.19-.6-.37-1.2-.56-1.81l.32-.11c.21.58.41,1.17.61,1.75Z"/>
    <path d="M280.94,398.64l1.09.12-1.17.22Z"/>
    <path d="M270.22,382.11l-.8-3.79c1.13-.69,2.34-.23,3.49.08a33,33,0,0,0,9.28,1c.55,0,1.22.13,1.61-.13,1.78-1.21,3.76-.86,5.68-.89,11.72-.17,23.42.16,35.13.8,4.19.23,8.42-.36,12.63-.54a26.52,26.52,0,0,1,4.44.18c-2.35.95-4.95.52-7.61,1.19.38.86.72,1.66,1.12,2.57-1.15,1.15-2.6,1.11-4.09,1-2.09-.15-4.19-.32-6.3-.39-13.35-.45-26.69-.93-40.05-1.3-4-.1-8,.13-11.95.2C272,382.13,271.11,382.11,270.22,382.11Z"/>
    <path d="M273.11,372.08c6.24-.28,12.47-.52,18.71-.86,12.07-.64,24.15-1.34,36.23-2,3.43-.19,6.85-.4,10.29-.55,1,0,1.92.08,3.05.13-.38,1.24-1.17,1.08-1.8,1.11q-6.66.35-13.33.66c-12.55.59-25.1,1.21-37.66,1.74-4.13.17-8.27.11-12.41.1a28.62,28.62,0,0,1-3-.33Z"/>
    <path d="M342.22,377a5.25,5.25,0,0,1-1.11.44c-.78,0-1.56,0-2.34-.05-19.87-.79-39.74-1.59-59.61-2.52,20.61-.62,41.18.2,61.75,1.45C341.23,376.31,341.54,376.6,342.22,377Z"/>
    <path d="M276.57,390.21c2.7-.59,5.19-1.17,7.69-1.65a8.91,8.91,0,0,1,2.24.19c-1.46,1.89-3.26,1.43-4.73,1.74A8.46,8.46,0,0,1,276.57,390.21Z"/>
    <path d="M209.11,181.19a9.11,9.11,0,0,1-5.16,2.58,2.75,2.75,0,0,1-2.11-.53c-.75-.64-.36-1.58,0-2.37,1.21-2.52,3.37-3.31,5.48-1.88A10,10,0,0,1,209.11,181.19Z"/>
    <path d="M218,178.47a15.88,15.88,0,0,1,2,.74,1.22,1.22,0,0,1,.42,2c-1,1.5-4,2.88-5.73,2.53-.87-.17-1.7-.46-1.75-1.55a1.84,1.84,0,0,1,1.36-1.94c.56-.21,1.07-.54,1.61-.79Z"/>
    <path d="M277.21,357.2A589.91,589.91,0,0,1,342.42,355a2.76,2.76,0,0,1-2.71.91c-6.56.06-13.12.05-19.68.16q-12.3.19-24.59.56c-4.29.13-8.58.42-12.87.59C280.79,357.26,279,357.2,277.21,357.2Z"/>
    <path d="M274.71,348.55c18.31-.16,36.65.72,55-.83-17.22-.78-34.47-.77-51.71-2.59l1.44-1.73c2.39.26,4.86.72,7.34.77,14.91.32,29.83.56,44.74.81,3.52.06,7,0,10.55,0,2,0,2,0,3.4,2-1.22,1.44-3,1.17-4.54,1.29-5.13.38-10.29.52-15.43.81-16.23.9-32.47.34-48.71.26-.69,0-1.37-.08-2.05-.12Z"/>
    <path class="cls-1" d="M221,153.09a21.68,21.68,0,0,1-3.46-.37c-.65-.17-1.59-.77-1.67-1.3-.52-3.18-1.4-6.45.9-9.39a3.77,3.77,0,0,1,3-1.58,2.35,2.35,0,0,1,2.49,2.14,2.34,2.34,0,0,0,.35,1.09c1.25,1.27,1.24,2.79,1,4.38A8.4,8.4,0,0,1,221,153.09Z"/>
    <path class="cls-1" d="M225.88,130.68c.06-1.38-.16-2.57.22-3.52a18.31,18.31,0,0,1,2.79-5.15c1.29-1.48,4.9-.24,5.41,1.71a2.19,2.19,0,0,1-.66,1.79c-1.44,1.25-3,2.34-4.55,3.51-.4.31-.92.59-1.11,1C227.5,131.06,226.76,130.68,225.88,130.68Z"/>
    <path class="cls-1" d="M235.36,131.6c.89-.84,2.64-1,5.9-.47-.14,1.25-1.12,2.08-2.17,1.75C237.82,132.49,236.57,132,235.36,131.6Z"/>
    <path class="cls-1" d="M224.23,140.32v2.43l-1.49-1.95Z"/>
    <path class="cls-1" d="M216.32,155.12h-1.66C215.06,154,215.06,154,216.32,155.12Z"/>
    <path class="cls-1" d="M84,91.3c.67-1.36-.13-3,2-2.89.26,0,.65-.77.84-1.24.5-1.28.92-2.58,1.44-4C90.11,86.08,88.49,89.26,84,91.3Z"/>
    <path class="cls-1" d="M67,51l-2.78,1.34c.15-1.77.51-2,2.59-1.83Z"/>
    <path class="cls-1" d="M62.26,51.63l.31,1.67c-.37-.08-.55-.06-.63-.14C61.51,52.68,61.17,52.17,62.26,51.63Z"/>
    <path class="cls-1" d="M227.82,156.06c1.3,3,1.25,3.16-1,3.3C227.08,158.36,227.37,157.45,227.82,156.06Z"/>
    <path class="cls-1" d="M104.26,371h6.83v.3h-6.83Z"/>
    <path class="cls-1" d="M100.54,372l1.37-.54.13.29-1.28.65Z"/>
    <path d="M309.36,296.24H306.8c.23-.48.31-.95.54-1C308.09,294.89,308.32,295,309.36,296.24Z"/>
  </g>
</svg>
