<svg id="Layer_1" data-name="Layer 1" xmlns="http://www.w3.org/2000/svg" viewBox="0 0 367.7 422">
  <defs>
    <style>
      .cls-1 {
        fill: #fff;
      }
    </style>
  </defs>
  <g>
    <path d="M452.49,345.11c-.45-1.22-.89-2.44-1.35-3.66a124.41,124.41,0,0,1,20.88-.77c-.29-3.26-.58-3.52-3.26-3.58-5.28-.11-10.57-.28-15.86-.41-.52,0-1,.08-1.69.13v4.7a14.54,14.54,0,0,0-1.22,1.93c-.66,1.55-1,3.24-2.56,4.33-.65.45-.83,1.57-1.27,2.47-1.52-.69-2.35-1.54-2.09-3.14a1.45,1.45,0,0,0-1.06-1.85c-1.19,1-.25,1.71.39,2.41-.8,2.11-1.34,4.31-3.33,5.67-1.06-1.19-1.06-1.19.65-3.36-2-2.14-2-2.14-4.55-1.82a10.62,10.62,0,0,0,.23,2.34,8.15,8.15,0,0,1,.25,4.38c-.3,1.44-.38,2.94-.62,4.4-.14.8-.43,1.57-.77,2.78-1.44-2.13-.54-4-.62-5.2-1.09-1-2.06-1.49-2.53-2.31a5.39,5.39,0,0,0-4.64-3,43.47,43.47,0,0,1-7.06-1.63c-1.29-.36-1.32-.54-2.07-2.56l3.22-1.21c-.42-.32-.79-.82-1.11-.8a34.09,34.09,0,0,0-9.62,2.27l2.58,2.45-.15.42-3.95-.62a39.61,39.61,0,0,0-.47,6.49c0,1.52,1.28,1.5,2.38,1.74a1.63,1.63,0,0,1-1.8,1.57A2,2,0,0,1,407.5,358c-.46-1.89-1-3.78-1.3-5.7-.62-3.86-1.12-7.72-1.64-11.59a3.51,3.51,0,0,1,.27-1.87l1.61,6.25.44-.1c-.32-2.94-.66-5.88-.95-8.82-.59-5.82-1.36-11.64-1.68-17.48-.51-9.63-.69-19.29-1.09-28.94-.18-4.6-.49-9.19-.81-13.79-.21-3-1.1-3.51-4.29-2.5.33.42.62.8.95,1.24-1.2,1.71-3.14,1.2-4.86,1.71,0,1.74-.53,3.47.74,5.07a3.15,3.15,0,0,1,.22,1.82c-.08,2.81-.31,5.61-.29,8.42.05,8,.2,16.09.32,24.13a6.1,6.1,0,0,0,.16,1l3.62.67v.31h-3.63a21.21,21.21,0,0,0-.16,2.14q.35,12.16.73,24.34a4.62,4.62,0,0,1-.76,3.25c-.26,0-.46.13-.55.07-2.61-1.87-4.74-4-4.92-7.53-.3-6-.79-12-1.19-18-.09-1.46-.16-2.93-.26-4.68-20.74.48-41.28-1.16-62.12-1.71-.21,2.34-.52,4.65-.6,7-.34,9.53-1.77,18.95-2.74,28.42-.47,4.5-.71,9-1.07,13.53-.12,1.48-.2,3-.44,4.43a4,4,0,0,1-.86,1.83c-1.29,1.54-1.7,1.56-3.86.34v2.08c-1.19-.22-1.41-1.12-1.39-2.11.07-3.74,0-7.5.31-11.22.87-10,1.57-20.07,1.69-30.16.16-13.35.76-26.71,1.25-40.06.21-5.61.61-11.23,1-16.84.09-1.4.3-2.79.52-4.18.14-.93.19-.93,1.72-1.52a22.77,22.77,0,0,1,0,2.31c-.31,3.66-.74,7.3-1,11-.38,5.68-.76,11.38-.92,17.07-.29,9.77-.45,19.53-.58,29.3-.14,11.41-.93,22.78-2,34.13-.21,2.1-.24,4.21-.3,6.32a16.84,16.84,0,0,0,.17,2c2.39.11,2.8-.14,2.79-2.13a178.66,178.66,0,0,1,1.37-18.92,4,4,0,0,0-.54-2.6,4.74,4.74,0,0,1-.71-4.24c.62-2.32,1.47-4.59,2.21-6.88a6.65,6.65,0,0,0,.44-1.55c.38-5.53.68-11.06,1.08-16.59.5-6.93,1-13.86,1.64-20.77.55-5.83,1.34-11.64,2-17.45.09-.85.11-1.7.17-2.59l-1.7-.35c.19-.33.26-.64.41-.69,1.43-.49,1.69-1.51,1.71-2.93a31.8,31.8,0,0,1,1.46-9.92c.23-.67.13-1.63,1.31-1.84.69.62.25,1.37.15,2.09-.38,2.85-.82,5.7-1.08,8.57-.15,1.69.79,2.52,2.52,2.31,11.68-1.44,23.41-.51,35.11-.76,6.48-.14,13-.08,19.45-.1a3.82,3.82,0,0,0,2.59-.82,2.64,2.64,0,0,1,3.63-.05,2.58,2.58,0,0,0,1.48.52c1.93.06,3.87,0,6.08,0-.21-2.64-.44-4.93-.56-7.23s-.14-4.64-.22-7.29c-1.15,0-2,0-2.79,0-1.33.05-2.65.22-4,.2a4.13,4.13,0,0,0-3.16,1.24l2.65,1.39c-.95,1.6-2.25,1.64-3.6,1.62-5.78-.09-11.56-.19-17.34-.22-11.26-.05-22.49.46-33.71,1.4a22.13,22.13,0,0,1-3.73,0c-.38,0-.7-.63-1.05-1,.34-.25.66-.68,1-.72,2.63-.31,5.26-.55,8.07-.82L339.8,258c-6.41-.62-12.61-1.21-18.8-1.83-.2,0-.37-.24-.78-.54l3.33-.5.5-2.15c1.45-1.36,3.18-1.55,5.11-1.61,8.74-.24,17.48-.67,26.22-1,3.59-.12,7.18-.08,10.78-.1,1.39,0,2.69.18,3.07,1.89,2.15,0,4.17,0,6.2,0,7,0,14.07.07,21.1.17a52.72,52.72,0,0,1,6.77.45,21.66,21.66,0,0,1,3.93,1.38c-.3,1.73-1.87,1.39-2.8,2.17l.93,1c-1.33,1-2.62.48-4.16-.12.08,1.5.11,2.87.23,4.23.23,2.64.51,5.28.78,7.92a7.45,7.45,0,0,0,.29,1.1,12.49,12.49,0,0,1,.7,2.39,60.87,60.87,0,0,0,1.18,9.28,41,41,0,0,1,.6,7.46c.39,7.88.63,15.77,1.13,23.64s1.22,15.42,1.87,23.12a18.22,18.22,0,0,0,.49,2.16c.84-.6,1.7-.94,2.11-1.58,1.21-1.88,3.06-2.6,5.05-3.11s4.25-1,6.52-1.47c-.59-2.54-1.23-5-1.72-7.49a51.44,51.44,0,0,1-1.11-7.16c-.35-7.25-.71-14.51-.71-21.77,0-7.58.39-15.15.66-22.73a43.82,43.82,0,0,1,.53-5.36,20.56,20.56,0,0,1,1.06-3.12,16.51,16.51,0,0,0-5.84,2.31,14.15,14.15,0,0,0-2.72,2.21,5.36,5.36,0,0,0-1.79,3.87c.08,2,0,4.07.27,6.08a29.83,29.83,0,0,1-.11,10,22.24,22.24,0,0,1-.37,2.24V275.1a3.73,3.73,0,0,1,0-.47c.33-1.65-1.16-3-.57-4.83.5-1.56.1-3.41.1-5.13s0-3.43,0-5.15,0-3.44-.1-5.16c0-.92-.13-1.84-.22-3-.9,0-1.66,0-2.4,0a5.51,5.51,0,0,1-2.52-.33c-2.33-1.51-5-1.28-7.47-1.46-8.18-.61-16.36-1.17-24.55-1.53-7.34-.33-14.68-.44-22-.49-2.71,0-5.43.5-8.16.64-2.48.12-5,.06-7.47.09a54,54,0,0,0-13.69,1.59c-3.69,1-4.23,2.18-2.88,5.78-.45.68-1,.59-1.55.12a2.68,2.68,0,0,1-1-2.71,5,5,0,0,1,3.41-3.87,71.62,71.62,0,0,1,7.92-2c2.2-.41,4.46-.49,6.79-.73a7.05,7.05,0,0,0-1.73-5.45c-2.31-2.65-4.55-5.36-6.82-8a5.34,5.34,0,0,0-.79-.85c-4.16-3.13-6.94-7.34-9.51-11.76-2.15-3.71-4.58-7.27-6.8-10.94a60.06,60.06,0,0,1-3.71-6.76,11.36,11.36,0,0,1,.6-11.2,14.44,14.44,0,0,0,1.72-4.78c.89-4.26,2.87-7.89,7.09-9.89,2-1,4-2.14,5.93-3.22a11.05,11.05,0,0,1,7.55-.8c3.68.7,7.36,1.55,9.93,4.74a5.07,5.07,0,0,0,2.25,1.15c6.35,2.21,12.72,4.34,19,6.59a169.05,169.05,0,0,1,21.14,8.94c1.31.68,2.56,1.48,3.85,2.23.86.5.76,1.16.12,2,2.56,1,4.58,3,7.38,2.9a10.94,10.94,0,0,0,1.65,1.56,19.1,19.1,0,0,0,2,.63c3,1.33,5.9,2.72,9,4.14.59-1.61,2.16-2.13,3.81-2.28a58.2,58.2,0,0,1,7.69-.33,9.11,9.11,0,0,1,6.16,3.06c1,1.08.95,1.35-.65,2.5-4.13-4.83-9.44-4-15-3.14l.53,1.82c-1.85,1.19-3.49.41-5.12-.34-3.19-1.47-6.39-2.92-9.53-4.5a2.29,2.29,0,0,0-3.11.44c-.7.74-1.47,1.41-2.16,2.14a2.75,2.75,0,0,1-2.38,1.17c-.8-2-.78-2.13.62-3.13,1-.72,2-1.39,3.31-2.27-1-.56-1.59-1-2.26-1.33l-21.11-11.69-1.44-.79a3.54,3.54,0,0,0-4.29.19,29.71,29.71,0,0,1-4.52,2.36c-.75-2.1-.75-2.1,3.56-4.17-1.05-.87-2.07-1.34-3.38-.71a2.18,2.18,0,0,1-.9.23,65.37,65.37,0,0,0-12.32,1.36c-.19,0-.41-.14-.91-.34,1.37-1.56,3.2-1.6,4.8-2.06a31.26,31.26,0,0,0,5-1.52c-.77-.33-1.52-.68-2.29-1-3-1.21-6-2.31-8.89-3.64a35.83,35.83,0,0,1-5.67-3.25,13,13,0,0,0-8.88-2.27,11.38,11.38,0,0,0-4.07,1.6c-1.4.77-1.58,1.74-.81,3.14.32.58.78,1.09,1.48,2.06a6.46,6.46,0,0,1-3.2-3.41c-6.3,1.1-9.41,6.63-8.69,12.34.14,0,.36,0,.43-.05,2.2-2.76,5.24-2.88,8.32-2.45a52.12,52.12,0,0,1,7,1.62,17,17,0,0,1,3.05,1.63c2.16-1.35,4.21-.81,6.43.78A9.7,9.7,0,0,0,339,192.6a22.11,22.11,0,0,1,7.07,1.5,10,10,0,0,1,1.82,1c1.53,1.12,1.58,1.62.45,3.22a7,7,0,0,0-.41.74c.54,1.25,1.7,1.13,2.63,1.37,5.9,1.52,11.84,2.89,17.7,4.53,3.9,1.09,7.72,2.52,11.55,3.86a4.74,4.74,0,0,1,3.07,2.12l-3.2,3.61,5.11,2.61c.19-.18.39-.28.4-.39.33-2.87,1.86-3.1,4.4-2.85a17.4,17.4,0,0,1,4.05,1.06,3.92,3.92,0,0,1,2.81,3.41,30.17,30.17,0,0,0,.88,3.15c.5,2.18,1.91,3.27,4.23,3.58.34-.73.72-1.48,1-2.26q2.67-6.89,5.3-13.78c.27-.71.31-1.61,1.7-1.38a7.28,7.28,0,0,1-.13,1.69c-.79,2.61-1.61,5.22-2.48,7.81q-2.33,6.88-4.71,13.74c-.36,1-.39,1.85,1.18,2a15.43,15.43,0,0,0,.57-1.62c.51-2,.95-4.1,1.5-6.14a5,5,0,0,1,5.11-3.83c2.23,0,2.83.51,3.31,2.68.18.81.36,1.62.66,2.94.56-1.33.9-2.18,1.28-3,1.48-3.26,2.89-6.56,4.5-9.76a11.33,11.33,0,0,1,2.45-2.79,2,2,0,0,1,2.37-.26c.5,1.6-1,2.42-1.4,3.82,3.52,1.46,7,2.92,10.76,3.07,2.66.11,4.48,1.37,6.22,3.74a6.8,6.8,0,0,1-1.88-.39,11,11,0,0,0-4.93-1.29c-3.31-.29-6.33-1.62-9.35-2.91-.86-.37-1.69-.77-2.65-1.21a12.16,12.16,0,0,0-2.79,8.86c.23,2.47.22,5,.33,7.45,0,.62.07,1.24.11,2,1.68.64,3.31,1.35,5,1.87a10.06,10.06,0,0,1,4.88,3.48c1.43,1.76,3.24,1.46,5,1.82l.23-.6c-.83-.32-1.67-.62-2.49-1-2-.82-4.12-4.76-3.55-6.77a2.31,2.31,0,0,1,1.33-1.43,26.83,26.83,0,0,1,4.82-.62,19,19,0,0,1,3.14.4,26.06,26.06,0,0,1,.74-2.51c.84-2.09,1.68-4.19,2.65-6.22a3,3,0,0,1,2.63-1.71c.67,0,1.31.16,1.31,1s-.2,1.35-1.15,1.41c-.45,0-1.11.18-1.3.5a15.77,15.77,0,0,0-2.26,7.73,1.47,1.47,0,0,0,2.23-.75c.74-1.38,1.48-2.75,2.34-4.06.61-.93,1.43-1.69,2.73-1.23,1.73,2.15-.36,4.12-.38,6.07l4.94,2.17c1.2-1.14,2.69-2.48,4.1-3.91a2.17,2.17,0,0,1,2.77-.32,2,2,0,0,1,1.08,2.69,14.33,14.33,0,0,1-.77,1.7c-.26.55-.56,1.08-.9,1.74,1.28.41,1.93,0,2.24-1.1q1-3.36,1.91-6.74c.17-.62.32-1.26.49-1.94a1.69,1.69,0,0,1,1.38,2.11c-.25,1.54-.56,3.07-.87,4.6-.17.83-.42,1.64-.69,2.68a19.47,19.47,0,0,1,2.78.5,20.2,20.2,0,0,1,2.63,1.28c2.08-4.05,1.83-8.08.08-12.13,1.73-.39,2.21-.21,2.68,1.25a14,14,0,0,1,0,9.65,30.44,30.44,0,0,1-8.44,12.22,46,46,0,0,0-4.57,4.59,13.8,13.8,0,0,1-2.06,1.91c-1.68,1.3-2.53,1.2-4.08-.21a7.9,7.9,0,0,0-1.73-1.09c-.54-.28-1.14-.46-2-.8-.28,6.12-1,12.11-.41,18.45a39.27,39.27,0,0,1,5-.28,31.66,31.66,0,0,1,4.47,1l-.43,1.3,2.4.68V272c.24,0,.42-.13.5-.07.26.17.45.47.72.58,4.19,1.73,6.2,5.6,8.66,9a13.63,13.63,0,0,1,1.75,4.78c.72,3,1.25,6,1.84,8.95,1.9,9.76-.63,18.15-8.17,24.72a60.93,60.93,0,0,1-8.56,5.7,9.63,9.63,0,0,1-3.55,1.05,1.75,1.75,0,0,1-2.2-1.71,12,12,0,0,0,8.51-3c-1.21-1.18-2.8-2.1-3.36-3.45s-.13-3.17-.13-4.63c-2.46-.23-4.92-.43-7.38-.72a1.41,1.41,0,0,0-1.78,1.35c-.3,1.93-.5,3.88-.87,5.79a57.78,57.78,0,0,1-1.48,6.14,10.14,10.14,0,0,0-.29,5c.54.21,1.12.41,1.68.64a8.84,8.84,0,0,1,2.77,1.22c2.17,2.05,4.82,2,7.46,2,7.5,0,15,0,22.5-.07h4.67c-1.83,1.76-3.69,1.36-5.35,1.56s-3.4.18-5.48.28c.48,1.37.85,2.44,1.22,3.52,3.24.63,6.57.36,9.53,2-2.86,1.21-5.8-.38-8.93.26.26,1.89.57,3.7.76,5.53.77,7.22,1.63,14.43,2.22,21.67.91,11.29,1.45,22.61,2.49,33.88C479.77,410,481,416,482,422H481c-1-6.78-2.44-13.52-3.07-20.34-1.08-11.72-1.58-23.5-2.53-35.24-.58-7.3-1.49-14.57-2.32-21.85-.23-2-.42-2.18-2.53-2.21-4.14-.06-8.27-.08-12.41,0-1.85,0-3.69.35-5.68.56ZM388,292.39c.52-5.38-.42-10.5-.53-15.86-1.14,0-2,0-2.84,0-4.84-.06-9.68-.19-14.52-.16-6.63,0-13.27.18-19.9.31-1.09,0-2.17.29-3.25.4-3.1.3-6.24,1.22-9.19-.65a1.44,1.44,0,0,0-.69-.11h-7c-1.1,5.77-4,35.77-3.67,38.11,2.57.62,59.67,2.39,61.59,1.91.49-3.16.21-21.27-.35-22.72-.83,0-1.66.05-2.49,0a27.41,27.41,0,0,0-3-.38c-5.86.12-11.71.37-17.57.48-9.52.17-19,.27-28.57.38a7.39,7.39,0,0,1-1.38-.24l.05-.47c1.14-.07,2.27-.2,3.41-.23,9.53-.19,19-.28,28.58-.58C373.75,292.32,380.75,291.82,388,292.39Zm66.12,19.15a2.71,2.71,0,0,0,3.54-1.46,34.36,34.36,0,0,0,3.06-7.3A15.43,15.43,0,0,0,457,288.62a11.33,11.33,0,0,0-8.63-3.93v6.84h2.47c.44,2,.75,4,3.12,4.5.06,0,.12.1.15.17.87,1.65,1.82,3.27,2.58,5,.5,1.12.67,2.39,1.11,3.54a4.74,4.74,0,0,1-2.07,6C455.18,311,454.64,311.28,454.12,311.54Zm-26,25.54c-1.08-.76-2-1.53-3.08-2.16a3.84,3.84,0,0,0-2.09-.77c-2.85.36-5.7.86-8.52,1.41-2.23.45-3.18,2-3.35,4.2-.07.76-.15,1.52-.21,2.16l-2.16,1c.11,1.11.21,2.13.34,3.48,5.53-2.61,11.13-3.45,16.78-4C425.2,339.43,425.25,339.32,428.11,337.08Zm-38-37.24h.33c0-1.79,0-3.57,0-5.36s.14-3.57.11-5.36.35-3.42-.37-5.56c-.33.55-.55.75-.55.93Q389.91,292.16,390.15,299.84Zm53-51.44-1.32,1.89c1.81.17,1.78.19,3,1.51a17.88,17.88,0,0,0,1.83,1.41C447.16,250.16,447.14,250.13,443.15,248.4Zm-8.76,85.23c-3.72-.88-3.66-.2-4.73,3.13C432.15,337,433,335,434.39,333.63Zm-4.82,11.74a6.56,6.56,0,0,0-4.59-.22C426.7,346.68,428.14,345.83,429.57,345.37Zm39.33-33.5c1.84-2.13,1.92-2.81.51-3.38ZM439.27,246.7l2.5-.21-.84-1.94ZM392,335.55l-.52,0c0,1,.09,2,.14,2.95l.57,0C392.12,337.51,392.06,336.53,392,335.55Zm56.26-62.09h2.25C449.84,272.18,449.84,272.18,448.26,273.46ZM459.41,310l.49.25.71-1.48-.43-.2ZM403.74,237.7l-.14-2-1.26,1.43Zm8.3.14-.32-.55-1.44.86.24.39Zm-31.42-41.38-.07.26.75.22.07-.25Zm65.87,84.77h.14v-1h-.14Zm3.15,30.13,0,.4c.12.08.28.25.35.22a3.63,3.63,0,0,0,.62-.43Zm-3.57-23.56h.12l0-.75h-.16Z"/>
    <path d="M146.42,362.53c.77-1.3-.18-2.17-.84-3.45-4.21,1.12-8.41,2.26-12.61,3.37q-7.12,1.88-14.27,3.7c-2.42.62-4.87,1.11-7.29,1.73q-15.66,4-31.62,6.61a1.16,1.16,0,0,1-1-.31c2.85-.67,5.7-1.32,8.55-2l24.13-5.74c2.36-.56,4.7-1.56,7.06-1.59,3.35,0,6.37-1.19,9.51-2A22.8,22.8,0,0,0,131,362a56,56,0,0,1,11.93-3.31c2.24-.33,2.36-.58,2.22-2.73a8,8,0,0,0-4.32.33c-6.35,2-12.94,2.85-19.5,3.81A303.59,303.59,0,0,0,88,366.58,52.73,52.73,0,0,1,81.81,368c.91-.41,1.8-.89,2.74-1.21a187.41,187.41,0,0,1,27-6.69,16.46,16.46,0,0,0,5.37-1.43,13.69,13.69,0,0,1,3.38-.92c4-1,8-2,12.05-3a12.81,12.81,0,0,0,1.93-.93,5.66,5.66,0,0,0-3.66-.24c-2.67.59-5.34,1.18-8,1.83-1,.25-2.17.23-2.79,1.44-.17.32-1,.38-1.49.46-4.94.75-9.87,1.53-14.82,2.21a169.26,169.26,0,0,0-21.28,4.21l-2.8.76,1.54,1a.18.18,0,0,1,0,.12.39.39,0,0,1-.22.08c-1.29.16-2.93-.1-3.78.59-.69.57-.44,2.29-.62,3.49,0,.3-.17.58-.33,1.16-.42-.42-.87-.67-.92-1a16.82,16.82,0,0,1-.11-2.56q0-35.52,0-71c0-7.43,0-14.85,0-22.27a21.06,21.06,0,0,0-.51-3.21,8.33,8.33,0,0,0,.52-2.12c0-9.85,0-19.69.06-29.54v-2.57c5.41.29,10.52.53,15.62.83,9.74.59,19.48,1.32,29.23,1.77,6.86.31,13.74.31,20.61.32,4.6,0,9.21-.24,13.81-.32,1.13,0,2.26.14,3.62.24-.74,1.55-1.85,1.34-2.79,1.35-8.67.07-17.34.17-26,.12-7.26-.05-14.53-.14-21.78-.52-6.32-.32-12.61-1.07-18.9-1.65-3.66-.34-7.31-.73-11-1.07a3.09,3.09,0,0,0-.86.14c-.56,2.05-.5,46.87.09,48.95,2,0,4,0,6,0a1.15,1.15,0,0,0,.84-.29c1.35-1.88,3.37-1.79,5.3-1.77,4.84.06,9.68.3,14.52.28,5.22,0,10.44-.25,15.67-.42a37.21,37.21,0,0,1,11.62,1c1.83.52,3.55.08,5.32,0l7.71-.5c.38,0,.75-.13,1.19-.2.1-1.53,0-3.08,1.41-4.05.1-.06.13-.28.12-.43,0-3.42,1.79-6.6,1.14-10.16-.26-1.39.46-3,1.15-4.48.16.6.31,1.21.5,1.94.32,0,.78,0,.86-.15a4.69,4.69,0,0,0,.44-1.48c.31-2.39.54-4.8.9-7.18a8.18,8.18,0,0,1,3.29-5.51c2.71-2,5.54-3.77,8.41-5.51a7.69,7.69,0,0,1,2.9-.72c.23,0,.8.49.76.66-.07.37-.41.94-.7,1-4.77.65-8.09,3.88-11.54,6.71-2.44,2-3.65,9.67-2.1,12.5,2.1,3.81,4.46,7.48,6.72,11.21.62,1,1.43,2,.7,3.84l-3-4.19c-.18,2.32,1,4,2.22,5.85l1.17-1c.2.12.47.18.58.35a6.47,6.47,0,0,1,.9,1.62c1.31,4.4,1.47,8.77-.71,13a21.22,21.22,0,0,1-1.84,3c-3.12,4.19-5,9-6.91,13.78-1.69,4.25-1.78,8.69-1.56,13.16.06,1.32.31,2.65-.52,3.86-.2.29-.34.91-.18,1.1,1.33,1.6.83,4.11,2.87,5.42a3.59,3.59,0,0,1,1.09,2.44,11.11,11.11,0,0,0,1.61,4.59,39.2,39.2,0,0,0,8.74,10.62,18.51,18.51,0,0,0,12,4.6c1.49,0,3.14-.3,4.13,1.42.19.33,1,.32,1.53.43a55.64,55.64,0,0,0,20.26.35c4.86-.78,9.75-1.35,14.59-2.21a101.36,101.36,0,0,0,24.38-7.25c2.2-1,4.48-1.85,6.69-2.83s4.59-2,7.33-1.66c.41-1.17.77-2.24,1.18-3.42l-2-.16c0-.36-.09-.64,0-.78a8.34,8.34,0,0,1,1.08-1.22,21.52,21.52,0,0,0,6.49-12.7A26,26,0,0,0,257.89,312c-1.14-1.72-2.29-3.43-3.29-5.23,4.38,3.77,7,8.63,8.51,14.45A27.45,27.45,0,0,0,274,318.38c-.06-1.07-.63-2.45,1.35-2.28.19.49.38,1,.58,1.46a4.73,4.73,0,0,0,.74-.18c5.3-2.09,8.83-6.33,12.46-10.39a17.32,17.32,0,0,0,3-5.23,37.82,37.82,0,0,0,2.61-8.72c.5-3.82,1.24-7.68.58-11.59a44.76,44.76,0,0,0-4.08-12.17c-.27-.55-.48-1.14-1.32-1-.22,0-.52-.3-.72-.52-3.42-3.78-5.54-8.09-5.49-13.31a13.88,13.88,0,0,0-.4-3.2,3.6,3.6,0,0,1,.84-3c1.17-1.67,2.44-3.26,3.52-5a16,16,0,0,0,2.56-8.88,7.27,7.27,0,0,0-1.83-5,5.45,5.45,0,0,0-4.54-1.67c-1.58.17-2.17,1.27-2.67,2.59-.6,1.6-1.33,3.16-2,4.72a2.8,2.8,0,0,1-.73.88c-1.43,1.21-2.87,2.41-4.34,3.57a3.63,3.63,0,0,1-3.5.83,2.1,2.1,0,0,1-1.53-2c-.94-5.7,1.12-11.05,1.74-16.55.64-5.67,2.68-11.05,4.3-16.51s3.09-11,4.62-16.45a1.2,1.2,0,0,0-.12-.94L278,191.69l0,0c.68-2.68,1.37-5.37,2-8.06.18-.73.27-1.5.4-2.25l-.08.11,1-3.4-.05.11,1.44-5.48.87-3.1q1.47-4.91,2.93-9.82a4.89,4.89,0,0,1,1-2.15c-.35,1.86-.66,3.74-1.07,5.59-2.18,9.91-4.32,19.83-6.62,29.71-1,4.33-2.35,8.58-3.57,12.85-2.05,7.2-4.28,14.36-5,21.87-.08.8-.58,1.69.48,2.28.15.07.15.42.2.65.34,2,.69,3.92,1.08,6.16-.43.37-2,.24-1.47,2,.34-.05.8,0,1.05-.16,2.55-2,5.46-3.7,6.47-7.15a21.49,21.49,0,0,1,1.19-2.53c1.76-4.07,6.2-3.8,8.86-1.05a12.58,12.58,0,0,1,1.43,2.13c.25.39.32,1,.65,1.22,2.19,1.61.86,3.43.37,5.19-.12.43-.45.81-.56,1.24a29.38,29.38,0,0,1-5.13,10.7,5.48,5.48,0,0,0-1.13,3.48,20.17,20.17,0,0,0,1.18,7.82c.64,1.48,1.09,3.11,2.78,3.87.32.15.53.57.73.9,1.35,2.29,2.8,4.52,4,6.89,1.36,2.7,2.38,5.53,4.08,8.11,1.85,2.81,1.2,5.94.2,8.93l-.5,0v-6.24h-.48c-.15,2.22-.25,4.45-.46,6.66a51,51,0,0,1-4,15.35,21.34,21.34,0,0,1-5.41,7.29c-.91.85-1.84,1.67-2.88,2.6l3.94.81,1.14-2.76v2.16c.3-.1.55-.11.66-.24a45.3,45.3,0,0,0,8-15,33.86,33.86,0,0,0,1.81-14.53,5,5,0,0,1,.14-1.37c0-.09.23-.15.54-.35a24.79,24.79,0,0,1,.51,8.3,47.14,47.14,0,0,1-8.6,21.79c-1.18,1.63-2.4,3.24-3.7,5,1.74.69,3.36,1.31,5.16.43a3.19,3.19,0,0,1,1.33-.39c3.51-.11,7-.22,10.54-.25,2.1,0,4.21.12,6.32.2.74,0,1.47.1,2.21.15l.1.56a4.8,4.8,0,0,1-1.5.58c-6.32.2-12.64.42-19,.48a25.32,25.32,0,0,1-4.84-.74c-1-.19-1-.24-1.8.71,2,1.08,3.83,2.64,5.94,3.09A4.73,4.73,0,0,1,296.4,325c.84,1.37.32,2.55-1.29,2.66a8.76,8.76,0,0,1-3.37-.6c-1-.34-2-.73-2.12-2.18,0-.44-1-.82-1.55-1.22-1-.71-2.45-.81-2.68-2.32-.21,0-.39,0-.49.07-3.11,2.29-3.13,2.32-.11,4.79s5.87,4.67,8.75,7.06c1.3,1.08,2.46,2.3,3.82,3.58-.07,0,.11.07.23,0,2.64-1.23,4.12-1,6.08,1a5,5,0,0,1,.9,6c-.85,1.79-2.06,2.46-4,2a8,8,0,0,1-4.79-3.17c-.56-.8-.56-2-.83-3.08L287,332.79l-8-6.94c-2.37.57-5.08,1.22-7.8,1.84a4.32,4.32,0,0,1-1.38.13c-1.07-.12-2.12-.4-3.19-.45-1.29-.05-2.48-.08-2.62-1.9-.12.31-.37.63-.35.93a23.7,23.7,0,0,1-4.35,15.83,9.56,9.56,0,0,1,.79,2.35,12.68,12.68,0,0,1-.45,2.81c1.28-.85,1.09-2.9,3.06-2.13v-4.34c1.25.35,1.23,1.21,1.31,2,.26,2.78-.49,5.41-1.16,8.07-.36,1.42-.59,2.88-.9,4.32a8.8,8.8,0,0,1-2.36,4.74c-2.79,2.71-5.51,5.48-8.54,8.51l8.44-3.87.21.37L250.35,371a17.24,17.24,0,0,0-2.17.72q-3.17,1.53-6.27,3.17c-8.2,4.3-16.65,8-25.86,9.35-6.4,1-12.85,1.56-19.3,2.16-2.86.27-5.76.11-8.65.19-.58,0-1.53.08-1.66.39-.38,1-1.09.74-1.74.74a23.65,23.65,0,0,1-2.8-.15,7,7,0,0,0-5.69,1.43,34.94,34.94,0,0,1-4.15,2.62c-15.52,9.2-30.91,18.59-45.92,28.59-.83.55-1.58,1.22-2.36,1.83H121.9c7.39-4.81,14.7-9.75,22.2-14.4,10.09-6.24,20.32-12.25,30.49-18.37.84-.5,1.65-1.07,2.57-1.66l-9.1-3.61a2.32,2.32,0,0,0-.46-.07c-1.44-.27-2.91-.45-4.33-.84-1.69-.47-3.35-1-5.18-.29.49-2.87.38-3.15-1-5.28-.61-1-.88-2.15-1.48-3.13a11.75,11.75,0,0,0-2.55-3.22c-.49-.36-1.76.14-2.62.45-4.7,1.66-9.39,3.37-14.08,5.09-2.3.85-4.57,1.81-6.88,2.65-1.69.61-3.44,1-5.12,1.65Q86.68,394.76,49,408.6c-9.88,3.65-19.65,7.61-29.47,11.43-1.67.64-3.32,1.31-5,2H12.19c3.43-1.28,6.87-2.53,10.28-3.85,9.6-3.72,19.15-7.59,28.79-11.2,20.75-7.77,41.54-15.42,62.32-23.11,1.17-.44,2.35-.85,3.54-1.24a98.5,98.5,0,0,0,13.2-5.34,13.74,13.74,0,0,1,1.74-.7l18.58-6.33c.36-.12.7-.31,1.28-.57-.39-.66-.71-1.24-1.07-1.79-.9-1.38-1.83-2.73-2.72-4.1-.43-.66-.78-1.4-1.76-1.29Zm-18.9-10.62c-.06-.88-.09-1.49-.14-2.11-.27-3.57-.8-7.15-.77-10.72,0-6.32.42-12.63.63-18.95.1-3,.22-6.09.21-9.13s-.72-3.89-3.86-4.63c-.22-.06-.42-.21-.63-.29a11.33,11.33,0,0,0-2.78-1c-4.27-.36-8.55-.71-12.84-.84-6-.19-12-.06-18-.3-4.27-.18-8.52-.47-12.74.24V364c2.91-.92,5.66-1.41,8.68-2.63-5.8-1.32-6.67-1.72-7.59-3.59a12.21,12.21,0,0,1,1.89.42,21.54,21.54,0,0,0,7.34,1.22c4.17.18,8.19-.77,12.26-1.37,3.77-.55,7.51-1.36,11.24-2.18C116,354.59,121.65,353.26,127.52,351.91Zm21.62-57.27-.54.18c0,.6-.11,1.19-.12,1.79-.06,1.87-.08,3.75-.14,5.62,0,.92-.25,1.8.5,2.65.29.32.18,1.23-.05,1.72-1.48,3.12-1.63,6.5-2,9.81-.55,5.09-.92,10.21-1.39,15.5,1.81.46,1.76,1.84,1.53,3.41-.36,2.47-.52,5-.88,7.44-.18,1.24.32,1.73,1.62,1.86a54.35,54.35,0,0,0,.66-14.21c-.34-3.66.18-7.28-.17-10.9a5.62,5.62,0,0,1,.34-1.82q1-3.85,2-7.69a5.3,5.3,0,0,1,.42-1.33,1.4,1.4,0,0,1,.89-.53c.16,0,.44.35.56.6a7.79,7.79,0,0,1,.3,1.46c1-2.05,1.7-3.6,2.51-5.1s1.73-3,2.6-4.52l-.67-.56a6.22,6.22,0,0,1-.77,1.39c-1,1.1-1.41,1.1-2.52.11-.35-.31-.62-.7-.94-1a1.22,1.22,0,0,0-.41-.14l-1.11,1.59c-1.52-1.66-1.1-3.37-.58-5.1Zm2.14,71.52.45-.21c-.36-3.34-1.67-7.19-2.88-8.49-.43,1.39-.43,1.39-1.86,1.88Zm-21.94-24.75c.75-2.06,1.39-3.68,1.93-5.34.45-1.39.6-2.87,1.91-3.86.41-.3.51-1,.74-1.54a15,15,0,0,0-2.36,2.17,23.47,23.47,0,0,1-2.64,1.81c0,1.82,0,3.76,0,5.69A5.56,5.56,0,0,0,129.34,341.41Zm13.47-49.23a15.25,15.25,0,0,0-.55,2.1,5.09,5.09,0,0,0,.24,1.42,4.69,4.69,0,0,0,1.33-.57c.84-.71,1.6-1.51,2.57-2.45l-.37-1.43Zm-9.9,28.67-.4-.27c-3.62,3.07-4.06,4.09-3.15,7.69ZM147,353.18l-3.28-.35L140,354.74c2.5.23,6.11-.27,6.92-1C147.1,353.62,147,353.22,147,353.18Zm70.14,29.39-.14-.89a31.06,31.06,0,0,0-7.63,1.43l.09.56Zm83.65-44.23c1.81,3.07,1.81,3.07-.09,6,1.58,0,2.17-.45,2.57-2.15S303.15,339.49,300.83,338.34ZM76.53,294.2a7.63,7.63,0,0,0,.2,4.2l2.62-2.59Zm59.86,53.44a13.51,13.51,0,0,0,.3,5.22C138.5,350.28,138.47,349.27,136.39,347.64Zm-8.55,9.67a14,14,0,0,0,6.65-1l-.13-.59Zm-26.31-58.37c2.59.58,2.91.32,3.69-3Zm28.17-3.07.41.4,2.84-3.36C130.39,292.57,130.66,294.78,129.7,295.87Zm-30.86,1.79a7.37,7.37,0,0,0,3-2.71C99.24,294.79,99.17,294.86,98.84,297.66Zm50.73,21.28c-1.15,1.39-1.27,4.17-.64,6.67Zm-41.16-18.89c.7.24,1.18.55,1.33.43a4,4,0,0,0,1.52-3Zm-16-.46.47.52c2-.12,2-.12,2.2-2.27l-1.18.76Zm18.92-5.33c-2.46-.1-2.46-.1-2.87,2.5Zm17.1,13.1v-2.55l-2,.16Zm153.73,13.71a4.07,4.07,0,0,0,3.1-2l-.32-.36Zm-114.56,60a2.77,2.77,0,0,0,2.49,1.41C169.75,380.74,168.58,381,167.55,381.05Zm-38.36-36.2c.09.76.18,1.51.33,2.7C130.67,346.21,130.35,345.48,129.19,344.85Zm20.6-6.12c1.11-.64,1.11-.64.23-2.47Zm-5.92-31.6.6.22c.12-.53.25-1.07.35-1.61,0,0-.19-.12-.44-.26ZM136,294.69l-.37-.34c-.53.51-1.3.86-.82,2.06Zm25-3.92h.23v-1.59H161Zm109.7-57.06a2.17,2.17,0,0,0,.07-.6c0-.07-.25-.1-.38-.15a2.36,2.36,0,0,0-.15.58S270.46,233.63,270.67,233.71Zm-114,117-.37.22.62,1.16.41-.23Z"/>
    <path d="M0,239.13c.78,0,1.55-.15,2.33-.15,14.53-.11,29.06-.23,43.59-.26,1.95,0,3.63-.78,5.43-1.18a17.74,17.74,0,0,1,7-.28l.32,2c1.79,0,2,1.28,2.06,2.79.1,4.06.53,8.13.36,12.18-.55,13.43.23,26.85.21,40.28q-.06,38.08,0,76.17c0,2.2,0,4.39-1.41,6.24a12.53,12.53,0,0,1-2.18.43c-1.09,0-1.49.57-1.72,1.52-.3,1.26-.84,2.53-2.33,2.56s-2.12-1.16-2.46-2.43a26.88,26.88,0,0,1-.89-4c-.11-1.08,1.72-2.26,3.2-2.15a15,15,0,0,1,2.16.51V255.1a17.59,17.59,0,0,0-1.59,1.13c-2,1.79-3.86,3.65-5.85,5.4a7.78,7.78,0,0,1-2.36,1.42c-1.42.55-2.9.92-4.62,1.45a5.87,5.87,0,0,1-1-1.86c-.34-2.74-2-4.89-3.11-7.29a3.52,3.52,0,0,0-1.57-1.27c-2.35-1.22-4.78-2.3-7.08-3.59A3.58,3.58,0,0,0,25.9,250a30.16,30.16,0,0,1-4.37.79c-4.36.28-6.93,3-8.66,6.54a30.92,30.92,0,0,0-2.53,7.51,19.38,19.38,0,0,0,.13,6.26c.61,4.24,1,8.54,3.08,12.44a7.86,7.86,0,0,1,.3,2.67,2.31,2.31,0,0,0,2.88-.61,6.15,6.15,0,0,0-.64-.91,15.12,15.12,0,0,1-4.34-10.58c-.1-3,0-6.09,0-9.13a3.41,3.41,0,0,1,1.52-3.21,3.3,3.3,0,0,0,1-1.79,8.33,8.33,0,0,1,3.56-4.72c1.64-1.12,2.93-2.73,4.86-3.53,1.76-.72,3.3-1.3,4.8.58.45.55,1.55.67,2.38.81,4.21.73,6.49,3.64,7.73,7.33a44.93,44.93,0,0,1,1.93,8.91c.72,6-1.09,11.06-6,14.87a31.11,31.11,0,0,0-3.41,3.19A5.41,5.41,0,0,1,25,289.09a14.64,14.64,0,0,1-6.21-2.42,3,3,0,0,0-1.56,2.62,4.72,4.72,0,0,1-1.56,3.52c-2,2.31-3.94,4.65-6,6.92a27.37,27.37,0,0,0-5,7.87c-.29.72-.68,1.39-1.16,2.35L3,308.25c-1,.92-2,1.77-3,2.62Zm16.69,43.26,4.11,2.8c1.12-1.72,3.51.29,4.54-2-.33-.35-.65-1-1-1.07-2.72-.31-3.88-2.36-5.15-4.34-.29-.45-.7-1.15-1-1.16-1.7,0-1.51-1.24-1.66-2.27-.09-.56-.11-1.13-.19-2.09a5.73,5.73,0,0,0,.77,5.9,2.31,2.31,0,0,1,.29,2.6C17.11,281.21,17,281.66,16.69,282.39ZM28.41,266c-1.26-.92-2.22-1.36-3.75-.91a5,5,0,0,1,1.94,5,63.25,63.25,0,0,1-1.34,6.34c-.23.94-.61,1.84-.92,2.75,2-1.09,3.67-2.41,4.36-4.58a8.29,8.29,0,0,0-1.81-8.49h.79Zm-1.71-3.65c-.89-2-.89-2-2.14-2.26l1.54,1.77c-1.73-.18-3.17-.58-4.6,1Zm-.1,24.42c1.59.45,2-.66,2.75-1.55C27.85,285,27.23,285.73,26.6,286.79Zm-17.36,3.4c1.35-1.27,1.35-1.27.31-2.21Zm12.21-29.53c-1.41.07-1.41.07-2.24,1.9Z"/>
    <path d="M0,329.63a18.77,18.77,0,0,0,1.06-2.28c1-3.34,1.68-6.84,3.62-9.85a29.79,29.79,0,0,1,8.21-8.86A41.39,41.39,0,0,0,18,304.21c3.54-3.42,7.91-4.22,12.54-3.94a8.87,8.87,0,0,1,3.39,1.47c1.5.83,2.89,1.81,4.76,1.63a3.2,3.2,0,0,1,2.86,1.78q3.66,5.4,7.2,10.88a4.38,4.38,0,0,1,.63,2.64l-3.15-5.11c1.54,6.77,4.65,13.07,5.26,20.07l.52-.08-.38-5.14c1,1.07,1.07,2.43,1.35,3.72,1.74,7.88.71,15.67-.58,23.48a34.29,34.29,0,0,1-2.92,9.08,82.28,82.28,0,0,1-4.69,7.91,15.85,15.85,0,0,1-18,6.61,4.21,4.21,0,0,0-1.59-.36c-3,.28-5.71-.62-8.47-1.45a7.35,7.35,0,0,1-2.36-1C8.44,372,3.58,366.71,2.18,359.05c-.4-2.23-.79-4.46-1.26-6.67A20.48,20.48,0,0,0,0,349.79ZM11.93,371l-.34.37c.29.34.56.7.85,1,2.71,3,6.5,3.45,10.13,4.24,1.81.4,3.67.6,5.49,1,4.23.9,8.27.5,11.84-2.05a17.33,17.33,0,0,0,5.6-7.18l-1.5-2.5-2.72,1.74-1.68-1.9c-2.08,1.47-2.51-.48-3.53-1.86l-3.76,3.65-2.56-2.56a19.81,19.81,0,0,0-1.88.91c-2.11,1.35-4.27,2.25-6.8,1.12a4.78,4.78,0,0,0-1.62-.19,4.57,4.57,0,0,1-3.84-2.31c-.47-.76-1.06-1.45-1.92-2.6a6.8,6.8,0,0,0-.1,1.64c.36,1.26.73,2.53,1.2,3.75.86,2.25.64,3.57-1,5Zm15-57.15-7.54,3a12.05,12.05,0,0,0-6.41,7,3.82,3.82,0,0,0,2.72-2A6.75,6.75,0,0,1,20.61,319c1.78-.32,3.57-.45,5,1.12a3.19,3.19,0,0,0,1.51.58,8.29,8.29,0,0,1,5.81,5c.86,2,1.55,4.08,2.34,6.12,1.37,3.53,2.37,7.11,1.42,11a2.43,2.43,0,0,0,0,.93,13,13,0,0,1-1.31,7.5c-.77,1.62-1.66,3.18-2.48,4.77-.11.21-.18.43-.28.66l.78.45c-.28,1.2-1.66,2-1.67,3.53a18.7,18.7,0,0,0,6.3-9.07c.77-2.86,1.47-5.74,2.26-8.6A16.94,16.94,0,0,0,40,333c-.88-2.75-1.85-5.46-2.75-8.21A17,17,0,0,0,26.92,313.8Zm25.73,28.85-.57,0c-.62,2.8-1.33,5.58-1.84,8.4-.35,2-.42,4-.63,6-.12,1.14-.26,2.27-.42,3.4-.07.47-.2.93-.3,1.39l.49.09C51.46,355.67,52.14,349.18,52.65,342.65ZM16.87,362.28c.44,1.81,1.44,2.6,3,2.63a6.05,6.05,0,0,1,2.5.37c1.92,1,3.17,0,4.84-1.37a16.51,16.51,0,0,0-1.78.21,7.59,7.59,0,0,1-5.8-.92A14.86,14.86,0,0,0,16.87,362.28ZM10.5,331.17l-.52,0c-1.31,3.34-1.66,9.24-.67,12.4.16-2.23.28-4.31.48-6.38S10.26,333.17,10.5,331.17ZM29,302.38a5.87,5.87,0,0,0-5.47,1.2C25.35,303,27.51,304,29,302.38Zm12.11,29.09c0-4.17,0-4.47-1.67-5.45Zm-33,21.68c.13,2.54.13,2.54,1.59,3.29ZM32.41,313.4l-.43.45L33.3,315l.29-.29ZM7.24,365.84l-.39.11a4,4,0,0,0,.3.8,2.45,2.45,0,0,0,.53.48l.24-.24Z"/>
    <path d="M57.76,184.8c-.09,1.22-.86,1.71-2,1.95a4.5,4.5,0,0,0-1.61.76c-1,.75-2,1.58-3.44,2.68l-.64,2.15,1.35,1-1.6,2.79c.81,1.77-.55,3.4-.68,5.21l2.46.56c.2,1.72-1.19,2.39-1.77,3.26.31.74.9,1.46.76,2-.75,2.78-.65,3.33,1.56,4.8l-1.13,2.21c1.68,2.82-1.32,3.34-2.77,5.09l3.38.52c.29,1.59-1.07,2.19-1.86,3.43,2.39.16,4.6.34,6.81.43q6.9.28,13.8.46c.77,0,1.55-.22,2.32-.2a32.94,32.94,0,0,1,5.08.38c1.22.24,1.44,1.15.62,2.13a12.69,12.69,0,0,1-5,3.8c-.56-1.89,1.52-1.85,1.86-3.19a3.63,3.63,0,0,0-2.74-1c-10.53-.29-21.06-.65-31.6-.83-4.91-.08-9.83.17-14.75.28-.67,0-1.33.11-2.09.18.14,1.27.67,1.52,1.75,1.43,4.41-.36,8.83-.68,13.25-.87,2.1-.1,4.24.41,6.3.13,3.89-.53,7.57.5,11.33,1,1.84.24,3.69.35,5.8.55l-.35,3.65c1.62.65,3.55-.38,5.22.76-.3.92-1,.88-1.69.93-4.9.37-9.8.88-14.71,1-6.86.23-13.74.35-20.61.25-9.66-.13-19.31-.51-29-.79-.46,0-.93-.1-1.39-.15v-1.88c3.2.09,6.4.2,9.6.27l15.93.27c1.18,0,2.34,0,2.8-1.41-1.43-.72-1.42-.69-2.54-.21a2.25,2.25,0,0,1-1.49.18,5.79,5.79,0,0,1-3.86-4.08c-.55-2.24.22-3,2.46-2.73,3.19.45,6.32-.11,9.51-.36L32.22,221l2.84-1.22c-.32-1.74-.6-3.48-1-5.19s-1-3.45-1.28-5.21c-.71-5-1.32-10-1.89-15.07a4,4,0,0,0-1.82-2.94c.35,3.41.68,6.5,1,9.6s.66,6.37.8,9.56c.14,3,1,6.08.34,9.39-1.5-.71-1.44-1.91-1.55-2.89-.4-3.65-.7-7.31-1-11-.63-6.76-1.25-13.52-1.91-20.28a20.61,20.61,0,0,0-.57-2.49c-1.26.69-2.23,1.59-3.27,1.69s-2.3-.53-3.5-.85c-.35,1.12-.66,2.24-1.07,3.33-.95,2.56-2.26,4.81-5.07,5.74a3.56,3.56,0,0,0-2,1.87A19.11,19.11,0,0,1,4,201.91c-1.79,1-3.24,0-3.2-2.06a1.8,1.8,0,0,1,.13-.69c.52-1.12,0-1.76-1-2.23v-3.28l2-2a4.36,4.36,0,0,1,3.53-1.52,17,17,0,0,1,4.05.94,5.32,5.32,0,0,0,3.69-.26c-1.53-2.63.19-5.61-1.29-8.64a18.5,18.5,0,0,1-1.29,2.32,19.16,19.16,0,0,1-3,3.47c-1.85,1.44-3.7.59-4.13-1.7a19.46,19.46,0,0,1-.22-2.25L0,183.34v-12.2a15.51,15.51,0,0,1,2.8-2,5.11,5.11,0,0,0,2.4-2.66A19.46,19.46,0,0,1,7.87,163a2,2,0,0,1,2.34-.58,11.45,11.45,0,0,1-1.2.93,7,7,0,0,0-3.15,4.22c-.43,1.34-.58,2.79.61,3.93a3.87,3.87,0,0,0,3.92.89,6.44,6.44,0,0,0,2.29-1.12,24.14,24.14,0,0,0,3.55-3.37c1.42-1.74,3.39-3.28,2.9-6-.08-.43.42-1,.67-1.45s.5-.87.63-1.09l-6.75-3.58-5.82,4.63-3.27,2.55a4.25,4.25,0,0,1-1.33.92,2,2,0,0,1-1.61-.23,1.31,1.31,0,0,1,0-2.06A14,14,0,0,1,3,160.58a3.2,3.2,0,0,0,1.58-2.1H0V155.2c1.28.67,1.64.06,1.64-1.25L0,153.8V151c1.77-.21,3.55-.38,5.32-.63a43,43,0,0,0,5.07-.88c2.6-.71,5.33-1,7.65-2.67a8.82,8.82,0,0,1,6.09-1.42,7.65,7.65,0,0,1-1.19.82c-.93.4-1.91.69-2.84,1.08a3.53,3.53,0,0,0-2.35,2.58c-.36,1.31-1.65,2.36-2.57,3.58,1.11,2.79,5.32,4.22,8.18,2.58a13.39,13.39,0,0,0,2.47-2.12,12.44,12.44,0,0,0,1.2-1.65l.66.36-.19,2.7c1.14.09,2.3.09,3.43.28,2,.33,2.69,1.28,1.82,3.08a19.12,19.12,0,0,0-1.49,6c-.32,2.4-1.2,4.7-3.88,5.68-.41.15-.65.8-.95,1.24-.51.74-1,1.5-1.58,2.35a2.38,2.38,0,0,1-1.2-2.95c.37-1.19.79-2.37,1.25-3.53a2.57,2.57,0,0,0-.41-3c-4.09,0-5.75,3.14-7.77,5.81L21,174c-2.56,1.63-1.89,4-1.26,6.36a2.48,2.48,0,0,0,.62,1.24,6.1,6.1,0,0,0,2.46,1.53c1.15.2,1.81-.91,2.06-1.88a43.15,43.15,0,0,0,.83-4.81,14.79,14.79,0,0,0,0-1.89c2.12.13.75,2.72,2.53,3.25-.07-.61-.29-1.13-.13-1.47a2,2,0,0,1,1.08-.81,17.62,17.62,0,0,1,4-1.24c6.76-.68,13.52-1.25,20.28-1.8a29.57,29.57,0,0,1,8.39.34c2.27.48,4.67.32,7,.66a36.42,36.42,0,0,1,5.2,1.34,2.3,2.3,0,0,1,2,1.83c-2.53.17-4.62-1.06-6.87-1.27s-4.66-.46-7-.56-4.67,0-7,0c-.6,1.15-1.56,1.81-.6,3.11.3.41-.34,1.52-.51,2.17,3.3,1.69,7.2.8,10.56,2.32-.61,2.21-1.84,3.05-4,2.83-1-.11-2-.27-3-.4-1-2.19-3.33-2-5-2.11-2.16-.16-4.4.65-6.52,1,1.18.78,2.21,1.93,3.39,2.14a3.94,3.94,0,0,1,2.69,2c.69-.57,1-1.11.27-1.76-.55-.46-1.16-.86-.61-1.85C53.85,183.8,55.79,184.55,57.76,184.8Zm-31-4.16L28.66,188l2.43-3.71L29,182.61l1.11-1.3Zm-12-.54,1,5.38a6.66,6.66,0,0,0,.28-5C15.94,180.25,15.39,180.25,14.77,180.1Zm22.06-3.36,3.53-.55a9.12,9.12,0,0,0-3-.11C37.23,176.08,37.15,176.3,36.83,176.74ZM60,231.35c-.41-.25-.66-.53-.83-.48s-.4.36-.59.55c.2.16.4.43.61.44S59.56,231.61,60,231.35ZM3.84,173.49l.42.38c.3-.31.61-.62.88-1,0,0-.29-.28-.44-.43Z"/>
    <path d="M242.86,0c.07,1.09.2,2.17.2,3.26q0,21.45-.05,42.9v3.19c4.38-2.73,8.27-5.26,12.25-7.63s8-4.56,11.9-6.78c0-1.78,0-3.34,0-4.89A3.11,3.11,0,0,1,268.44,27a1.66,1.66,0,0,0,.7-.88c.38-1.78,1.65-2.1,3.26-2V0h1.87c-.12,2.64-.32,5.29-.35,7.93-.06,5.23,0,10.45,0,15.8a.3.3,0,0,0,.2.15c2.93.41,3.17.77,2.29,3.6a2.76,2.76,0,0,0-.29.88,4,4,0,0,1-1.93,3.57l2.86.2c-.49,1.65.48,2.46,1.77,3.22,6,3.53,11.91,7.16,17.89,10.69,3.23,1.9,6.54,3.65,9.8,5.51a7,7,0,0,0,3.76,1c2.11-.06,3.41,1.42,3.44,3.56a1.65,1.65,0,0,1-1.31,1.71c-1.78.58-3.56,1.14-5.36,1.64-3.91,1.08-7.84,2.06-11.72,3.21a37.32,37.32,0,0,1-10.13,1.53c-7.17.11-14.33.37-21.49.72-5.13.25-10.09-.66-15.08-1.57a16.71,16.71,0,0,0-3.23-.34A10.52,10.52,0,0,1,236,58.42a3.45,3.45,0,0,0-.63-.69c-.36-.29-.77-.52-1.42-.95A17.22,17.22,0,0,1,235.62,55c1.53-1.2,3.09-2.38,4.71-3.45a3.28,3.28,0,0,0,1.67-3q-.09-24.24-.08-48.49ZM312,56.48c-1.67-.84-2.85-1.75-4.15-2-3-.59-6.18-.12-9.1-1.42-.39-.18-.93,0-1.4,0-1.94-.13-3.89-.22-5.83-.41-4.17-.41-8.32-1.08-12.49-1.27-4.43-.19-8.89-.1-13.32.13a68.94,68.94,0,0,0-11.12,1.24c-3.27.7-6.46,1.66-9.79,2.17a20.57,20.57,0,0,0-7.15,2.44,5.36,5.36,0,0,0,4.31,4.35,24.89,24.89,0,0,0,3.47.38c1.08.11,2.18.11,3.24.32a63.21,63.21,0,0,0,15.77,1.41c6.91-.41,13.83-.73,20.75-.86A31.33,31.33,0,0,0,295,61.34a79.05,79.05,0,0,1,12.2-3.2A32.78,32.78,0,0,0,312,56.48ZM269.3,30.67c1.14-.3,2.07-.21,2.8-.88-.91-1-2.46-1.58-3-1C269.14,29.24,269.21,29.82,269.3,30.67Zm2.52,4.39-.2-.64c-1.58-.36-2.54.87-3.74,1.46l.17.48ZM274.2,28c.35-.82.56-1.34.9-2.13l-1.93.12a6.64,6.64,0,0,0,.22,1A7.72,7.72,0,0,0,274.2,28Zm-25.9,25c-1.14-1.32-1.27-1.29-2.55.42Zm31.27-3.5-.08-.62-1.12.26.06.42Zm10.9-4.58.2-.28-1.09-.77-.18.26Z"/>
    <path d="M67.51,0c.07.85.21,1.7.21,2.55q-.07,52.37-.18,104.72c0,1.07-.08,2.14-.12,3.17-4.69.56-5.4,1.22-5.8,5C60.84,77,60.94,38.5,61,0Z"/>
    <path d="M0,113c.62-.44,1.27-.84,1.85-1.33.89-.76,1.67-1.65,2.6-2.37,2.54-2,4.18-1.92,6.67.12,1.12.92,1.12.92,2.58.36,0-.15.1-.36,0-.45-1.77-2.45-3.52-4.92-5.33-7.34a19.87,19.87,0,0,1-4.36-10.2,11.14,11.14,0,0,1,2.55-8.3c2.35-2.86,5.36-2.64,6.86.7a55,55,0,0,1,2.29,7.59c.07.24-.13.56-.24,1a2.23,2.23,0,0,1-1.61-1.88c-.32-1.13-.56-2.28-.91-3.4a12.57,12.57,0,0,0-1-2.38c-1-1.91-2.6-2.18-4.2-.66a8.81,8.81,0,0,0-2.66,5.83c-.31,3.37,1,6.28,2.69,9,.75,1.18,1.66,2.25,2.55,3.45l2.44-.54c-.28-3.06,2.2-2.09,3.82-2.53a10.8,10.8,0,0,0,0-2.55c-.73-2.81.39-5,2-7.14.71-.92,1.54-1.75,2.24-2.68a3.58,3.58,0,0,1,3.62-1.69c1.25.26,1.85-.32,2.61-1.05a15.89,15.89,0,0,1,3.09-2.47,4.19,4.19,0,0,1,5.5,1c1.77,1.94,2.43,6.1,1.36,8.84-.83-.06-.88-.68-1-1.31a28.56,28.56,0,0,0-.53-3.93c-.82-3.1-3.34-4-5.93-2.12a15.62,15.62,0,0,0-2.91,3,3.33,3.33,0,0,0-.6,3.67,22.9,22.9,0,0,1,.95,4.53c-.46.29-1.34.54-1.42.95-.49,2.43-2.4,3.73-4.1,5.42,2.63,2.7,1.89,5.35-.2,7.87l6,5.38c1.14-2.53,2.11-4.74,3.14-6.92.5-1,1.09-2.07,1.69-3.08a2.1,2.1,0,0,1,2.47-.89c.59.16,1,.82,1.86,1.51.42,0,1.54-.18,2.19.27s.66,1.55,1.08,2.68a12.48,12.48,0,0,1,1.66,1,1.48,1.48,0,0,1,.58,1.11,1.6,1.6,0,0,1-.92.9,3.81,3.81,0,0,1-1.61.2,2.15,2.15,0,0,0-2.46,1.94c1.9,3,2,3.45.93,5.17L36.4,116c-1.23.28-2.11.54-3,.66-1.75.22-2.62,1.48-1.88,3.14a31,31,0,0,0,2.25,3.58c-2.25,0-2.73-2.1-3.89-3.19l-.42.38a6.69,6.69,0,0,0,.64,1.25,3.12,3.12,0,0,1,.29,3.51,7.58,7.58,0,0,1-7.94,4.16,5.87,5.87,0,0,1-3.37-9.56A31.44,31.44,0,0,1,18,115.14a28,28,0,0,1,.48-4.72l-3.64-.61-1.18,1.48.89,2.79-.51.29c-.47-.46-1-.89-1.42-1.38-.67-.76-1.24-1.61-2-2.34-1.73-1.77-3.16-2-5.19-.49a48.87,48.87,0,0,0-3.73,3.2L0,114.88Zm24.14,12.83-.63.42a2.1,2.1,0,0,0,.43.6c.09.06.52-.17.51-.22A3.31,3.31,0,0,0,24.14,125.83Z"/>
    <path d="M0,413.56c10.17-3.79,20.3-7.68,30.52-11.32,9.78-3.49,19.65-6.73,29.49-10,2-.67,4.05-1.13,6.27-1.74.06-1,.16-2,.15-3-.11-16.8-.3-33.59-.33-50.39q-.07-45.58,0-91.16,0-1.29,0-2.58c0-.71.34-1.15,1.33-1.19a10.2,10.2,0,0,1,.28,1.76q-.08,28-.18,56-.1,40.3-.14,80.62c0,3.34.16,6.68.1,10a34.35,34.35,0,0,1-.86,6.7l-.32-5.9c-2.8,1-5.29,1.79-7.76,2.67q-27.93,9.87-55.86,19.75c-.88.31-1.81.49-2.71.73Z"/>
    <path d="M162.22,0q0,10.43,0,20.85l-.09,73.82v2.54a32.13,32.13,0,0,1,3.34-4.49c1.13-1.07,2.25-2.88,4.51-1.61l.18,1.73,1.27.22c.06-.68.11-1.27.17-1.88.19,0,.35,0,.42.13,1.23,1.4,2.42,2.83,3.66,4.22.93,1,1.95,2,2.86,3.08a1.39,1.39,0,0,1,0,2.13L175,96.51c-2.1,1.48-4,2.88-6,4.21s-2.79,3.65-4,6.07L162.3,104c-.34,2.18,0,4.39-.25,6.53l-.5.14a5.77,5.77,0,0,1-.76-1.45,13.87,13.87,0,0,1-.07-2.33L160.69,3c0-1,.08-2,.12-3ZM172.9,96.22l.32.31.7-.89c-.12-.08-.33-.26-.34-.25C173.34,95.66,173.12,95.94,172.9,96.22Z"/>
    <path d="M156.59,0c0,1,.12,2,.12,3q-.17,42-.34,83.91c0,5.63-.14,11.25-.23,16.88a13.54,13.54,0,0,1-.18,1.56c-1.19.22-1.76-.18-1.76-1.32,0-.86,0-1.72,0-2.58q-.06-34.92-.12-69.85c0-10.55-.19-21.09-.29-31.64Z"/>
    <path class="cls-1" d="M0,158.48H4.57A3.2,3.2,0,0,1,3,160.58a14,14,0,0,0-1.34.94,1.31,1.31,0,0,0,0,2.06,2,2,0,0,0,1.61.23,4.25,4.25,0,0,0,1.33-.92l3.27-2.55,5.82-4.63,6.75,3.58c-.13.22-.39.65-.63,1.09s-.75,1-.67,1.45c.49,2.74-1.48,4.28-2.9,6a24.14,24.14,0,0,1-3.55,3.37,6.44,6.44,0,0,1-2.29,1.12,3.87,3.87,0,0,1-3.92-.89c-1.19-1.14-1-2.59-.61-3.93A7,7,0,0,1,9,163.3a11.45,11.45,0,0,0,1.2-.93,2,2,0,0,0-2.34.58,19.46,19.46,0,0,0-2.67,3.49,5.11,5.11,0,0,1-2.4,2.66,15.51,15.51,0,0,0-2.8,2Z"/>
    <path d="M73.14,0c0,1.25.1,2.5.09,3.74q-.08,52.59-.18,105.18a8.21,8.21,0,0,1-.32,2.48c-.74-.64-.58-1.49-.59-2.26q-.06-6.8-.07-13.58,0-46,0-92.06c0-1.17.12-2.33.18-3.5Z"/>
    <path d="M0,403.71c.75-.15,1.52-.24,2.26-.45q24-7.1,48-14.17c2.76-.82,5.6-1.39,8.4-2a1.81,1.81,0,0,1,1.44.24c-.85.31-1.69.68-2.57.94L.43,405.42a3.83,3.83,0,0,0-.43.17Z"/>
    <path d="M0,398.09c.69-.13,1.39-.21,2.06-.39,12.41-3.43,24.84-6.82,37.24-10.33,5.85-1.66,11.64-3.56,17.46-5.35.71-.22,1.43-.37,2.15-.56l.18.49c-1,.44-1.9.9-2.87,1.31a188,188,0,0,1-24.53,7.8c-9.6,2.5-19.16,5.12-28.74,7.68-1,.26-2,.5-2.95.75Z"/>
    <path d="M327.25,422c1.22-2.26,2.39-4.55,3.65-6.79,8.19-14.38,15.57-29.18,22.62-44.15q9.12-19.37,18.35-38.7a9.89,9.89,0,0,1,.89-1.29l0,0c-.42,1.16-.75,2.37-1.27,3.49-5.09,11.06-10.1,22.16-15.35,33.15C347.62,385.43,338.82,403,329,420.1a17,17,0,0,0-.82,1.9Z"/>
    <path d="M170.66,422c3.64-2.39,7.25-4.85,10.94-7.16q26.79-16.74,53.61-33.42a10.85,10.85,0,0,1,1.68-.71,26.45,26.45,0,0,1-2.37,1.85q-19.78,12.53-39.61,25-10.4,6.56-20.78,13.14a15.15,15.15,0,0,0-1.6,1.3Z"/>
    <path class="cls-1" d="M0,183.34l3.27.71a19.46,19.46,0,0,0,.22,2.25c.43,2.29,2.28,3.14,4.13,1.7a19.16,19.16,0,0,0,3.05-3.47A18.5,18.5,0,0,0,12,182.21c1.48,3-.24,6,1.29,8.64a5.32,5.32,0,0,1-3.69.26,17,17,0,0,0-4.05-.94A4.36,4.36,0,0,0,2,191.69l-2,2Z"/>
    <path d="M0,123.32l1.57,1.86c.56-.16,1.43-.44,2.31-.64a10.09,10.09,0,0,1,2.3-.35c1.47,0,1.9.5,1.53,1.87-.53,2-1.16,3.9-3.24,4.9-1.07.52-1.31,1.62-1.67,2.79,1.89.81,4,1.12,5,3.32-2.47-1.19-5-2.06-7.75-1.56Z"/>
    <path d="M226.92,422l28.38-26.57q10.77-10.08,21.52-20.18a5.08,5.08,0,0,1,2.22-1.41c-1.22,1.2-2.42,2.42-3.66,3.59q-12.92,12.24-25.85,24.46c-6.82,6.42-13.68,12.79-20.52,19.19a6.25,6.25,0,0,0-.68.92Z"/>
    <path d="M74.55,422c4.34-2.25,8.62-4.65,13-6.74q29.81-14,59.69-27.88a18.12,18.12,0,0,1,1.75-.61l.11.13c-3.15,1.52-6.27,3.1-9.45,4.57-20.44,9.46-41,18.75-61,29A23.26,23.26,0,0,0,76.42,422Z"/>
    <path d="M0,145.36a31.26,31.26,0,0,0,5,1.2,9.89,9.89,0,0,0,4.09-.64c2-.75,2.31-2.11,1.25-3.93-.61-1.05-1.28-2.06-1.93-3.08l.31-.39c.46.12,1,.1,1.36.38,1.45,1.24,2.85,2.62,2.56,4.72a5.11,5.11,0,0,1-3.9,4.25A23,23,0,0,0,4,149.82c-1.12.64-2.68.49-4,.69Z"/>
    <path d="M0,117.69c2.53,3.16,6.36,4,9.83,5.48.89.38,2,.51,2.48,2.07-2.93-.72-5.35-2.07-8-3.12l-.6,1.08L0,122.85Z"/>
    <path class="cls-1" d="M0,153.8l1.64.15c0,1.31-.36,1.92-1.64,1.25Z"/>
    <path d="M282.26,139.74c-.31,0-.62,0-.93,0-1,0-1.94,0-2.14-1.26a2.34,2.34,0,0,1,2-2.48c1.57-.34,3.13-.71,4.7-1.06-.64-2.36-.61-2.5,1.49-3.12a22.87,22.87,0,0,1,10.15-1.12,18.67,18.67,0,0,1,2.21.64c-.78,1.43-.78,1.43-2.94,2,.06,1.65,1.74,1.21,2.53,2,1.11,1,1.89-.63,3.21-.61a8.38,8.38,0,0,1-.79,1.19,25.14,25.14,0,0,0-6.32,11.07c-.27,1-.18,2.4-1.72,2.77-.22.05-.38.83-.35,1.25a21.35,21.35,0,0,0,.44,2.32l-3.87,3.27-.54-1.61a10.5,10.5,0,0,0-5,3.19,2.18,2.18,0,0,0-.32,1.09c-.18,1.31-.32,2.63-.47,3.95l.07,0a9,9,0,0,0-.5,1q-2.3,7.25-4.59,14.48c-5.47,17.39-11.66,34.56-16.3,52.2a68.58,68.58,0,0,0-1.26,6.84c-.21,1.35.55,1.44,1.56,1h-.05c.59.15,1.16.32,1.75.43,1,.17,1.94.3,2.92.44,0,1.53-.7,1.84-1.81,1.84-1.36,0-2.73.18-4.09.2s-1.63.89-1.62,2.13l6.49.72c-.44,2.17-.87,4.21-1.28,6.26-.22,1.15-.51,2.35,1.67,3.06-2,.36-2.65,1.19-2.92,2.55-.41,2.14-1.06,4.23-1.65,6.49l1.74.9-.57,1.48-2.06.36-2.94,8.62c.53.17.88.27,1.22.4s.54.26.92.45c-.93,1.25-3.11.63-3.41,2.49l-.05-1.06c-2.78.45-2.78.45-2.82,2.64,2.11.08,2.11.08,2.91-1.64v1.46l3.76.23.12.4c-.4.26-.77.68-1.2.75a41.88,41.88,0,0,1-4.17.47c-2.65.18-2.65.15-2.94,3.2.57.09,1.15.22,1.74.29,2.94.36,5.88.68,8.81,1.09a7,7,0,0,1,2.18.79c1.46.8,1.54,1.65.28,2.66a5.2,5.2,0,0,1-1.4.82c-2.5,1-4,.18-4.55-2.67a53,53,0,0,0-10.84-.9c-.26.85-.47,1.57-.68,2.25-2,.45-1.08-1.43-1.84-2.24-1.66.11-3.43.21-5.2.36-1.2.09-2.28.09-3.06-1.1-1-1.57-2.66-.84-4.21-.83a3.11,3.11,0,0,1-.38-1c0-1.05.79-1.53,1.49-.86,1.6,1.51,3.61,1.6,5.56,1.69,2.16.11,4.34-.1,6.6-.18.25-.89.45-1.62.63-2.28-1.26-1.08-1.89-.27-2.49.64-.74-2.29-3.22-.55-4.37-2.17,1.34-1,2.93.09,4.44-.66l.75-3.44L243.81,275c.49-1.3,1.79-.66,2.38-1.19a10,10,0,0,0,1.41-2.3c-.06.73-.12,1.46-.19,2.25,1.16.08,2.14.31,2.51-.92.66-2.2,1.28-4.41,1.92-6.62-1.47-.72-2.38-.39-2.94.93,0-1.69-1.17-1.51-2.38-1.4-.9,1.92-.92,4.31-2.93,6.23-.16-2.71,1.44-4.5,1.59-6.75l4.66-2.31c1.67-5.27,3.55-11.15,5.42-17-2.46-.84-2.93-.68-3.78,1.33-.57,1.36-1,2.77-1.56,4.15-.4,1.07-.41,1.07-1.73,1.75.61-3,1.19-5.87,1.84-9.06,1.61-.6,3.66.12,5.76-.26l.55-1.68c-.86-1-1.52-1.79-2.27-2.52a2.64,2.64,0,0,0-1.2-.54,1.82,1.82,0,0,1-1.6-1.74c.22-.06.64-.11.64-.18,0-1.76,1-3.16,1.67-4.71a3.7,3.7,0,0,0-1.68-4.13c-.6,3-1.73,6-.55,9.1-.44-.36-1.19-.68-1.26-1.1a20.28,20.28,0,0,1-.15-3.9,20,20,0,0,1,.46-2.05c.35-2.25-.22-4.49-2.07-5.62a5.37,5.37,0,0,0-6.41.36c-3.89,3.47-7,7.42-5.76,13.21a53.28,53.28,0,0,0,1.43,6.15c2.58,7.34-2.8,18.61-10.09,20.89-4.17,1.31-7.41,4.23-10.45,7.53a16.27,16.27,0,0,0,8.73,8.41c1.3-1.41,2.62-2.71,3.77-4.16a20.75,20.75,0,0,0,2-3.36,1.73,1.73,0,0,0,.1-1.35c-.93-1.93.14-3.22,1.27-4.55a9.4,9.4,0,0,0,1.58-2.26,19.66,19.66,0,0,1,3.67-5.09c1.43-1.65,3.13-1.76,5-1.57-.1,2.15-.65,2.62-2.37,2.39a2.26,2.26,0,0,0-1.44.32,10.17,10.17,0,0,0-4.55,8.78c0,3.25-.93,5.74-3.64,7.6-1.4,1-2.64,2.16-4.07,3.35,1.25,1.1,3.55.92,4.39,3.22l-3.53-.66c4.12,2.26,8.45,4.11,11.92,7.37-.55.88-1.16,1-1.85.48-1.39-1.11-2.71-2.33-4.17-3.34a32.75,32.75,0,0,0-4.82-2.81,30.1,30.1,0,0,1-12-9.34,13.18,13.18,0,0,1-2.48-8.24c-.1-4.14-.75-8.13-3.2-11.56-4.81-6.72-11.07-10.88-19.67-10.75a6.47,6.47,0,0,1-4-.86c11.14-2.11,19.08,2.22,25,11.19.31-.36.55-.51.57-.69,1.13-8.6,2.24-17.21,2-25.91a13.89,13.89,0,0,0-.4-3.71,4.09,4.09,0,0,0-1.69-2.32,11.4,11.4,0,0,0-7.27-.82c-.25,2.6.27,5.1-.77,7.37h-.59v-6c-1.53-.28-2.05.21-2,1.45,0,.81,0,1.63-.08,2.6-2.18-1.26-2.45-3.13-2.48-5-.09-4.92-.08-9.85-.15-14.77-.06-4.21-.18-8.42-.26-12.63,0-.11.16-.23.51-.69a17.22,17.22,0,0,1,.56,2.31c.19,2.26.31,4.52.45,6.78.34,5.46.67,10.92,1,16.37a13.36,13.36,0,0,0,.28,1.58,1.9,1.9,0,0,0,2.38-.2c2.28-1.51,8-1.11,10,.73a5.38,5.38,0,0,1,1.37,2.38,16.93,16.93,0,0,1,.43,3.7,140.31,140.31,0,0,1-1.6,25c-.44,3-.75,6,.21,9a33.9,33.9,0,0,1,.69,5.09c.18,1.19.46,2.36.7,3.52,2.3-1.9,4.31-3.73,6.5-5.3a21.12,21.12,0,0,1,4.57-2.32,12.88,12.88,0,0,0,7.25-6.63c1.24-2.6,2.66-5.19,2.42-8.21a37.87,37.87,0,0,0-.76-4.61c-.48-2.29-1.13-4.55-1.53-6.85-.48-2.76.48-5.25,1.9-7.56a4.66,4.66,0,0,0,.75-3.91c-.63-2.56-.45-2.61-3.6-2.49.25,10,.95,20.12-.87,30.1-1.31-4.87-.32-9.8-.43-14.69s0-9.82,0-14.78c-2.16-.89-4,.19-6.35.58.42-.6.57-1.08.87-1.21a12.39,12.39,0,0,1,2.88-.92c1.82-.29,3.67-.44,5.52-.62,2.55-.25,3.16.27,3.46,2.85,0,.3.09.6.18,1.12a12.23,12.23,0,0,0,1.38-1c2.39-2.32,5.22-2.3,8.09-1.39.75.24,1.37,1.18,1.84,1.93a5.39,5.39,0,0,0,2.18,2.29c.78.38,1.24,1.49,1.72,2.35s.88,1.92,1.41,3.11l-.41,1.8.5.17c.29-.75.62-1.49.86-2.26,1.76-5.74,3.45-11.51,5.28-17.24.95-3,2.14-5.87,3.21-8.8.83-2.26,2.06-4.39,2.15-6.89a3.81,3.81,0,0,1,.39-1.34c3.37-7.54,4.79-15.65,7-23.53,1.24-4.43,2.85-8.75,4.22-13.14a42.52,42.52,0,0,0,1.65-6.34,4.53,4.53,0,0,0-2.14-5c2.56-3.24,3.4-6.9,3.67-10.75.24-.59.47-1.17.72-1.77-.95-.46-1.61-.91-2.27.11ZM258.61,253.22l-1.68-.25c-1.07,3.53-2.12,7-3.17,10.39,1.36.52,1.42-.4,1.61-1,.73-2.21,1.38-4.45,2.11-6.66a27,27,0,0,1,1.13-2.52q-1.33,5.13-2.66,10.24c.93.49,1.67.56,2-.46,1-3.15,1.92-6.32,3-9.76Zm3.61-3.59c-.21,2.06-.21,2.06,1.72,2.48.53-2.12,1.06-4.25,1.72-6.86l-2.59.75c-1.24-1.23-2.67.33-4.07-.59l-1.53,5.75,3.8.25Zm20.3-92.16-.47-.08c-.55,1.68-1.12,3.35-1.64,5-2.05,6.61-4.63,13.06-6,19.89-.73,3.65-2,7.2-3,10.78-1,3.35-2.08,6.68-3.07,10a28.94,28.94,0,0,0-.55,3.09,2.71,2.71,0,0,0,1-1.35c1.27-3.76,2.62-7.5,3.76-11.3,2-6.56,3.72-13.19,5.72-19.74,1.23-4,2.7-8,4.15-11.91A9.21,9.21,0,0,0,282.52,157.47ZM252.63,263.68c1.13-3.68,2.18-7.13,3.24-10.61-2.12-.42-2.16-.43-2.65,1.06-.95,2.87-1.84,5.76-2.74,8.65a2.5,2.5,0,0,0,.06.77Zm5.91,0c1.18-.21,2.27.31,2.64-.93.84-2.78,1.54-5.62,2.33-8.59l-2.1-.54C260.45,256.93,259.55,260.1,258.54,263.64Zm-3.25,10.41c2.17.52,2.32.55,2.7-.58.86-2.57,1.6-5.18,2.47-8h-2.53C257,268.42,256.16,271.23,255.29,274.05Zm-2.77-.58c1.4.75,2.09.47,2.45-.69.6-2,1.25-4,1.84-6a6.46,6.46,0,0,0,.08-1.25c-1-.28-1.69-.08-2,.85Zm3.59-34.85c1.32-.09,1.35-.89,1.54-1.53q2.18-7.38,4.31-14.78c.24-.8.35-1.64.52-2.47C260.09,226,258.07,232.22,256.11,238.62Zm-1.85,12.45c2,.26,2.11.3,2.32-.33.56-1.65,1.42-3.25,1.36-5.53-.89.43-1.84.57-2.06,1A47.61,47.61,0,0,0,254.26,251.07Zm-3.12,22.47a30.11,30.11,0,0,0,3.09-7.82c-.67.18-1.1.17-1.17.33A19.3,19.3,0,0,0,251.14,273.54Zm-2.51,2.88-2.21-.2c-.16,1.31-.3,2.39-.44,3.49C248.34,279.87,248.38,279.82,248.63,276.42Zm.75,7.55h2.23c.2-.93.39-1.77.59-2.65C249.78,281.17,249.78,281.17,249.38,284Zm1.51-4.66c2.11.16,2.11.16,2.37-2.14C251.26,276.66,251.12,276.78,250.89,279.31ZM283.35,153.5c-1.82-.89-2-2.53-2.34-4.2-.37.54-.76,1.17-.6,1.59C280.89,152.14,281.33,153.55,283.35,153.5Zm-24.26,88.36c-1,.24-1.9-.34-2.22.94-.16.68.21,1,.82,1.12C259,244.12,258.94,243.13,259.09,241.86Zm36.05-99.22,1.85-2.9C295.06,140.14,294.76,141,295.14,142.64ZM259.78,234c-.41,1.2-.83,2.41-1.24,3.62l.53.17A5,5,0,0,0,259.78,234ZM294,133v-.33c-.42,0-.85,0-1.27,0s-.9.12-1.34.19l0,.13ZM250.46,277c-1.21,1-1.21,1-.74,2.45C250,278.48,250.24,277.74,250.46,277Zm11.36,10.44c1,.73,1,.73,2.15-.17Z"/>
    <path d="M204.86,307.16c.46.79.93,1.58,1.39,2.38s.83,1.47,1.24,2.2c6.25-.78,12.26-2.12,18.69-2.23a2.47,2.47,0,0,1-2.27,1.4c-3.54.61-7.09,1.18-10.63,1.77-5,.84-10,1.7-15,2.55-.53.09-1.05.26-1.6.39a2.48,2.48,0,0,0-.06.73c.9,3.24,1.28,3.56,4.61,2.71,3.09-.79,6.12-1.86,9.17-2.79,1.72-.53,3.43-1.1,5.18-1.49a12.15,12.15,0,0,1,2.7,0l.18.52a6.44,6.44,0,0,1-1.36.83q-5.47,1.67-11,3.24c-1.64.48-3.31.88-5,1.35-.8.22-1.57.53-2.43.83l.33,2.15-.29.08a10.26,10.26,0,0,0-1.81-2.82c-.86-.7-2.15-.87-3.22-1.33a1.32,1.32,0,0,1-.74-2l3.57,1.22-1.09-3-8.75,1.38c1.17-1.87,2.74-1.57,4-2s2.54-.68,4-1a10.44,10.44,0,0,0-.29-1.7c-2.52-7.14-5.09-14.26-7.6-21.41-.4-1.14-.91-1.86-2.22-2a9.32,9.32,0,0,1-2.68-.82,6.25,6.25,0,0,1-3.82-7.42,18.87,18.87,0,0,1,1.94-4.48,2.73,2.73,0,0,0,.24-2.61c-1.57-4-3.08-8-4.58-12.05a2.62,2.62,0,0,0-1.67-1.8c-1.69-.53-2.3-1.87-2.83-3.43-1.84-5.48-3.8-10.91-5.72-16.36-.13-.36-.33-.7-.56-1.17-1.08.5-1.63,2.19-3.11,1.47a1.49,1.49,0,0,1-.76-2l1.4,1.32c1-.64.69-1.43.59-2.17-.23-1.69-.42-3.39-.7-5.07a13,13,0,0,0-.65-2.24q-5.22-14.79-10.46-29.59c-.07-.19,0-.43.23-.74.32.67.68,1.32,1,2,2.68,6.92,5.33,13.84,8,20.76.39,1,.94,1.92,1.42,2.88.11.48.23,1,.34,1.43l.38-.17-.76-1.22a18.59,18.59,0,0,0-.44-2.27c-3-9-6.07-18.05-9.07-27.09-.4-1.2-.79-2.15-2.32-2.14-.61,0-1.34-.18-1.28-1.28,0-.34-1.11-.79-1.75-1.11a9.84,9.84,0,0,1-2.27-.94c-1.84-1.6-3.07-3.93-6.09-4.51,2.14-1.88,3.33-.09,4.82.4l1.75-2-3.46-.64c-.14-1.13.42-1.44,1.07-1.5,2.87-.26,5.75-.47,8.62-.7a2.84,2.84,0,0,1,2.91,1.45,42.15,42.15,0,0,0,3,3.63,2.73,2.73,0,0,1,.39,3.2c-1-1.42-1.88-2.66-3-4.31-.37,2.43-.66,4.32-.95,6.21a31.49,31.49,0,0,1,2.87,1.63c.2.14,0,.83,0,1.33l-4.1-.35c.51,1.59.87,2.85,1.31,4.09q8.37,23.61,16.77,47.22c1.31,3.68,2.77,7.31,4.18,10.94.68,1.74.71,1.73,3,1.45q-10.31-27-20.58-53.91l.5-.22c.32.73.67,1.45,1,2.2q7.92,20.29,15.8,40.59c1.3,3.35,2.47,6.74,3.73,10.11.6,1.61.62,1.6,2.88,1.15-7.73-20-15-40.13-21.43-60.62a3.62,3.62,0,0,1,.56.82c3.74,11,9.29,21.15,14.33,31.54,6.9,14.26,14,28.41,21.06,42.62a4,4,0,0,0,1.9,1.9,31.53,31.53,0,0,1,5.3,3.38c1.19,1,.91,2.61.63,4a6.64,6.64,0,0,1-1.32,2.69,2.21,2.21,0,0,0-.27,2.56c1.46,3.54,2.85,7.1,4.26,10.66l0-.05a5.49,5.49,0,0,1-1-1.14c-1-2.26-2-4.56-3-6.83-.47-1.05-1-2.07-1.69-3.43-.66.53-1.55.91-1.55,1.3,0,1.37-1-.05-1.29.74,1.38,3.42,2.85,7,4.26,10.6.64,1.66,1.18,3.35,1.77,5l0,0a20.55,20.55,0,0,1-1.1-2c-1.68-3.95-3.31-7.92-5-11.88-.27-.63-.61-1.22-1-2-3.07,1.09-6.18,1.25-9.28,1.62a3,3,0,0,0,0,.82q4,11,8,22c.41,1.14,1,1.67,2.31,1.19a9.1,9.1,0,0,1,1.59-.26l7.57-1.37c-.66-1.83-1.2-3.35-1.75-4.87Zm-22.53-37.37,1.43,2.78,2.15-1.15c-1.34-3.49-2.55-6.77-3.85-10-.55-1.37-.71-1.36-2.65-.62q1.4,4.05,2.8,8.12A13.43,13.43,0,0,1,181,267c-.7-1.73-1.27-3.51-2-5.24s-.81-1.7-3-.75q2.46,6.6,4.92,13.25c2.06-1,2-1,1.59-2.82C182.51,270.86,182.43,270.33,182.33,269.79Zm1.53-11.59c-5.19-12.59-10.28-25-15.38-37.35L168,221c.16.55.3,1.12.49,1.67.7,2,1.4,4,2.14,5.95q5.19,13.93,10.4,27.85C181.71,258.45,181.73,258.44,183.86,258.2Zm3.15.09c-.67-2.59-11.29-23.56-12.48-24.7a.45.45,0,0,0,0,.22l9.87,23.44C184.9,258.52,185.84,258.64,187,258.29Zm2.88,12.17c1.44-1.08,1.93,1.68,3.42.38-1.51-3.14-3-6.35-4.6-9.53-.6-1.22-1.51-1.07-2.69-.29C187.29,264.12,188.54,267.18,189.89,270.46Zm-.72.37c-1.47-3.49-2.8-6.7-4.18-9.88-.46-1-1.31-.87-2.47-.49,1.34,3.67,2.57,7.28,4.19,10.77ZM181,276.64c-.54,1.22-.94,2.15-1.54,3.51C181.89,278.75,181.89,278.75,181,276.64Zm8.4-3.81v-.69l-1.86.1c.16.49.34.64.53.64C188.52,272.9,189,272.85,189.41,272.83ZM152.12,184l-.05.47,1.08.13.07-.38Zm21.22,72.46-.34.16.54,1.21.38-.18Zm14.13,24.32.6.57,1.39-1.22c-.76.2-1,.24-1.15.31S187.75,280.62,187.47,280.73Z"/>
    <path d="M143.65,142.54c.79-.77,1.23-.38,1.66.17a24.7,24.7,0,0,0,2.35,2.91c1.66,1.52,3.5,2.84,5.17,4.34,1.1,1,3-.26,3.72,1.39s2.18,1.6,3.28,2.38c2.17,1.52,4.57,2.75,6.54,4.49a60.46,60.46,0,0,1,5.29,6,7.25,7.25,0,0,0,.56-1.12,10.67,10.67,0,0,0-.44-7.75,19.9,19.9,0,0,0-13.71-11.75c-2.64-.71-5.26-1.49-7.88-2.25-1.49-.43-2.92-.63-4.1,1.24-.4-1.66.16-2.51,1.24-2.91a4.71,4.71,0,0,1,2.51-.27c4.88,1.06,9.72,2.16,14.14,4.71a19.85,19.85,0,0,1,8.12,9.4c.56,1.2,1.06,2.42,1.67,3.81,1.74-1.86,4-2.42,6.42-2.66,2.67-.27,4.26,1.51,6.15,3.69a77.4,77.4,0,0,0-2.12-16c1.73.69,1.73.69,2.89,6.13.67.5,1.48.79,1.59,1.25a60.31,60.31,0,0,1,1,6,2.38,2.38,0,0,1-.39,1.56c-1.51,2-1.22,4.15-.59,6.36q.85,3,1.5,6.14a2.86,2.86,0,0,1-.64,3.08c-.22-1.09-.35-1.91-.56-2.71a70.25,70.25,0,0,0-2.07-7.18,19.45,19.45,0,0,0-2.8-4.83,6.65,6.65,0,0,0-8.49-1.3,2,2,0,0,0-.82,1c-.61,2.08-1.13,4.19-1.71,6.28-.32,1.19-.69,2.37-1.13,3.87.19.2.59.64,1,1.1.77.9,1.57,1.86,1.17,3.13a2.2,2.2,0,0,0,.84,2.47,21.52,21.52,0,0,0,1.75,1.55c1.49,1.13,2.54,2.35,2.48,4.46,0,1.11.87,2.24,1.34,3.37l.58-.07.41-5.15,1.14.66c.08-.12.22-.24.23-.36a9.79,9.79,0,0,0-1.91-5.68c-1.23-1.9-2.58-3.72-3.87-5.59-.41-.6-.77-1.24-1.15-1.87l.36-.3a4.77,4.77,0,0,1,1.21.82c1.63,2.09,3.34,4.14,4.77,6.37a13.24,13.24,0,0,1,1.66,4.33,4.48,4.48,0,0,1-.32,3.15,6.24,6.24,0,0,0-1,3.7,2.32,2.32,0,0,1-1,2.24c-.45.28-.63,1-1.07,1.71h3.67l.14.44a14.72,14.72,0,0,1-2.17.76c-3.15.57-6.31,1.1-9.46,1.61a2.73,2.73,0,0,1-2.92-.8c1.64-.26,3-.44,4.46-.71s2.71-.61,4.17-.94a29.44,29.44,0,0,1-4.41-9.89,19.76,19.76,0,0,0-2.24-4.25c-2.61,1.77-5.25,1.3-8,.86-4.21-.68-8.32-.32-11.69,2.8a9.19,9.19,0,0,1-1.13.84c-.11.07-.29,0-.58.06l.48-1.45c-2.32-1.41-2.75-2.39-1.56-4.79a19.21,19.21,0,0,1,3-4.14c1.2-1.34,2.64-2.44,3.91-3.71A27.18,27.18,0,0,0,158,162.6c-2.56-1.45-4.93-2.78-7.29-4.14-1.35-.77-2.72-1.53-4-2.41a6.2,6.2,0,0,1-1.74-1.83c-.75-1.23-.56-1.8.76-2.38s2.75-1,4.4-1.65C147.77,147.76,144.71,146,143.65,142.54Zm24.72,29.87-1.23,1.93,2-.38a6.34,6.34,0,0,0-.22-.8A8.48,8.48,0,0,0,168.37,172.41Z"/>
    <path d="M265.65,271l-3.86.65c-.13-2.3,1.83-3.77,2.06-5.86l.49.05c.12.61.25,1.22.39,1.91l1.61.19c1.3-5.67,2.59-11.33,3.93-17.18h-2.33c.29-1.88.55-3.59.85-5.5,1.13,1.07.23,2.23.59,3.34a1.93,1.93,0,0,0,1.75-1.69c.29-1.28.68-2.53,1-3.71,1.15-.25,2.11-.44,3.07-.67a2.83,2.83,0,0,1,2.79.81c1.82,1.83,3.06,3.93,2.86,6.64-.13,1.78-.33,3.57-.37,5.36,0,1.23.19,2.47.2,3.71a86.68,86.68,0,0,0,1.7,13.9,33,33,0,0,1,.07,7.23,5.51,5.51,0,0,1-2.2,3.74c-3.06,2.67-3.4,5.83-1,9.15,2.13-.34,2.13-.34,4.29.94a2.5,2.5,0,0,1-1.57,3,3.05,3.05,0,0,1-3.41-1,12.7,12.7,0,0,1-2.82-7.29c-.1-.93.06-1.84-.95-2.42-.28-.16-.41-.64-.52-1-.93-2.86-4.85-6.06-7.73-6.28-1.79-.14-2.34-.7-2.08-2.4.22-1.38.63-2.73.94-4.1C265.53,272.1,265.56,271.64,265.65,271Z"/>
    <path d="M62.2,118.43c.6,0,1.21.06,1.81.15,6.48.94,12.95,1.91,19.42,2.85,7.65,1.1,15.31,2.1,22.95,3.28,9.56,1.49,19.09,3.19,28.65,4.65,5.25.8,10.53,1.28,15.8,1.89,1.56.18,3.11.28,4.66.47a3.15,3.15,0,0,1,2.66,1.52c-.37.37-.66.91-1.09,1.07-1.64.64-3.37.94-4.86,2.09-.56.43-1.81.12-2.71-.06-5.75-1.11-11.48-2.29-17.23-3.42a11.78,11.78,0,0,0-3-.29c-7.71.53-15.26-.56-22.82-1.92-11.52-2.06-23.07-4-34.6-6-.77-.13-1.53-.32-2.31-.43a2.84,2.84,0,0,1-2.72-2.16,2.2,2.2,0,0,0-2.23-1.7,5.68,5.68,0,0,1-2-.46c-.35-.17-.51-.74-.76-1.13Z"/>
    <path d="M72.61,221.92c.23-1.86-1.65-2.5-2.55-4l-1.86,1.62c-1-1.08-.57-2.34-.5-3.52s.07-1.07-1-1.73l-.53,2.18a12.32,12.32,0,0,1-.68-7c.68-5,1.47-10,2.27-15,.49-3.09,1-6.16.56-9.31a9.74,9.74,0,0,1,.15-2.09c1.23.18,1.16,1,1.17,1.63a60.19,60.19,0,0,1-.15,8c-.61,4.95-1.55,9.86-2.3,14.8-.29,1.91-.43,3.84-.64,5.69a1.66,1.66,0,0,0,2.42-.53c0-2.26-.21-4.12,0-5.95.14-1.59.87-1.73,2.44-1.29a10.63,10.63,0,0,0,3.85.31c4.35-.45,8.67-1.09,13-1.58,1.31-.14,2.66,0,4-.09,1.05-.08,2.08-.39,3.13-.55a3.74,3.74,0,0,1,1.59-.06c1.67.54,3.43.93,4.58,2.53.27.37,1.07.47,1.64.5,2.65.17,5.3.24,7.95.4a5.62,5.62,0,0,1,3.7,1.27,56.61,56.61,0,0,1-9.68-.21c-3-.16-6.05-.4-9.29-.62a7.62,7.62,0,0,0,.08,6.12c2.2.2,4.43.48,6.67.59,3.66.18,7.32.23,11,.41a14.32,14.32,0,0,1,2.71.73c-2.21.92-11.77.77-19.56-.11l-1.08,4.34a7.51,7.51,0,0,0-2.55.28c-.56.28-.86,1.1-1.45,1.93C85.55,221.77,79.28,223.61,72.61,221.92Zm-.49-8c3.56-.21,7.21-.56,10.86-.59s7.4.29,10.8.44c.3-2.85.57-5.51.88-8.47-4.11.28-8.15.52-12.17.84s-8,.73-12.26,1.12a26.38,26.38,0,0,0,.51,3.27A35.86,35.86,0,0,0,72.12,213.92Zm10.95,1,.05.73c.9-.35,1.93.66,3-.73Zm-4,6.27-.61-1-1.26,1Z"/>
    <path d="M165.89,205.22q5.48,11.67,11,23.33c.53,1.13,1,2.26,1.56,3.42a21.83,21.83,0,0,0,7.73,0,43.44,43.44,0,0,1,11.67.24,52.41,52.41,0,0,1,6.66,1.14c-1,.09-2.09.25-3.13.24a17.07,17.07,0,0,1-3-.27,41.48,41.48,0,0,0-11.67-.43c-2.39.23-4.82,0-7.43,0a6.17,6.17,0,0,0,.24,1.41c2,4.23,4.1,8.42,6.08,12.66a3.36,3.36,0,0,0,3.1,2.08c.78.06,1.57.08,2.35.07a17,17,0,0,1,7.91,1.86,8.83,8.83,0,0,1,3.22,2.61,22.13,22.13,0,0,1,4.16,10.8,4.54,4.54,0,0,0,.46,1.52c1.23,2.62,2.57,5.18,3.72,7.83a22.11,22.11,0,0,0,6.74,8.85,69.52,69.52,0,0,0,8.46,6.26c1.86,1.06,3.36,2.78,5,4.22.75.65.82,1.29-.14,1.82-.1,0-.2,0-.25-.07a136.56,136.56,0,0,0-13.47-10.49,22.91,22.91,0,0,1-7.66-10.17c-1.31-3.17-2.83-6.25-4.24-9.37a3.81,3.81,0,0,1-.41-1.32c-.17-3.07-1.52-5.71-3-8.26a6,6,0,0,0-1.92-2c-3.57-2.17-7.54-2.57-11.79-2.54.63,2.57,2.72,4.22,3.23,6.79a2.17,2.17,0,0,1-1.94-1.39,83.06,83.06,0,0,1-4.82-8.29c-5.74-12.49-11.31-25.06-16.94-37.6l-2.77-6.16,1.47,1.21Z"/>
    <path d="M318.85,138.73c-.48,2-.88,4-1.47,5.9-1.47,4.85-3,9.68-4.55,14.51a5.46,5.46,0,0,1-2.17,3.22,10.41,10.41,0,0,0-1.79,2.17,5.57,5.57,0,0,1,.5-3.07c1-2.94,2-5.92,3.2-8.8a54.61,54.61,0,0,0,3.41-13.1,60.85,60.85,0,0,1,1.18-6.87c.39-1.45,1.4-2.73,2-4.14a43.12,43.12,0,0,1,7.34-11.91,9.65,9.65,0,0,1,6.32-3.51c7-.86,13.87-2.11,20.81-3.15,1.62-.24,3.27-.27,4.9-.38,1.12-.08,1.94.41,1.83,1.57-.24,2.55-.62,5.1-1,7.64,0,.29-.44.52-1,1.14-.4-3.46.83-6.36.8-9.42-4.21.58-8.23,1-12.21,1.69s-7.68,1.33-11.5,2.12a17.71,17.71,0,0,0-3.93,1.45,10.47,10.47,0,0,0-1.94,1.62c-.6-1.26,1.18-1.43,1.4-2.67-.67.21-1.32.23-1.67.57a27.5,27.5,0,0,0-3.3,3.61,48.17,48.17,0,0,0-6.63,14.39,3,3,0,0,0,.72,2.76c2.5,3.77,5,7.54,7.36,11.39a11.28,11.28,0,0,1,1.64,6.73,16,16,0,0,1-.35,1.93l-.46,0a4.25,4.25,0,0,1-.38-1.14,15.63,15.63,0,0,0-2.32-7.29c-1.7-2.9-3.47-5.75-5.24-8.6a7.58,7.58,0,0,0-1.11-1.16l-.51-1C318.34,138.05,318.34,138.05,318.85,138.73Z"/>
    <path d="M71,155.32l1.45,1c-1,.84-1.87.61-2.43-.27s-.07-1.6.79-2.08a18.18,18.18,0,0,0,2.2-1.34,4.11,4.11,0,0,0,1.7-4.51,4,4,0,0,0-4.16-2.78,9.32,9.32,0,0,0-8.12,4.31c-2.28,3.27-4.59,6.53-6.74,9.58a46.81,46.81,0,0,1,.36,5.91c-.15,2.31-1.59,3.31-3.82,3.07-4.06-.45-8.39-5.39-8.39-9.9a21.38,21.38,0,0,0,1.33,2.17,31.55,31.55,0,0,0,3.48,4.06,8.35,8.35,0,0,0,3.3,1.65c2,.56,2.85-.17,2.67-2.25-.21-2.45-.83-4.66-3.53-5.79-1.26-.53-2.2-1.81-3.6-3,2.33-.54,2.76-2.36,3.66-3.83,1-1.63,2.09-3.14,4.38-2.92.34,0,.74-.48,1.08-.76,1.9-1.55,3.76-1.22,5.07,1.09l1.56-1.67A9.88,9.88,0,0,1,71,143.87c4.27.12,6.49,4,4.46,7.8A7.84,7.84,0,0,1,71,155.32Z"/>
    <path d="M149.24,124.66a12.59,12.59,0,0,1-1.67,0q-11.08-1.83-22.16-3.68Q103,117.2,80.63,113.43a6.81,6.81,0,0,1-3.93-1.68c1.21-.92,2.43-.64,3.61-.44,6.23,1,12.45,2.18,18.69,3.18,11.86,1.89,23.75,3.66,35.61,5.58,3.93.63,7.81,1.49,11.7,2.33A3.48,3.48,0,0,1,149.24,124.66Z"/>
    <path d="M394,181c3.46,3.54,8.14,4.63,12.56,6.26a1.66,1.66,0,0,1-2.27,1.1c-4.78-1.13-9.25-2.89-12.55-6.77-.63-.74-1.18-1.2-2.22-.62a4.46,4.46,0,0,0,2.45,4,28.09,28.09,0,0,0,3.85,1.66c.84.34,1.7.66,2.61,1a1.64,1.64,0,0,1-2.23,1.33,38.79,38.79,0,0,1-4.43-1.44,4.06,4.06,0,0,0-2.82-.5,3,3,0,0,1-3.64-3.32,4.59,4.59,0,0,1,.64-1c.68,1.28,1.12,2.58,2.81,2.75-.52-1.54-1-3-1.57-4.68-1.16-.06-2.39-.16-3.61-.19-3-.09-6.08,0-9.1-.26a15.34,15.34,0,0,1-4.29-1.07c-2.4-.91-4.75-2-7.08-3a2.24,2.24,0,0,1-1.53-2.19,23.24,23.24,0,0,0,2.83,1.6c3.55,1.36,7,3.1,10.94,3.14,6.87.07,13.74.31,20.61.47.88,0,1.69,0,2.14-1,.13-.3.72-.39,1.29-.67,0,.64.06,1.06.1,1.65l4,.5-.68,1.21c3.67,1.17,6.85,3.54,10.93,3.79a1.64,1.64,0,0,1-1.95,1.56,8.65,8.65,0,0,1-2.7-.68c-3.15-1.38-6.29-2.78-9.36-4.31C397.81,180.3,395.94,180.7,394,181Z"/>
    <path d="M389.4,118.67c-2.41,2.66-5.65,3-9,2.76a8.84,8.84,0,0,1-8.11-5.76c-.45.87-.84,1.28-.83,1.67.06,1.24.31,2.48.4,3.72a7.37,7.37,0,0,1-.26,1.62c-1.41-1.44-1.54-2.75-.76-5.93-3.52-4.47-4.29-7-3.74-12.69l-1.66-1.27c1.56-1.25,2.94-1.26,4.67-.12a3.2,3.2,0,0,0,.56-3.62c-.5-1.35-1.2-2.69-.92-4.47.44.26.91.37,1,.59.65,2.45,2.55,4.13,3.75,6.23a2.55,2.55,0,0,0,1,1c3.89,2,7.65,4.56,12.35,3.4A12.92,12.92,0,0,0,391,104c.73-.43,1.4-1,2.14-1.38,1.19-.67,2.25-.64,3,.87-1,1.31-2.61,1.76-4.1,2.33-.73.28-1.53.36-2.24.68a10.31,10.31,0,0,1-9.83-.55c-.27-.15-.52-.34-.81-.47-2.25-1-4.51-2-6.89-3-1.4,1.64-.56,4.35-2.2,6.42-1.17-1.85-.08-3.48-.4-5.38-.47.53-.92.8-1,1.12-.39,3.76.92,7,3,10.09,1.48.38,2,1.89,3.08,2.66a11.4,11.4,0,0,0,3.31,1.65,15.87,15.87,0,0,0,8.77-.34c.8-.23,1.62-.41,2.42-.61Z"/>
    <path d="M155.59,109.1c-.94,3.86.91,7,1,10.4a17.12,17.12,0,0,1-2.32-9.84,1.75,1.75,0,0,1,2.91-1.32,19,19,0,0,1,2.94,2.66c1.69,1.83,3.29,3.75,4.93,5.64a28.29,28.29,0,0,0,10.57,7.93,6.51,6.51,0,0,1,4.13,4.72,32.61,32.61,0,0,0,3.42,8.93,3.75,3.75,0,0,1-.29,4.4,19.12,19.12,0,0,0-3.44,6.86,2.18,2.18,0,0,1-.31.53,1,1,0,0,1-.65-1.62,30,30,0,0,1,2.72-5.64c1.26-1.75,1.17-3,.22-4.86a41.12,41.12,0,0,1-2.84-7.4,6.08,6.08,0,0,0-3.83-4.35,21.05,21.05,0,0,1-8.31-5.53,40.8,40.8,0,0,1-3-4.13c-.35-.51-.52-1.3-1-1.56-2.26-1.22-3.56-3.46-5.49-5A13.61,13.61,0,0,0,155.59,109.1Z"/>
    <path d="M340.93,155.25l-1-.82A12,12,0,0,1,345.8,153c3-.19,5.93-.18,8.89-.17a4.79,4.79,0,0,0,2.38-.68,12.8,12.8,0,0,1,3.73-1.24c.71-.14,2,0,2.17.39.64,1.72,2,1.21,3.12,1.2,7.8-.11,15.6-.29,23.41-.37,1.91,0,3.84.25,6,.4a1.49,1.49,0,0,1-1.76,1.16l-6.55,0c-6.79,0-13.58.08-20.37.06-1.9,0-3.75.13-5.47-1.34-1-.85-2.42.22-3.72,1l4.61,3.49c-.48,1.26-1.35,1.07-1.91.55-1.42-1.32-3.7-1.16-4.87-2.95a2.23,2.23,0,0,0-1.7-.6c-3.89.17-7.76.4-11.64.67-.42,0-.81.41-1.22.63Z"/>
    <path d="M76.81,231.43h15.6c.23-2.43.42-4.59.66-6.74,0-.33.34-.63.75-1.35,1.06,2.86-.52,5.48.63,8.18h58.07l0,.58c-2,.14-4,.4-6,.41q-22.23.08-44.47.08c-7.18,0-14.36,0-21.54,0-1.28,0-2.56-.19-3.84-.3Z"/>
    <path d="M283.59,169.65l-.87,3.1-1.44,5.48.05-.11-1,3.4.08-.11a10.51,10.51,0,0,0-.82,1.6c-4.7,14.87-9.42,29.74-14.06,44.63-1.14,3.64-2,7.36-3,11h.05a33.78,33.78,0,0,1,.51-5.55q2-7.69,4.41-15.3c4.64-14.82,9.41-29.6,14-44.45,1-3.33,1.47-6.84,2.18-10.27l-.07,0c.87.32.78,1,.67,1.72C284,166.47,283.82,168.06,283.59,169.65Z"/>
    <path d="M190.12,147.8c-1.24-2.86-.1-4.83,1.76-6.66a38.32,38.32,0,0,1,15.43-9,4,4,0,0,1,3.87.25,38.73,38.73,0,0,0-11.81,4.6A72.17,72.17,0,0,0,192,142.4a3.05,3.05,0,0,0-1.17,3.49c.57-.1,1.14-.18,1.71-.32,2.34-.59,4.66-1.28,7-1.78a6.29,6.29,0,0,1,6.69,2.22,29,29,0,0,0,4.22,3.64c2,1.62,4,3.19,6,4.82a4.92,4.92,0,0,1,1.2,1.41c.12.23-.07.74-.27,1s-.57.09-.84,0-.37-.27-.54-.43c-3.69-3.35-7.4-6.68-11-10.09a4.71,4.71,0,0,0-3.06-1.5c-3.82-.19-7.36,1.13-11,2.12C190.7,147.09,190.46,147.49,190.12,147.8Z"/>
    <path d="M360.56,172.29c.73-.06,1.46-.17,2.18-.17l33.28.1a12.87,12.87,0,0,1,2.33.1c1.28.24,2.48.34,3.45-.74a.41.41,0,0,1,.2-.12,24.55,24.55,0,0,1,7.54-.9c-1.81,1.39-4.08,1-6.24,1.72,1.37,1.24,3.17.42,4.75,1.16a2.11,2.11,0,0,1-2.56.81c-3.05-.91-6.18-.71-9.3-.72-9.22,0-18.44,0-27.66-.08-2.64,0-5.27-.27-7.91-.42Z"/>
    <path d="M138.4,187.06a16.12,16.12,0,0,1,2.11,1.19c2.08,1.64,4.11,3.35,6.18,5,.82.67,1.51,1.35.91,2.78l-2.77-1.28a27.23,27.23,0,0,1-1.26,2.77,2.7,2.7,0,0,1-2.65,1.59,2.93,2.93,0,0,1-2.57-2.11,32.25,32.25,0,0,1-.65-3.4c-1.18.27-2.56.85-3.47-.51s-2-2.67-1.52-4.49a2.43,2.43,0,0,1,.37-1.08c.4-.43.93-1,1.4-1s.77.74,1,1c-.2,1.17-2.07.31-1.42,2,1.42-.06,2-1,2.14-2.33,1.55.92,1.55.92-.44,4.91,1.76.25,1.06-1.9,2.38-2.24l.49,1.61,2.52.67c-1,.68-2.15,1.11-2.19,1.64a5.21,5.21,0,0,0,.85,3,1.47,1.47,0,0,0,2.42.08,3.39,3.39,0,0,0-.08-4.61c-.88-.88-1.82-1.71-2.67-2.62-.57-.61-1-1.32-1.53-2Z"/>
    <path d="M242.33,205.83q-.12-68.42-.23-136.82c0-.18.21-.36.29-.51.16,0,.25,0,.3,0a.36.36,0,0,1,.11.2,7.19,7.19,0,0,1,.1.92V205.8Z"/>
    <path d="M144.6,260.1l-4.81.84c.86,1.13,1.81.83,2.73.61s1.91-.49,3.12-.81a6.08,6.08,0,0,1-5.14,2.34c-1.37-.06-1.52-.17-2.54-2.21-3.44.62-7.06.27-10.51,1.48a3.76,3.76,0,0,1-2.07.15,2.88,2.88,0,0,1-1.58-1.15,3,3,0,0,1,.45-3.29,3,3,0,0,1,3-1.52,8.91,8.91,0,0,0,3,0c3.32-.79,6.68-.46,10-.49,2.57,0,5.14,0,7.48,0a13.14,13.14,0,0,0,.68,2.53c.55,1.06.37,1.76-.8,2.36a5.87,5.87,0,0,0,0-1.63c-.77-2.35-1.59-2.82-4.16-2.63-2,.14-3.91.14-5.85.33-3.64.37-7.27.81-10.9,1.26a1.53,1.53,0,0,0-1.49,1.9c.27,1.09,1.18,1.21,2,1.1,3.16-.4,6.3-.94,9.46-1.3,2.61-.29,5.25-.41,7.88-.61Z"/>
    <path d="M82.85,163.27c.71,1.28,1.22,2.06,1.61,2.91a5.81,5.81,0,0,1-.78,6.37c-1.17,1.5-2.74,1.61-4,.16-2.09-2.45-2.25-5.29-1.37-8.3.66,2.81.44,6,3.46,7.72,1.7-1.64,2.11-3,1.1-4.9a53.12,53.12,0,0,0-3.29-4.81l-1.07-1.57.33-.49a18.9,18.9,0,0,1,2.39.39c1.35.38,2.65.95,4,1.27a8.22,8.22,0,0,0,3,.21,1.55,1.55,0,0,0,1.22-2.43,11.89,11.89,0,0,0-2.26-3.25c-.78-.7-2-.91-3.29-1.44.35-.26.69-.74,1.06-.77a3.73,3.73,0,0,1,2,.3,9.1,9.1,0,0,1,4.12,5.2c.58,1.82-1.62,4.06-3.84,4a20.32,20.32,0,0,1-2.55-.36C84.25,163.45,83.73,163.39,82.85,163.27Z"/>
    <path d="M354.5,162.9c-3.59,1.22-7.29,1.06-11.08,1.12-.81,2.6.2,5.18.14,8.13a4.56,4.56,0,0,1-2.09-3.83,26,26,0,0,1,.72-10.2,6,6,0,0,1,.93-1.85c.23-.31.75-.4,1.44-.73l-.6,2a2.39,2.39,0,0,0,.7.2c2.1-.19,4.18-.48,6.28-.59a17.64,17.64,0,0,1,8.32,2c.09,0,.11.26.24.6a6.36,6.36,0,0,1-3.82-.28,24,24,0,0,0-10-.67c-2.46.34-2.76.75-2.36,3.57C347,162.91,350.82,161.44,354.5,162.9Z"/>
    <path d="M338.52,123.52c-.12.73-.2,1.48-.37,2.2-1.38,5.67-2.85,11.33-4.12,17-1,4.4-1.71,8.86-2.58,13.29-.17.85-.49,1.68-.84,2.85a3.68,3.68,0,0,1-.85-3.4,79.85,79.85,0,0,1,1.47-9.92c1.75-6.86,3.83-13.64,5.78-20.45a15.63,15.63,0,0,1,.76-1.8Z"/>
    <path d="M221.25,259.5c-.75-1.53-.39-3.17-.16-4.74.41-2.78,1-5.54,1.5-8.3a83.64,83.64,0,0,0,1.76-18.61c-.09-3.12-.58-4.75-5.07-4.7-.46,0-.92,0-1.39,0,0,0-.08-.1-.12-.16,2.57-2.14,6.94-.83,7.41,2.44a58.61,58.61,0,0,1,.43,9.56c-.15,5.88-1.58,11.58-2.65,17.34-.34,1.83-.52,3.7-.8,5.55-.08.57-.24,1.14-.37,1.71Z"/>
    <path d="M146.37,362.48a30.34,30.34,0,0,1-3.47,1.3c-9.41,2.29-18.84,4.46-28.23,6.8-11.65,2.91-23.28,5.93-34.92,8.9a1.35,1.35,0,0,1-1.16-.11c3.21-.92,6.43-1.83,9.63-2.78,14.52-4.31,29.31-7.55,44.07-10.87,4-.89,7.89-1.92,11.83-2.86a22,22,0,0,1,2.3-.33Z"/>
    <path d="M90.84,134c-2.09-3-7.54-4.92-10.93-4a.93.93,0,0,1,.6-1.46,5.78,5.78,0,0,1,2-.35A15.46,15.46,0,0,1,90.88,131c2.48,1.68,2.29,3.82-.43,5.19a20.37,20.37,0,0,1-10,2.14c-1,0-2-.24-2-1.43,0-1,.58-1.69,1.91-1.83L80,136.42A16.18,16.18,0,0,0,90.84,134Z"/>
    <path d="M47.42,105c-.08-3.21-.38-6.47.89-9.55s6-3.89,8.47-1.82A4.17,4.17,0,0,1,58,98.1a8.49,8.49,0,0,1-4,5.25,1.93,1.93,0,0,1-1.09.35.8.8,0,0,1-.44-1.51c.34-.29.92-.33,1.22-.65a21.58,21.58,0,0,0,2.68-3.15,2.29,2.29,0,0,0-.62-3,4.25,4.25,0,0,0-4.19-.73,2.85,2.85,0,0,0-2.19,2.72c-.22,1.86-.34,3.73-.57,5.59a16.59,16.59,0,0,1-.56,2.15Z"/>
    <path d="M52.11,127.4c.38-3.26,2.47-6.19,1.9-9.64a2.43,2.43,0,0,0-2.64.69,24.33,24.33,0,0,0-7.9,10.29c-.9,2.22-.43,4.44.6,6.73-.33-.18-.76-.29-1-.57a6.22,6.22,0,0,1-1-6,25,25,0,0,1,9.37-12.55,5,5,0,0,1,.82-.45c2.08-.93,3.31-.26,3.17,2A20,20,0,0,1,52.11,127.4Z"/>
    <path d="M41.06,148.09c0,2.54-2.7,6.18-4.77,6.89a2.25,2.25,0,0,1-2.58-.5A3.16,3.16,0,0,1,33,151a6.52,6.52,0,0,1,1.2-1.69c.53-.64,1.13-1.21,1.66-1.85a3.52,3.52,0,0,1,4.42-.58A3.42,3.42,0,0,1,41.06,148.09ZM35.86,152c.26-.31.56-.52.58-.76s-.35-.37-.55-.55a2.32,2.32,0,0,0-.44.71C35.41,151.56,35.66,151.76,35.86,152Z"/>
    <path d="M306.13,176.52a4.93,4.93,0,0,1-.11-3.8,11.08,11.08,0,0,1,1.33-2.72,34.87,34.87,0,0,1,11.36-10.25c3-1.67,5.83-1.44,8.84.56-.69.72-1.49.4-2.16.21a8.29,8.29,0,0,0-7.89,1.71q-3.76,3.12-7.29,6.52a11.11,11.11,0,0,0-3.22,6.36,3.49,3.49,0,0,1-.29.88C306.65,176.11,306.49,176.2,306.13,176.52Z"/>
    <path d="M189.14,229.91a13.81,13.81,0,0,1-.53-2.27q-.6-16.86-1.13-33.73a11.15,11.15,0,0,1,.25-1.53c1.08,2.09.85,3.91,1,5.61C189.86,217.17,190.05,227.65,189.14,229.91Z"/>
    <path d="M17.74,80.87c-1,1.22-1.72.7-2.42-.06a7.44,7.44,0,0,1-.11-9.47,9.43,9.43,0,0,1,8.23-3c1.85.15,2.75,1.23,2.26,3a25.24,25.24,0,0,1-2.36,5.29c-.61,1.11-1,2.5-2.52,2.88a8.32,8.32,0,0,1-.85.13c-.49-.87,0-1.3.57-1.58,2.29-1.22,3.06-3.46,3.79-5.67.61-1.86,0-2.59-2-2.57a9.9,9.9,0,0,0-2.76.39c-4.92,1.5-6,6.41-2.34,10C17.34,80.39,17.48,80.57,17.74,80.87Z"/>
    <path d="M60.78,133.44a8.76,8.76,0,0,1,10.28-3.06c2.77,1.3,3.29,4.54,1,6.8a8.07,8.07,0,0,1-2.76,1.68,33.36,33.36,0,0,1-4.51,1.22c-.74.17-1.73.33-2-.68s.79-1.14,1.53-1.29c1-.2,2-.26,3-.51a17,17,0,0,0,2.85-1,2.52,2.52,0,0,0,1.72-2.53,2.66,2.66,0,0,0-2.43-2.21c-2.48-.34-5-.43-7.3.85C61.72,133,61.25,133.19,60.78,133.44Z"/>
    <path d="M369.29,162c.8,1,1.58,2.09,2.43,3.09.5.59,1.33,1,1.63,1.65,1,2.32,3,2,4.94,1.94,2.1-.09,4.19-.38,6.28-.54.82-.06,1.65,0,2.76,0-.45,1.09-1.08,1-1.65,1.07a27.78,27.78,0,0,1-4.09.64c-3.59,0-7.26.52-10.2-2.61a42.38,42.38,0,0,1-6.76-9.19c-.42-.81-.94-1.62,0-2.61,1.48,2.41,2.42,5,4.74,6.62Z"/>
    <path d="M187.6,126.12c-1.14-.64-.82-1.33-.36-2,1-1.5,2-3,3-4.48,2.25-3.68,4.16-7.54,4.58-11.9.24-2.53,0-5.11,0-7.57,1.7,2.17,1.65,8.21-.18,13.68C192.94,119,190,124.09,187.6,126.12Z"/>
    <path d="M358.61,164.58c1.39.26,1.33,1,1.15,1.84a10.06,10.06,0,0,1-2.84,5,10.53,10.53,0,0,1-6.67,3.47c-2.87.25-5.71.79-8.61.38-.5-.07-1-.22-1.56-.35.4-1.22,1.28-1,2-1a35.06,35.06,0,0,0,8.36-.78c4.3-.76,6.58-3.52,7.87-7.41C358.39,165.45,358.48,165.08,358.61,164.58Z"/>
    <path d="M187.53,91.4a3,3,0,0,1-.38.76c-2.45,2.63-3.4,5.91-4.08,9.3-1.24,6.19-2.66,12.37-2.06,18.76.26,2.71.63,5.4.63,8.23-.21-.73-.46-1.46-.63-2.2a44.23,44.23,0,0,1,.12-20.18c.7-3,1.29-6.1,2.09-9.11a10.09,10.09,0,0,1,3.88-5.85Z"/>
    <path d="M211.23,170.44a6.06,6.06,0,0,1-1.36-.25c-3.64-1.59-7.33-1-11-.26a2.43,2.43,0,0,0-2,2.73,27.19,27.19,0,0,1-3.4,12.53,3.19,3.19,0,0,1,.11-2.28,40.86,40.86,0,0,0,2.33-10.7,3.6,3.6,0,0,1,2.75-3.15,18.23,18.23,0,0,1,10.79-.62,8.37,8.37,0,0,1,2.06,1.24Z"/>
    <path d="M183.47,240.85a8.54,8.54,0,0,1,1.55-.57c7.35-1.05,16.37-1.19,18.61-.28-.25,1.17-1.2,1-2,1q-8.41.23-16.83.42a10.38,10.38,0,0,1-1.24-.11Z"/>
    <path d="M360.86,144.51a6.81,6.81,0,0,1,0-1.69c.84-3,1.69-6,2.64-9,.21-.65.9-1.13,1.34-1.72a10.37,10.37,0,0,0,.87-1.32c.84-1.58,1.62-3.2,2.51-4.76a17,17,0,0,1,1.53-2l.48.28c-.59,1.07-1.2,2.12-1.74,3.21s-1.1,2.25-1.55,3.41-.86,2.51-1.29,3.76-.79,2.29-1.27,3.65l-.83-1.19c-1.19,2.38-.95,5.16-2.2,7.43Z"/>
    <path d="M77.32,152.53a8.93,8.93,0,0,1,6-8.89,27.06,27.06,0,0,1,5.84-1.56c1.5-.25,2,.49,1.54,2A11.65,11.65,0,0,1,87,149.37c-.23-2.21,2.3-3.41,2.18-5.86A19.65,19.65,0,0,0,81.45,146C79,147.5,78.27,150.08,77.32,152.53Z"/>
    <path d="M316.45,373.22l1.13-.36a11.31,11.31,0,0,1-.63,1.08q-11.08,14.74-22.19,29.47a11.32,11.32,0,0,1-1.3,1.29c.48-.79.9-1.62,1.45-2.35Q305,389,315,375.6A24.5,24.5,0,0,0,316.45,373.22Z"/>
    <path d="M52.21,134.51l2.26-1.67c-1.56-1.6-3.27-1.13-4.92-.88-.45.07-.86.48-1.3.51s-1-.16-1.12-.42a1.31,1.31,0,0,1,.38-1.16c1.52-1.37,5.58-1.68,7.35-.63a2.88,2.88,0,0,1,.76,4.11C54.85,135.5,53.66,135.58,52.21,134.51Z"/>
    <path d="M212.28,134.14c.7-1,1.47-1,2.1-.45a7.1,7.1,0,0,1,2,2.22c1.65,3.6,3.18,7.26,4.69,10.92a8.45,8.45,0,0,1,.3,2.1l-.47.12a6.85,6.85,0,0,1-.89-1.23c-1.24-2.77-2.44-5.54-3.62-8.33-.36-.86-.56-1.79-.95-2.63C214.83,135.54,214.12,134.27,212.28,134.14Z"/>
    <path d="M285.72,255.58c4-2,5.5-5.43,6.51-9.19.84-3.14,1.56-6.32,2.61-9.51a19.68,19.68,0,0,1,0,2.55,40.35,40.35,0,0,1-2.85,11,13.43,13.43,0,0,1-4,5.39C287,256.59,287,256.54,285.72,255.58Z"/>
    <path d="M111.69,222.52a12.34,12.34,0,0,1-6.63,0,23.85,23.85,0,0,0-10.76-.35,4,4,0,0,1,.47-1.35,1.69,1.69,0,0,1,1.07-.34c3.18-.18,6.35-.52,9.48.59a21.38,21.38,0,0,0,4.12.72c.74.1,1.49.12,2.24.17Z"/>
    <path d="M93.58,164.46a27.53,27.53,0,0,0,4,1.62,3.63,3.63,0,0,0,3.91-1.54c.92-1.34.5-2.66-.3-3.93-.31-.5-.55-1.05-.79-1.53.88-.88,1.38-.36,1.86.2a4.86,4.86,0,0,1-1.85,7.63,5.66,5.66,0,0,1-5.79-.39A1.76,1.76,0,0,1,93.58,164.46Z"/>
    <path d="M268.55,305.72c.25-.42.51-1.42,1-1.59,1.05-.33,2.28-.94,3.33-.09a2,2,0,0,1,.61,1.62,5.93,5.93,0,0,1-1,2.55,2.43,2.43,0,0,1-1.86,1,3.68,3.68,0,0,1-1.78-1.58C268.58,307.26,268.67,306.6,268.55,305.72Zm1.65-.16c-.16,2-.07,2.07,1.45,1.53Z"/>
    <path d="M166,205.29V193.17c1.33.06,1.45.91,1.53,1.65a43.68,43.68,0,0,1-.22,10.93l-1.36-.52Z"/>
    <path d="M198.1,172.57l14.58,2.09a2,2,0,0,1-2.44,1.13c-1.62-.22-3.22-.59-4.84-.85-2.08-.34-4.17-.62-6.25-1C198.58,173.88,197.83,173.84,198.1,172.57Z"/>
    <path d="M241.8,294.82c.57-.86,1.14-1.1,1.71-.57,3.18,2.92,6.31,5.9,8.44,9.8-.34-.27-.71-.5-1-.79Z"/>
    <path class="cls-1" d="M248.9,267.12c.56-1.32,1.47-1.65,2.94-.93-.64,2.21-1.26,4.42-1.92,6.62-.37,1.23-1.35,1-2.51.92.07-.79.13-1.52.19-2.25l-.07.06,1-3.61Z"/>
    <path d="M161.26,130.51l9,15-.26.27a5.89,5.89,0,0,1-1-.94c-2-3-3.86-6-5.8-9a17.86,17.86,0,0,1-1.6-2.43,14.68,14.68,0,0,1-.61-2.83Z"/>
    <path d="M287.68,286.54c1.44,0,2,.51,2.06,1.89.06,1.86-1.17,3.74-2.44,3.73s-2.34-1.73-2.3-3.33A2.4,2.4,0,0,1,287.68,286.54Zm-.75,4,.68-.11c.3-.56.7-1.15,0-1.71-.19-.16-.67,0-1,.07Z"/>
    <path d="M340.87,155.19a5.87,5.87,0,0,1-1,1.25c-3.86,2.9-7.77,5.73-10.4,10l-.45-.25a5.63,5.63,0,0,1,.52-1.53,30.93,30.93,0,0,1,10.92-9.37c.12-.06.3,0,.46,0Z"/>
    <path d="M338.27,132a2.75,2.75,0,0,1,.75-.37,25.59,25.59,0,0,1,10.67.26,3.43,3.43,0,0,1,2.36,1.74,16.86,16.86,0,0,0,1.32,2,1.34,1.34,0,0,1-1.9-.93c-.59-1.46-1.78-1.78-3.14-2a28.18,28.18,0,0,0-9.07-.19,6.59,6.59,0,0,1-.89,0Z"/>
    <path d="M326.13,156.46c-4.85-1.68-8.58-4.32-9.36-6.52.14,0,.33-.14.42-.09,2.16,1.22,4.32,2.43,6.45,3.69A4.13,4.13,0,0,1,326.13,156.46Z"/>
    <path d="M220.88,301c2.39-2,4.68-3.92,7.12-6a2,2,0,0,1-.7,2.79,14.64,14.64,0,0,0-3.84,3.32C222.8,302.08,221.83,301.57,220.88,301Z"/>
    <path d="M172.23,87.26a11.36,11.36,0,0,1,5.78-7.6,4.94,4.94,0,0,1,2.48-.37c1,.07,1.12.82.8,1.81-1.74-1.08-3.15-.42-4.49.61A17.91,17.91,0,0,0,172.23,87.26Z"/>
    <path d="M157.65,191.72c2.38,1.89,2.61,1.92,3.86.47l-2.29-1a1.72,1.72,0,0,1,2.47-1.11c1.09.35,1.24,1.31,1.14,2.3a2.31,2.31,0,0,1-2,2.2C159.19,194.7,158.46,194.11,157.65,191.72Z"/>
    <path d="M280.78,304.41a14.44,14.44,0,0,1,.27-1.43c.47-1.33,2-2.3,2.84-1.88s.84,1.6.2,3a2.47,2.47,0,0,1-.6,1c-.53.36-1.26.91-1.7.77S281,304.81,280.78,304.41Z"/>
    <path d="M193.57,166.05c.69,1.87.84,9.42.23,11.51C192.53,175.86,192.42,170.31,193.57,166.05Z"/>
    <path d="M200.07,192.51c-1.47.63-2.8.75-3.62,0-1.72-1.5-3.87-1.87-5.82-2.73a3.32,3.32,0,0,1-.56-.41C191.65,188.73,195.76,190,200.07,192.51Z"/>
    <path d="M271,292.18a5,5,0,0,1-2.33,3.61,1.25,1.25,0,0,1-1.81-1.13,3.7,3.7,0,0,1,2.77-3.27C270.42,291.33,271,291.56,271,292.18Z"/>
    <path d="M209.68,234.32c0,3.33,0,6.41,0,9.49,0,.08-.24.17-.44.3-1-.48-1-1.44-1-2.35.1-1.87.22-3.74.38-5.61.08-.91.12-1.74-.95-2.25Z"/>
    <path d="M235.92,220.68l-1.52-.12c.3-.94.26-1.77-1-2.16l-.78,2.18c-1.16-1.23-1.13-2.69,0-3.58s2.07-.57,2.92.69C236.06,218.53,236.66,219.39,235.92,220.68Z"/>
    <path d="M301.54,144.1l-1.13-1.67a1.7,1.7,0,0,1,2.53.17c.71.65.33,1.44-.11,2.11a3.88,3.88,0,0,1-3.4,2.07c-1,0-1.59-.43-1.42-1.73C299.3,145.13,300.84,146.05,301.54,144.1Z"/>
    <path d="M85.93,225.53c-2.17,2.11-3.47,2.39-5.73,1.4-.64-.27-.83-.85-.37-1.29a2.82,2.82,0,0,1,1.78-.94A32.78,32.78,0,0,1,85.93,225.53Z"/>
    <path d="M265.52,233.35c.51-6,2.74-11.42,4.84-16.92Q267.95,224.89,265.52,233.35Z"/>
    <path d="M360.74,121.83l7.64-4.9c-.52,1.95-1.9,3.2-4.87,4.58C362.7,121.89,361.84,122.55,360.74,121.83Z"/>
    <path d="M154.84,122.67c1.79,2.73,1,5.27.69,8.18C154.41,129.08,154.13,125.37,154.84,122.67Z"/>
    <path d="M295.05,152c1.88.76,3.28,1.09,4.31-.87l-2.51-1a2.16,2.16,0,0,1,3.13-.36c.7.6.6,1.41-.3,2.44a3,3,0,0,1-3.73,1C295.69,153.16,295.56,152.74,295.05,152Z"/>
    <path d="M326.15,162.55c-.46.78-.71,1.57-.95,1.56-1.94,0-2.83,1.37-3.91,2.57a4.48,4.48,0,0,1-.77.53,1.68,1.68,0,0,1,.53-2.33C322.33,163.68,323.56,162.32,326.15,162.55Z"/>
    <path d="M280.19,141.58c-.46.18-.91.38-1.38.53-1.47.47-1.51.52-1,2.14a2.18,2.18,0,0,1,.11.44.55.55,0,0,1,0,.24.9.9,0,0,1-1.55-.07,2.92,2.92,0,0,1-.41-1.94C276.22,141.23,278.22,140.44,280.19,141.58Z"/>
    <path d="M350.67,167a11,11,0,0,1-6.78,1.1A6.36,6.36,0,0,1,350.67,167Z"/>
    <path d="M276.26,151.12l2.64,1.16a2.2,2.2,0,0,1-3,.43,1.75,1.75,0,0,1-.86-2.18,1.93,1.93,0,0,1,2.42-1.54Z"/>
    <path d="M360.81,109.48c.74-2,1.16-4.18,2.42-6.3A6.34,6.34,0,0,1,360.81,109.48Z"/>
    <path d="M342.4,142.51c-1.57,1.23-2.95.07-3.69-3.44Z"/>
    <path d="M116,228c.16-1.7.33-3.4.5-5.13.93.7,1,.71.75,2.39-.12,1-.29,1.92-.43,2.88Z"/>
    <path d="M117.33,208.09c1.91,1.08,1.94,2.52,0,4.09Z"/>
    <path d="M364.11,160.77l-3.39,1.79c-.19-2.19.49-2.28,3.12-2.26Z"/>
    <path d="M302.11,137.59c1.35-1.31,2.34-.19,3.9.51A4.26,4.26,0,0,1,302.11,137.59Z"/>
    <path d="M211.89,301.73l3.86.55C213.51,303.58,213.51,303.58,211.89,301.73Z"/>
    <path d="M117.84,215.62c1.16,1.19,1.12,1.9-.07,3.75C116.73,218,118,216.84,117.84,215.62Z"/>
    <path d="M285,368.34l-3.91,3.6-.28-.26c.61-.59,1.22-1.19,1.84-1.77s1.36-1.25,2.05-1.87Z"/>
    <path d="M189.3,178.51c-.39,1.57-.79,3.15-1.18,4.72-.75-1.84.33-3.23.68-4.79Z"/>
    <path d="M180.61,87.43,179.23,90C178.8,88.85,178.77,87.91,180.61,87.43Z"/>
    <path d="M288.48,364.52l2.3-2.08.21.23-2.28,2.1Z"/>
    <path d="M278,191.69c-.1,1.64-.21,3.28-1.57,4.47l0,.05,1.58-4.49Z"/>
    <path d="M274.2,205l-1,2.8-.27-.08c.3-1,.61-1.92.91-2.88Z"/>
    <path d="M276.39,196.16c.48,1.55-.42,2.77-1,4.05l1.08-4Z"/>
    <path d="M241,378.19c.64-1.49,2-2,3.36-2.63Z"/>
    <path d="M203.46,303.85c.47,1.1.93,2.21,1.4,3.31l0-.05c-.46-1.09-.93-2.19-1.4-3.28Z"/>
    <path d="M219,154.79l-.69-1.59a2.24,2.24,0,0,1,.5-.13c.28.48.53,1,.78,1.49Z"/>
    <path d="M200.15,292.19l-.83-1.61c.21,0,.38,0,.4,0,.25.48.48,1,.72,1.48Z"/>
    <path d="M293.54,404.61l-2,2.43Z"/>
    <path d="M248.5,267.93l-1,3.61Z"/>
    <path d="M236.45,292.29l1.23.43-.13.4-1.23-.45Z"/>
    <path class="cls-1" d="M318.85,138.73c-.51-.68-.51-.68-.12-1.83l.51,1Z"/>
    <path d="M206.85,300a2.12,2.12,0,0,1-.89-2.39l0,0c.3.79.59,1.59.88,2.39Z"/>
    <path d="M201.63,199.13l-.23-.73c.13,0,.36-.1.37-.07a6.08,6.08,0,0,1,.24.72Z"/>
    <path d="M245.65,374.89l1.9-1.65Z"/>
    <path d="M206.8,300l.75,1.53-.44.1c-.09-.55-.18-1.11-.26-1.67Z"/>
    <path d="M291.66,407l-1.47,2Z"/>
    <path d="M290,409.3l-1.9,1.94Z"/>
    <path d="M287.9,411.48l-1.5,2.1Z"/>
    <path d="M325.21,362.81c1.15-1.63,2.22-3.34,3.47-4.89q10.77-13.29,21.6-26.52a1.88,1.88,0,0,1,.92-.7c-8,11.16-17,21.62-25.39,32.47Z"/>
    <path class="cls-1" d="M149.14,294.64l1.68,2.19c-.52,1.73-.94,3.44.58,5.1l1.11-1.59a1.22,1.22,0,0,1,.41.14c.32.34.59.73.94,1,1.11,1,1.47,1,2.52-.11a6.22,6.22,0,0,0,.77-1.39l.67.56c-.87,1.5-1.79,3-2.6,4.52s-1.51,3-2.51,5.1a7.79,7.79,0,0,0-.3-1.46c-.12-.25-.4-.62-.56-.6a1.4,1.4,0,0,0-.89.53,5.3,5.3,0,0,0-.42,1.33q-1,3.84-2,7.69a5.62,5.62,0,0,0-.34,1.82c.35,3.62-.17,7.24.17,10.9a54.35,54.35,0,0,1-.66,14.21c-1.3-.13-1.8-.62-1.62-1.86.36-2.47.52-5,.88-7.44.23-1.57.28-2.95-1.53-3.41.47-5.29.84-10.41,1.39-15.5.36-3.31.51-6.69,2-9.81.23-.49.34-1.4.05-1.72-.75-.85-.52-1.73-.5-2.65.06-1.87.08-3.75.14-5.62,0-.6.08-1.19.12-1.79Z"/>
    <path class="cls-1" d="M151.28,366.16,147,359.34c1.43-.49,1.43-.49,1.86-1.88,1.21,1.3,2.52,5.15,2.88,8.49Z"/>
    <path class="cls-1" d="M129.34,341.41a5.56,5.56,0,0,1-.42-1.07c0-1.93,0-3.87,0-5.69a23.47,23.47,0,0,0,2.64-1.81,15,15,0,0,1,2.36-2.17c-.23.52-.33,1.24-.74,1.54-1.31,1-1.46,2.47-1.91,3.86C130.73,337.73,130.09,339.35,129.34,341.41Z"/>
    <path class="cls-1" d="M142.81,292.18l3.22-.93.37,1.43c-1,.94-1.73,1.74-2.57,2.45a4.69,4.69,0,0,1-1.33.57,5.09,5.09,0,0,1-.24-1.42A15.25,15.25,0,0,1,142.81,292.18Z"/>
    <path class="cls-1" d="M132.91,320.85l-3.55,7.42c-.91-3.6-.47-4.62,3.15-7.69Z"/>
    <path class="cls-1" d="M147,353.18s.06.44-.11.59c-.81.7-4.42,1.2-6.92,1l3.75-1.91Z"/>
    <path class="cls-1" d="M217.18,382.57l-7.68,1.1-.09-.56a31.06,31.06,0,0,1,7.63-1.43Z"/>
    <path class="cls-1" d="M300.83,338.34c2.32,1.15,2.89,2.14,2.48,3.88s-1,2.19-2.57,2.15C302.64,341.41,302.64,341.41,300.83,338.34Z"/>
    <path class="cls-1" d="M76.53,294.2l2.82,1.61-2.62,2.59A7.63,7.63,0,0,1,76.53,294.2Z"/>
    <path class="cls-1" d="M136.39,347.64c2.08,1.63,2.11,2.64.3,5.22A13.51,13.51,0,0,1,136.39,347.64Z"/>
    <path class="cls-1" d="M127.84,357.31l6.52-1.57.13.59A14,14,0,0,1,127.84,357.31Z"/>
    <path class="cls-1" d="M101.53,298.94l3.69-3C104.44,299.26,104.12,299.52,101.53,298.94Z"/>
    <path class="cls-1" d="M129.7,295.87c1-1.09.69-3.3,3.25-3l-2.84,3.36Z"/>
    <path class="cls-1" d="M98.84,297.66c.33-2.8.4-2.87,3-2.71A7.37,7.37,0,0,1,98.84,297.66Z"/>
    <path class="cls-1" d="M149.57,318.94l-.64,6.67C148.3,323.11,148.42,320.33,149.57,318.94Z"/>
    <path class="cls-1" d="M108.41,300.05l2.85-2.56a4,4,0,0,1-1.52,3C109.59,300.6,109.11,300.29,108.41,300.05Z"/>
    <path class="cls-1" d="M92.36,299.59l1.49-1,1.18-.76c-.24,2.15-.24,2.15-2.2,2.27Z"/>
    <path class="cls-1" d="M111.28,294.26l-2.87,2.5C108.82,294.16,108.82,294.16,111.28,294.26Z"/>
    <path class="cls-1" d="M128.38,307.36l-2-2.39,2-.16Z"/>
    <path class="cls-1" d="M282.11,321.07l2.78-2.38.32.36A4.07,4.07,0,0,1,282.11,321.07Z"/>
    <path class="cls-1" d="M167.55,381.05c1-.07,2.2-.31,2.49,1.41A2.77,2.77,0,0,1,167.55,381.05Z"/>
    <path class="cls-1" d="M281.28,178.23l1.44-5.48Z"/>
    <path class="cls-1" d="M129.19,344.85c1.16.63,1.48,1.36.33,2.7C129.37,346.36,129.28,345.61,129.19,344.85Z"/>
    <path class="cls-1" d="M149.79,338.73l.23-2.47C150.9,338.09,150.9,338.09,149.79,338.73Z"/>
    <path class="cls-1" d="M143.87,307.13l.51-1.65c.25.14.44.22.44.26-.1.54-.23,1.08-.35,1.61Z"/>
    <path class="cls-1" d="M136,294.69l-1.19,1.72c-.48-1.2.29-1.55.82-2.06Z"/>
    <path class="cls-1" d="M280.34,181.52l1-3.4Z"/>
    <path class="cls-1" d="M161,290.77v-1.59h.23v1.59Z"/>
    <path class="cls-1" d="M270.67,233.71c-.21-.08-.46-.13-.46-.17a2.36,2.36,0,0,1,.15-.58c.13,0,.37.08.38.15A2.17,2.17,0,0,1,270.67,233.71Z"/>
    <path class="cls-1" d="M156.72,350.76l.66,1.15-.41.23-.62-1.16Z"/>
    <path d="M149,386.77l4.38-2.27.23.5-4.5,1.9Z"/>
    <path class="cls-1" d="M16.69,282.39c.29-.73.42-1.18.62-1.59a2.31,2.31,0,0,0-.29-2.6,5.73,5.73,0,0,1-.77-5.9c.08,1,.1,1.53.19,2.09.15,1,0,2.27,1.66,2.27.35,0,.76.71,1,1.16,1.27,2,2.43,4,5.15,4.34.39,0,.71.72,1,1.07-1,2.25-3.42.24-4.54,2Z"/>
    <path class="cls-1" d="M28.41,266l-.73.11h-.79a8.29,8.29,0,0,1,1.81,8.49c-.69,2.17-2.34,3.49-4.36,4.58.31-.91.69-1.81.92-2.75a63.25,63.25,0,0,0,1.34-6.34,5,5,0,0,0-1.94-5C26.19,264.66,27.15,265.1,28.41,266Z"/>
    <path class="cls-1" d="M26.7,262.37l-5.2.49c1.43-1.56,2.87-1.16,4.6-1l-1.54-1.77C25.81,260.36,25.81,260.36,26.7,262.37Z"/>
    <path class="cls-1" d="M26.6,286.79c.63-1.06,1.25-1.84,2.75-1.55C28.59,286.13,28.19,287.24,26.6,286.79Z"/>
    <path class="cls-1" d="M9.24,290.19,9.55,288C10.59,288.92,10.59,288.92,9.24,290.19Z"/>
    <path class="cls-1" d="M21.45,260.66l-2.24,1.9C20,260.73,20,260.73,21.45,260.66Z"/>
    <path class="cls-1" d="M11.93,371l1.85,1.28c1.65-1.43,1.87-2.75,1-5-.47-1.22-.84-2.49-1.2-3.75a6.8,6.8,0,0,1,.1-1.64c.86,1.15,1.45,1.84,1.92,2.6a4.57,4.57,0,0,0,3.84,2.31,4.78,4.78,0,0,1,1.62.19c2.53,1.13,4.69.23,6.8-1.12a19.81,19.81,0,0,1,1.88-.91l2.56,2.56,3.76-3.65c1,1.38,1.45,3.33,3.53,1.86l1.68,1.9L44,365.84l1.5,2.5a17.33,17.33,0,0,1-5.6,7.18c-3.57,2.55-7.61,3-11.84,2.05-1.82-.38-3.68-.58-5.49-1-3.63-.79-7.42-1.24-10.13-4.24-.29-.33-.56-.69-.85-1Z"/>
    <path class="cls-1" d="M26.92,313.8a17,17,0,0,1,10.35,11c.9,2.75,1.87,5.46,2.75,8.21a16.94,16.94,0,0,1,.29,9.92c-.79,2.86-1.49,5.74-2.26,8.6a18.7,18.7,0,0,1-6.3,9.07c0-1.58,1.39-2.33,1.67-3.53l-.78-.45c.1-.23.17-.45.28-.66.82-1.59,1.71-3.15,2.48-4.77a13,13,0,0,0,1.31-7.5,2.43,2.43,0,0,1,0-.93c1-3.85,0-7.43-1.42-11-.79-2-1.48-4.12-2.34-6.12a8.29,8.29,0,0,0-5.81-5,3.19,3.19,0,0,1-1.51-.58c-1.43-1.57-3.22-1.44-5-1.12a6.75,6.75,0,0,0-4.92,2.82,3.82,3.82,0,0,1-2.72,2,12.05,12.05,0,0,1,6.41-7Z"/>
    <path class="cls-1" d="M52.65,342.65c-.51,6.53-1.19,13-3.27,19.27l-.49-.09c.1-.46.23-.92.3-1.39.16-1.13.3-2.26.42-3.4.21-2,.28-4,.63-6,.51-2.82,1.22-5.6,1.84-8.4Z"/>
    <path class="cls-1" d="M16.87,362.28a14.86,14.86,0,0,1,2.78.92,7.59,7.59,0,0,0,5.8.92,16.51,16.51,0,0,1,1.78-.21c-1.67,1.39-2.92,2.34-4.84,1.37a6.05,6.05,0,0,0-2.5-.37C18.31,364.88,17.31,364.09,16.87,362.28Z"/>
    <path class="cls-1" d="M10.5,331.17c-.24,2-.52,4-.71,6s-.32,4.15-.48,6.38c-1-3.16-.64-9.06.67-12.4Z"/>
    <path class="cls-1" d="M29,302.38c-1.52,1.65-3.68.64-5.47,1.2A5.87,5.87,0,0,1,29,302.38Z"/>
    <path class="cls-1" d="M41.14,331.47,39.47,326C41.1,327,41.19,327.3,41.14,331.47Z"/>
    <path class="cls-1" d="M8.09,353.15l1.59,3.29C8.22,355.69,8.22,355.69,8.09,353.15Z"/>
    <path class="cls-1" d="M32.41,313.4l1.18,1.32-.29.29L32,313.85Z"/>
    <path class="cls-1" d="M7.24,365.84,7.92,367l-.24.24a2.45,2.45,0,0,1-.53-.48,4,4,0,0,1-.3-.8Z"/>
    <path class="cls-1" d="M57.76,184.8c-2-.25-3.91-1-5.87-.5-.55,1,.06,1.39.61,1.85.75.65.42,1.19-.27,1.76a3.94,3.94,0,0,0-2.69-2c-1.18-.21-2.21-1.36-3.39-2.14,2.12-.37,4.36-1.18,6.52-1,1.7.13,4-.08,5,2.11Z"/>
    <path class="cls-1" d="M26.8,180.64l3.33.67L29,182.61l2.07,1.68L28.66,188Z"/>
    <path class="cls-1" d="M14.77,180.1c.62.15,1.17.15,1.24.33a6.66,6.66,0,0,1-.28,5Z"/>
    <path class="cls-1" d="M36.83,176.74c.32-.44.4-.66.5-.66a9.12,9.12,0,0,1,3,.11Z"/>
    <path class="cls-1" d="M60,231.35c-.39.26-.61.52-.81.51s-.41-.28-.61-.44c.19-.19.36-.5.59-.55S59.54,231.1,60,231.35Z"/>
    <path class="cls-1" d="M3.84,173.49l.86-1c.15.15.45.41.44.43-.27.34-.58.65-.88,1Z"/>
    <path d="M13.65,202.68c.35-1.28.79-3,1.3-4.71.12-.43.38-1,.72-1.15,1.82-.74,2.18-2.52,3-3.95a31.27,31.27,0,0,1,2-2.88,5.87,5.87,0,0,1,1.56-1.38c1-.6,2.19-1.14,3.29-.39s.72,1.87.51,2.82a66.93,66.93,0,0,1-1.91,7c-.58,1.66-1.3,3.34-3.43,3.77-.47.1-.84,1-1.11,1.6a43.56,43.56,0,0,1-1.81,4.26c-.71,1.23-1.34,1.13-2.47.24C13.76,206.63,14,204.84,13.65,202.68Z"/>
    <path class="cls-1" d="M312,56.48a32.78,32.78,0,0,1-4.73,1.66,79.05,79.05,0,0,0-12.2,3.2,31.33,31.33,0,0,1-9.88,1.57c-6.92.13-13.84.45-20.75.86a63.21,63.21,0,0,1-15.77-1.41c-1.06-.21-2.16-.21-3.24-.32a24.89,24.89,0,0,1-3.47-.38,5.36,5.36,0,0,1-4.31-4.35,20.57,20.57,0,0,1,7.15-2.44c3.33-.51,6.52-1.47,9.79-2.17a68.94,68.94,0,0,1,11.12-1.24c4.43-.23,8.89-.32,13.32-.13,4.17.19,8.32.86,12.49,1.27,1.94.19,3.89.28,5.83.41.47,0,1-.14,1.4,0,2.92,1.3,6.09.83,9.1,1.42C309.12,54.73,310.3,55.64,312,56.48Zm-30.82-2.07c-1,1-1.81,2.15-2.91,2.71a15.49,15.49,0,0,1-8.15,1.76,9.83,9.83,0,0,1-4-1.14,5.41,5.41,0,0,1-2.18-2.56c-.25-.61.4-1.58.67-2.47a1.57,1.57,0,0,0-2,1.59,4.39,4.39,0,0,0,.9,3.3,7.24,7.24,0,0,0,4.71,2.81,18.12,18.12,0,0,0,10.69-1.81A4.1,4.1,0,0,0,281.15,54.41Z"/>
    <path class="cls-1" d="M269.3,30.67c-.09-.85-.16-1.43-.22-1.91.56-.55,2.11,0,3,1C271.37,30.46,270.44,30.37,269.3,30.67Z"/>
    <path class="cls-1" d="M271.82,35.06l-3.77,1.3-.17-.48c1.2-.59,2.16-1.82,3.74-1.46Z"/>
    <path class="cls-1" d="M274.2,28a7.72,7.72,0,0,1-.81-1,6.64,6.64,0,0,1-.22-1l1.93-.12C274.76,26.61,274.55,27.13,274.2,28Z"/>
    <path class="cls-1" d="M248.3,52.94l-2.55.42C247,51.65,247.16,51.62,248.3,52.94Z"/>
    <path class="cls-1" d="M279.57,49.44l-1.14.06-.06-.42,1.12-.26Z"/>
    <path class="cls-1" d="M290.47,44.86l-1.07-.79.18-.26,1.09.77Z"/>
    <path class="cls-1" d="M24.14,125.83a3.31,3.31,0,0,1,.31.8c0,.05-.42.28-.51.22a2.1,2.1,0,0,1-.43-.6Z"/>
    <path class="cls-1" d="M172.9,96.22c.22-.28.44-.56.68-.83,0,0,.22.17.34.25l-.7.89Z"/>
    <path class="cls-1" d="M283.67,163.12c-.71,3.43-1.15,6.94-2.18,10.27-4.58,14.85-9.35,29.63-14,44.45q-2.37,7.6-4.41,15.3a33.78,33.78,0,0,0-.51,5.55c-1,.43-1.77.34-1.56-1a68.58,68.58,0,0,1,1.26-6.84c4.64-17.64,10.83-34.81,16.3-52.2q2.28-7.24,4.59-14.48A9,9,0,0,1,283.67,163.12Z"/>
    <path class="cls-1" d="M282.52,157.47a9.21,9.21,0,0,1-.14,4.45c-1.45,3.94-2.92,7.89-4.15,11.91-2,6.55-3.75,13.18-5.72,19.74-1.14,3.8-2.49,7.54-3.76,11.3a2.71,2.71,0,0,1-1,1.35,28.94,28.94,0,0,1,.55-3.09c1-3.35,2.07-6.68,3.07-10,1.06-3.58,2.3-7.13,3-10.78,1.37-6.83,3.95-13.28,6-19.89.52-1.69,1.09-3.36,1.64-5Z"/>
    <path class="cls-1" d="M252.63,263.68l-2.09-.13a2.5,2.5,0,0,1-.06-.77c.9-2.89,1.79-5.78,2.74-8.65.49-1.49.53-1.48,2.65-1.06C254.81,256.55,253.76,260,252.63,263.68Z"/>
    <path class="cls-1" d="M262.22,249.63l-1,1.78-3.8-.25,1.53-5.75c1.4.92,2.83-.64,4.07.59Z"/>
    <path class="cls-1" d="M258.54,263.64c1-3.54,1.91-6.71,2.87-10.06l2.1.54c-.79,3-1.49,5.81-2.33,8.59C260.81,264,259.72,263.43,258.54,263.64Z"/>
    <path class="cls-1" d="M255.29,274.05c.87-2.82,1.73-5.63,2.64-8.59h2.53c-.87,2.83-1.61,5.44-2.47,8C257.61,274.6,257.46,274.57,255.29,274.05Z"/>
    <path class="cls-1" d="M258.61,253.22h2.3c-1.05,3.44-2,6.61-3,9.76-.32,1-1.06.95-2,.46q1.32-5.1,2.66-10.24Z"/>
    <path class="cls-1" d="M252.52,273.47l2.37-7.1c.31-.93,1-1.13,2-.85a6.46,6.46,0,0,1-.08,1.25c-.59,2-1.24,4-1.84,6C254.61,273.94,253.92,274.22,252.52,273.47Z"/>
    <path class="cls-1" d="M256.11,238.62c2-6.4,4-12.62,6.37-18.78-.17.83-.28,1.67-.52,2.47q-2.13,7.4-4.31,14.78C257.46,237.73,257.43,238.53,256.11,238.62Z"/>
    <path class="cls-1" d="M251.35,237.37c-1.18-3.12,0-6.1.55-9.1a3.7,3.7,0,0,1,1.68,4.13c-.64,1.55-1.64,2.95-1.67,4.71,0,.07-.42.12-.64.18Z"/>
    <path class="cls-1" d="M262.22,249.63l.85-3.63,2.59-.75c-.66,2.61-1.19,4.74-1.72,6.86C262,251.69,262,251.69,262.22,249.63Z"/>
    <path class="cls-1" d="M258.61,253.2a27,27,0,0,0-1.13,2.52c-.73,2.21-1.38,4.45-2.11,6.66-.19.58-.25,1.5-1.61,1,1.05-3.43,2.1-6.86,3.17-10.39l1.68.25Z"/>
    <path class="cls-1" d="M254.26,251.07a47.61,47.61,0,0,1,1.62-4.81c.22-.48,1.17-.62,2.06-1,.06,2.28-.8,3.88-1.36,5.53C256.37,251.37,256.24,251.33,254.26,251.07Z"/>
    <path class="cls-1" d="M251.14,273.54a19.3,19.3,0,0,1,1.92-7.49c.07-.16.5-.15,1.17-.33A30.11,30.11,0,0,1,251.14,273.54Z"/>
    <path class="cls-1" d="M248.63,276.42c-.25,3.4-.29,3.45-2.65,3.29.14-1.1.28-2.18.44-3.49Z"/>
    <path class="cls-1" d="M249.38,284c.4-2.8.4-2.8,2.82-2.65-.2.88-.39,1.72-.59,2.65Z"/>
    <path class="cls-1" d="M256.93,277.44c-.8,1.72-.8,1.72-2.91,1.64,0-2.19,0-2.19,2.82-2.64l.05,1.06Z"/>
    <path class="cls-1" d="M250.89,279.31c.23-2.53.37-2.65,2.37-2.14C253,279.47,253,279.47,250.89,279.31Z"/>
    <path class="cls-1" d="M283.35,153.5c-2,.05-2.46-1.36-2.94-2.61-.16-.42.23-1,.6-1.59C281.35,151,281.53,152.61,283.35,153.5Z"/>
    <path class="cls-1" d="M259.09,241.86c-.15,1.27-.08,2.26-1.4,2.06-.61-.09-1-.44-.82-1.12C257.19,241.52,258.13,242.1,259.09,241.86Z"/>
    <path class="cls-1" d="M282.26,139.74l-1.57-1.67c.66-1,1.32-.57,2.27-.11-.25.6-.48,1.18-.72,1.77Z"/>
    <path class="cls-1" d="M295.14,142.64c-.38-1.63-.08-2.5,1.85-2.9Z"/>
    <path class="cls-1" d="M259.78,234a5,5,0,0,1-.71,3.79l-.53-.17C259,236.45,259.37,235.24,259.78,234Z"/>
    <path class="cls-1" d="M294,133H291.4l0-.13c.44-.07.89-.16,1.34-.19s.85,0,1.27,0Z"/>
    <path class="cls-1" d="M250.46,277c-.22.74-.45,1.48-.74,2.45C249.25,278,249.25,278,250.46,277Z"/>
    <path class="cls-1" d="M261.82,287.44l2.15-.17C262.78,288.17,262.78,288.17,261.82,287.44Z"/>
    <path class="cls-1" d="M183.86,258.2c-2.13.24-2.15.25-2.88-1.69q-5.21-13.92-10.4-27.85c-.74-2-1.44-4-2.14-5.95-.19-.55-.33-1.12-.49-1.67l.53-.19C173.58,233.23,178.67,245.61,183.86,258.2Z"/>
    <path class="cls-1" d="M187,258.29c-1.17.35-2.11.23-2.65-1l-9.87-23.44a.45.45,0,0,1,0-.22C175.72,234.73,186.34,255.7,187,258.29Z"/>
    <path class="cls-1" d="M182.33,269.79c.1.54.18,1.07.31,1.6.46,1.77.47,1.77-1.59,2.82q-2.48-6.66-4.92-13.25c2.14-.95,2.27-.93,3,.75s1.26,3.51,2,5.24a13.43,13.43,0,0,0,1.17,1.95Z"/>
    <path class="cls-1" d="M182.33,269.79l-.12-.89q-1.41-4.06-2.8-8.12c1.94-.74,2.1-.75,2.65.62,1.3,3.25,2.51,6.53,3.85,10l-2.15,1.15Z"/>
    <path class="cls-1" d="M189.89,270.46c-1.35-3.28-2.6-6.34-3.87-9.44,1.18-.78,2.09-.93,2.69.29,1.58,3.18,3.09,6.39,4.6,9.53C191.82,272.14,191.33,269.38,189.89,270.46Z"/>
    <path class="cls-1" d="M189.17,270.83l-2.46.4c-1.62-3.49-2.85-7.1-4.19-10.77,1.16-.38,2-.55,2.47.49C186.37,264.13,187.7,267.34,189.17,270.83Z"/>
    <path class="cls-1" d="M181,276.64c.88,2.11.88,2.11-1.54,3.51C180.07,278.79,180.47,277.86,181,276.64Z"/>
    <path class="cls-1" d="M189.41,272.83c-.45,0-.89.07-1.34.05-.19,0-.37-.15-.53-.64l1.86-.1Z"/>
    <path class="cls-1" d="M152.12,184l1.1.22-.07.38-1.08-.13Z"/>
    <path class="cls-1" d="M173.34,256.41l.58,1.19-.38.18-.54-1.21Z"/>
    <path class="cls-1" d="M161.74,225.52l.76,1.22-.38.17c-.11-.48-.23-.95-.34-1.43Z"/>
    <path class="cls-1" d="M187.47,280.73c.28-.11.56-.24.84-.34s.39-.11,1.15-.31l-1.39,1.22Z"/>
    <path class="cls-1" d="M168.37,172.41a8.48,8.48,0,0,1,.51.75,6.34,6.34,0,0,1,.22.8l-2,.38Z"/>
    <path class="cls-1" d="M72.12,213.92a35.86,35.86,0,0,1-1.38-3.39,26.38,26.38,0,0,1-.51-3.27c4.27-.39,8.26-.8,12.26-1.12s8.06-.56,12.17-.84c-.31,3-.58,5.62-.88,8.47-3.4-.15-7.1-.46-10.8-.44S75.68,213.71,72.12,213.92Zm1.2-5.33a8.73,8.73,0,0,0-.6,1.5c-.24,1.59.32,2,1.79,1.47a17.66,17.66,0,0,0,1.94-.65,12.54,12.54,0,0,0,1.68-1.24l-.25-.58-3.66.6Zm8.11.76c-2.48,0-2.59.1-1.94,1.55Z"/>
    <path class="cls-1" d="M83.07,214.88h3.05c-1.07,1.39-2.1.38-3,.73Z"/>
    <path class="cls-1" d="M79.1,221.15H77.23l1.26-1Z"/>
    <path class="cls-1" d="M35.86,152c-.2-.28-.45-.48-.41-.6a2.32,2.32,0,0,1,.44-.71c.2.18.56.38.55.55S36.12,151.73,35.86,152Z"/>
    <path class="cls-1" d="M270.2,305.56l1.45,1.53C270.13,307.63,270,307.52,270.2,305.56Z"/>
    <path class="cls-1" d="M286.93,290.51l-.36-1.75c.35,0,.83-.23,1-.07.72.56.32,1.15,0,1.71Z"/>
    <path d="M281.15,54.41a4.1,4.1,0,0,1-2.28,4.19,18.12,18.12,0,0,1-10.69,1.81,7.24,7.24,0,0,1-4.71-2.81,4.39,4.39,0,0,1-.9-3.3,1.57,1.57,0,0,1,2-1.59c-.27.89-.92,1.86-.67,2.47a5.41,5.41,0,0,0,2.18,2.56,9.83,9.83,0,0,0,4,1.14,15.49,15.49,0,0,0,8.15-1.76C279.34,56.56,280.12,55.39,281.15,54.41Z"/>
    <path d="M73.32,208.59l.9,1.1,3.66-.6.25.58a12.54,12.54,0,0,1-1.68,1.24,17.66,17.66,0,0,1-1.94.65c-1.47.56-2,.12-1.79-1.47A8.73,8.73,0,0,1,73.32,208.59Z"/>
    <path d="M81.43,209.35l-1.94,1.55C78.84,209.45,79,209.35,81.43,209.35Z"/>
  </g>
</svg>
